<ttFont>
    <TTGlyph name="A" xMin="27" yMin="-6" xMax="566" yMax="686">
      <contour>
        <pt x="432" y="181" on="1"/>
        <pt x="360" y="180" on="1"/>
        <pt x="226" y="180" on="1"/>
        <pt x="155" y="181" on="1"/>
        <pt x="95" y="-1" on="1"/>
        <pt x="82" y="-4" on="0"/>
        <pt x="47" y="-4" on="0"/>
        <pt x="29" y="1" on="1"/>
        <pt x="27" y="4" on="1"/>
        <pt x="256" y="683" on="1"/>
        <pt x="272" y="686" on="0"/>
        <pt x="324" y="686" on="0"/>
        <pt x="336" y="683" on="1"/>
        <pt x="566" y="4" on="1"/>
        <pt x="550" y="-6" on="0"/>
        <pt x="507" y="-6" on="0"/>
        <pt x="489" y="9" on="0"/>
        <pt x="482" y="30" on="1"/>
      </contour>
      <contour>
        <pt x="175" y="242" on="1"/>
        <pt x="234" y="243" on="1"/>
        <pt x="352" y="243" on="1"/>
        <pt x="353" y="243" on="0"/>
        <pt x="403" y="242" on="0"/>
        <pt x="412" y="242" on="1"/>
        <pt x="346" y="441" on="1"/>
        <pt x="314" y="536" on="0"/>
        <pt x="295" y="605" on="1"/>
        <pt x="290" y="605" on="1"/>
        <pt x="274" y="544" on="0"/>
        <pt x="257" y="491" on="1"/>
      </contour>
    </TTGlyph>
    <TTGlyph name="AE" xMin="22" yMin="-4" xMax="813" yMax="683">
      <contour>
        <pt x="408" y="181" on="1"/>
        <pt x="341" y="180" on="1"/>
        <pt x="251" y="180" on="1"/>
        <pt x="189" y="181" on="1"/>
        <pt x="95" y="-1" on="1"/>
        <pt x="80" y="-4" on="0"/>
        <pt x="42" y="-4" on="0"/>
        <pt x="24" y="1" on="1"/>
        <pt x="22" y="4" on="1"/>
        <pt x="372" y="675" on="1"/>
        <pt x="388" y="683" on="0"/>
        <pt x="414" y="683" on="1"/>
        <pt x="798" y="683" on="1"/>
        <pt x="799" y="672" on="0"/>
        <pt x="799" y="633" on="0"/>
        <pt x="795" y="622" on="1"/>
        <pt x="636" y="622" on="0"/>
        <pt x="476" y="622" on="1"/>
        <pt x="477" y="561" on="1"/>
        <pt x="477" y="375" on="1"/>
        <pt x="536" y="376" on="1"/>
        <pt x="747" y="376" on="1"/>
        <pt x="750" y="361" on="0"/>
        <pt x="750" y="331" on="0"/>
        <pt x="747" y="316" on="1"/>
        <pt x="536" y="316" on="1"/>
        <pt x="498" y="316" on="0"/>
        <pt x="477" y="317" on="1"/>
        <pt x="477" y="95" on="1"/>
        <pt x="476" y="60" on="1"/>
        <pt x="510" y="62" on="0"/>
        <pt x="537" y="62" on="1"/>
        <pt x="813" y="62" on="1"/>
        <pt x="813" y="42" on="0"/>
        <pt x="811" y="32" on="1"/>
        <pt x="805" y="0" on="0"/>
        <pt x="766" y="0" on="1"/>
        <pt x="448" y="0" on="1"/>
        <pt x="430" y="0" on="0"/>
        <pt x="408" y="25" on="0"/>
        <pt x="408" y="47" on="1"/>
      </contour>
      <contour>
        <pt x="342" y="243" on="1"/>
        <pt x="408" y="242" on="1"/>
        <pt x="408" y="606" on="1"/>
        <pt x="407" y="605" on="1"/>
        <pt x="402" y="605" on="1"/>
        <pt x="398" y="596" on="0"/>
        <pt x="349" y="491" on="1"/>
        <pt x="220" y="242" on="1"/>
        <pt x="268" y="243" on="1"/>
      </contour>
    </TTGlyph>
    <TTGlyph name="Aacute" xMin="27" yMin="-6" xMax="566" yMax="878">
      <contour>
        <pt x="432" y="181" on="1"/>
        <pt x="360" y="180" on="1"/>
        <pt x="226" y="180" on="1"/>
        <pt x="155" y="181" on="1"/>
        <pt x="95" y="-1" on="1"/>
        <pt x="82" y="-4" on="0"/>
        <pt x="47" y="-4" on="0"/>
        <pt x="29" y="1" on="1"/>
        <pt x="27" y="4" on="1"/>
        <pt x="256" y="683" on="1"/>
        <pt x="272" y="686" on="0"/>
        <pt x="324" y="686" on="0"/>
        <pt x="336" y="683" on="1"/>
        <pt x="566" y="4" on="1"/>
        <pt x="550" y="-6" on="0"/>
        <pt x="507" y="-6" on="0"/>
        <pt x="489" y="9" on="0"/>
        <pt x="482" y="30" on="1"/>
      </contour>
      <contour>
        <pt x="175" y="242" on="1"/>
        <pt x="234" y="243" on="1"/>
        <pt x="352" y="243" on="1"/>
        <pt x="353" y="243" on="0"/>
        <pt x="403" y="242" on="0"/>
        <pt x="412" y="242" on="1"/>
        <pt x="346" y="441" on="1"/>
        <pt x="314" y="536" on="0"/>
        <pt x="295" y="605" on="1"/>
        <pt x="290" y="605" on="1"/>
        <pt x="274" y="544" on="0"/>
        <pt x="257" y="491" on="1"/>
      </contour>
      <contour>
        <pt x="212" y="768" on="1"/>
        <pt x="400" y="878" on="1"/>
        <pt x="428" y="861" on="0"/>
        <pt x="437" y="815" on="1"/>
        <pt x="234" y="729" on="1"/>
        <pt x="216" y="741" on="0"/>
      </contour>
    </TTGlyph>
    <TTGlyph name="Acircumflex" xMin="27" yMin="-6" xMax="566" yMax="876">
      <contour>
        <pt x="432" y="181" on="1"/>
        <pt x="360" y="180" on="1"/>
        <pt x="226" y="180" on="1"/>
        <pt x="155" y="181" on="1"/>
        <pt x="95" y="-1" on="1"/>
        <pt x="82" y="-4" on="0"/>
        <pt x="47" y="-4" on="0"/>
        <pt x="29" y="1" on="1"/>
        <pt x="27" y="4" on="1"/>
        <pt x="256" y="683" on="1"/>
        <pt x="272" y="686" on="0"/>
        <pt x="324" y="686" on="0"/>
        <pt x="336" y="683" on="1"/>
        <pt x="566" y="4" on="1"/>
        <pt x="550" y="-6" on="0"/>
        <pt x="507" y="-6" on="0"/>
        <pt x="489" y="9" on="0"/>
        <pt x="482" y="30" on="1"/>
      </contour>
      <contour>
        <pt x="175" y="242" on="1"/>
        <pt x="234" y="243" on="1"/>
        <pt x="352" y="243" on="1"/>
        <pt x="353" y="243" on="0"/>
        <pt x="403" y="242" on="0"/>
        <pt x="412" y="242" on="1"/>
        <pt x="346" y="441" on="1"/>
        <pt x="314" y="536" on="0"/>
        <pt x="295" y="605" on="1"/>
        <pt x="290" y="605" on="1"/>
        <pt x="274" y="544" on="0"/>
        <pt x="257" y="491" on="1"/>
      </contour>
      <contour>
        <pt x="406" y="738" on="1"/>
        <pt x="297" y="813" on="1"/>
        <pt x="185" y="733" on="1"/>
        <pt x="160" y="742" on="0"/>
        <pt x="153" y="767" on="1"/>
        <pt x="264" y="873" on="1"/>
        <pt x="280" y="876" on="0"/>
        <pt x="313" y="876" on="0"/>
        <pt x="330" y="873" on="1"/>
        <pt x="440" y="771" on="1"/>
        <pt x="433" y="746" on="0"/>
      </contour>
    </TTGlyph>
    <TTGlyph name="Adieresis" xMin="27" yMin="-6" xMax="566" yMax="823">
      <contour>
        <pt x="432" y="181" on="1"/>
        <pt x="360" y="180" on="1"/>
        <pt x="226" y="180" on="1"/>
        <pt x="155" y="181" on="1"/>
        <pt x="95" y="-1" on="1"/>
        <pt x="82" y="-4" on="0"/>
        <pt x="47" y="-4" on="0"/>
        <pt x="29" y="1" on="1"/>
        <pt x="27" y="4" on="1"/>
        <pt x="256" y="683" on="1"/>
        <pt x="272" y="686" on="0"/>
        <pt x="324" y="686" on="0"/>
        <pt x="336" y="683" on="1"/>
        <pt x="566" y="4" on="1"/>
        <pt x="550" y="-6" on="0"/>
        <pt x="507" y="-6" on="0"/>
        <pt x="489" y="9" on="0"/>
        <pt x="482" y="30" on="1"/>
      </contour>
      <contour>
        <pt x="175" y="242" on="1"/>
        <pt x="234" y="243" on="1"/>
        <pt x="352" y="243" on="1"/>
        <pt x="353" y="243" on="0"/>
        <pt x="403" y="242" on="0"/>
        <pt x="412" y="242" on="1"/>
        <pt x="346" y="441" on="1"/>
        <pt x="314" y="536" on="0"/>
        <pt x="295" y="605" on="1"/>
        <pt x="290" y="605" on="1"/>
        <pt x="274" y="544" on="0"/>
        <pt x="257" y="491" on="1"/>
      </contour>
      <contour>
        <pt x="355" y="815" on="1"/>
        <pt x="368" y="823" on="0"/>
        <pt x="419" y="823" on="0"/>
        <pt x="435" y="815" on="1"/>
        <pt x="441" y="795" on="0"/>
        <pt x="441" y="764" on="0"/>
        <pt x="435" y="745" on="1"/>
        <pt x="422" y="737" on="0"/>
        <pt x="366" y="737" on="0"/>
        <pt x="355" y="745" on="1"/>
        <pt x="348" y="763" on="0"/>
        <pt x="348" y="797" on="0"/>
      </contour>
      <contour>
        <pt x="159" y="815" on="1"/>
        <pt x="175" y="823" on="0"/>
        <pt x="226" y="823" on="0"/>
        <pt x="239" y="815" on="1"/>
        <pt x="246" y="797" on="0"/>
        <pt x="246" y="763" on="0"/>
        <pt x="239" y="745" on="1"/>
        <pt x="228" y="737" on="0"/>
        <pt x="172" y="737" on="0"/>
        <pt x="159" y="745" on="1"/>
        <pt x="153" y="764" on="0"/>
        <pt x="153" y="796" on="0"/>
      </contour>
    </TTGlyph>
    <TTGlyph name="Agrave" xMin="27" yMin="-6" xMax="566" yMax="878">
      <contour>
        <pt x="432" y="181" on="1"/>
        <pt x="360" y="180" on="1"/>
        <pt x="226" y="180" on="1"/>
        <pt x="155" y="181" on="1"/>
        <pt x="95" y="-1" on="1"/>
        <pt x="82" y="-4" on="0"/>
        <pt x="47" y="-4" on="0"/>
        <pt x="29" y="1" on="1"/>
        <pt x="27" y="4" on="1"/>
        <pt x="256" y="683" on="1"/>
        <pt x="272" y="686" on="0"/>
        <pt x="324" y="686" on="0"/>
        <pt x="336" y="683" on="1"/>
        <pt x="566" y="4" on="1"/>
        <pt x="550" y="-6" on="0"/>
        <pt x="507" y="-6" on="0"/>
        <pt x="489" y="9" on="0"/>
        <pt x="482" y="30" on="1"/>
      </contour>
      <contour>
        <pt x="175" y="242" on="1"/>
        <pt x="234" y="243" on="1"/>
        <pt x="352" y="243" on="1"/>
        <pt x="353" y="243" on="0"/>
        <pt x="403" y="242" on="0"/>
        <pt x="412" y="242" on="1"/>
        <pt x="346" y="441" on="1"/>
        <pt x="314" y="536" on="0"/>
        <pt x="295" y="605" on="1"/>
        <pt x="290" y="605" on="1"/>
        <pt x="274" y="544" on="0"/>
        <pt x="257" y="491" on="1"/>
      </contour>
      <contour>
        <pt x="209" y="878" on="1"/>
        <pt x="397" y="768" on="1"/>
        <pt x="390" y="739" on="0"/>
        <pt x="375" y="729" on="1"/>
        <pt x="172" y="815" on="1"/>
        <pt x="181" y="861" on="0"/>
      </contour>
    </TTGlyph>
    <TTGlyph name="Aogonek" xMin="27" yMin="-217" xMax="611" yMax="686">
      <contour>
        <pt x="226" y="180" on="1"/>
        <pt x="155" y="181" on="1"/>
        <pt x="95" y="-1" on="1"/>
        <pt x="82" y="-4" on="0"/>
        <pt x="47" y="-4" on="0"/>
        <pt x="29" y="1" on="1"/>
        <pt x="27" y="4" on="1"/>
        <pt x="256" y="683" on="1"/>
        <pt x="272" y="686" on="0"/>
        <pt x="324" y="686" on="0"/>
        <pt x="336" y="683" on="1"/>
        <pt x="565" y="5" on="1"/>
        <pt x="566" y="4" on="1"/>
        <pt x="565" y="3" on="0"/>
        <pt x="564" y="3" on="1"/>
        <pt x="476" y="-57" on="0"/>
        <pt x="476" y="-114" on="1"/>
        <pt x="476" y="-139" on="0"/>
        <pt x="505" y="-166" on="0"/>
        <pt x="561" y="-166" on="0"/>
        <pt x="593" y="-148" on="1"/>
        <pt x="611" y="-162" on="0"/>
        <pt x="611" y="-185" on="1"/>
        <pt x="572" y="-217" on="0"/>
        <pt x="470" y="-217" on="0"/>
        <pt x="414" y="-169" on="0"/>
        <pt x="414" y="-127" on="1"/>
        <pt x="414" y="-54" on="0"/>
        <pt x="493" y="6" on="1"/>
        <pt x="485" y="17" on="0"/>
        <pt x="482" y="30" on="1"/>
        <pt x="432" y="181" on="1"/>
        <pt x="360" y="180" on="1"/>
      </contour>
      <contour>
        <pt x="175" y="242" on="1"/>
        <pt x="234" y="243" on="1"/>
        <pt x="352" y="243" on="1"/>
        <pt x="353" y="243" on="0"/>
        <pt x="403" y="242" on="0"/>
        <pt x="412" y="242" on="1"/>
        <pt x="346" y="441" on="1"/>
        <pt x="314" y="536" on="0"/>
        <pt x="295" y="605" on="1"/>
        <pt x="290" y="605" on="1"/>
        <pt x="274" y="544" on="0"/>
        <pt x="257" y="491" on="1"/>
      </contour>
    </TTGlyph>
    <TTGlyph name="Aring" xMin="27" yMin="-6" xMax="566" yMax="879">
      <contour>
        <pt x="432" y="181" on="1"/>
        <pt x="360" y="180" on="1"/>
        <pt x="226" y="180" on="1"/>
        <pt x="155" y="181" on="1"/>
        <pt x="95" y="-1" on="1"/>
        <pt x="82" y="-4" on="0"/>
        <pt x="47" y="-4" on="0"/>
        <pt x="29" y="1" on="1"/>
        <pt x="27" y="4" on="1"/>
        <pt x="255" y="679" on="1"/>
        <pt x="225" y="691" on="0"/>
        <pt x="189" y="744" on="0"/>
        <pt x="189" y="819" on="0"/>
        <pt x="251" y="879" on="0"/>
        <pt x="342" y="879" on="0"/>
        <pt x="404" y="819" on="0"/>
        <pt x="404" y="743" on="0"/>
        <pt x="367" y="690" on="0"/>
        <pt x="337" y="679" on="1"/>
        <pt x="566" y="4" on="1"/>
        <pt x="550" y="-6" on="0"/>
        <pt x="507" y="-6" on="0"/>
        <pt x="489" y="9" on="0"/>
        <pt x="482" y="30" on="1"/>
      </contour>
      <contour>
        <pt x="175" y="242" on="1"/>
        <pt x="234" y="243" on="1"/>
        <pt x="352" y="243" on="1"/>
        <pt x="353" y="243" on="0"/>
        <pt x="403" y="242" on="0"/>
        <pt x="412" y="242" on="1"/>
        <pt x="346" y="441" on="1"/>
        <pt x="314" y="536" on="0"/>
        <pt x="295" y="605" on="1"/>
        <pt x="290" y="605" on="1"/>
        <pt x="274" y="544" on="0"/>
        <pt x="257" y="491" on="1"/>
      </contour>
      <contour>
        <pt x="246" y="801" on="0"/>
        <pt x="246" y="751" on="0"/>
        <pt x="275" y="719" on="0"/>
        <pt x="319" y="719" on="0"/>
        <pt x="348" y="751" on="0"/>
        <pt x="348" y="801" on="0"/>
        <pt x="319" y="833" on="0"/>
        <pt x="275" y="833" on="0"/>
      </contour>
    </TTGlyph>
    <TTGlyph name="Atilde" xMin="27" yMin="-6" xMax="566" yMax="856">
      <contour>
        <pt x="432" y="181" on="1"/>
        <pt x="360" y="180" on="1"/>
        <pt x="226" y="180" on="1"/>
        <pt x="155" y="181" on="1"/>
        <pt x="95" y="-1" on="1"/>
        <pt x="82" y="-4" on="0"/>
        <pt x="47" y="-4" on="0"/>
        <pt x="29" y="1" on="1"/>
        <pt x="27" y="4" on="1"/>
        <pt x="256" y="683" on="1"/>
        <pt x="272" y="686" on="0"/>
        <pt x="324" y="686" on="0"/>
        <pt x="336" y="683" on="1"/>
        <pt x="566" y="4" on="1"/>
        <pt x="550" y="-6" on="0"/>
        <pt x="507" y="-6" on="0"/>
        <pt x="489" y="9" on="0"/>
        <pt x="482" y="30" on="1"/>
      </contour>
      <contour>
        <pt x="175" y="242" on="1"/>
        <pt x="234" y="243" on="1"/>
        <pt x="352" y="243" on="1"/>
        <pt x="353" y="243" on="0"/>
        <pt x="403" y="242" on="0"/>
        <pt x="412" y="242" on="1"/>
        <pt x="346" y="441" on="1"/>
        <pt x="314" y="536" on="0"/>
        <pt x="295" y="605" on="1"/>
        <pt x="290" y="605" on="1"/>
        <pt x="274" y="544" on="0"/>
        <pt x="257" y="491" on="1"/>
      </contour>
      <contour>
        <pt x="315" y="755" on="1"/>
        <pt x="253" y="784" on="1"/>
        <pt x="233" y="793" on="0"/>
        <pt x="198" y="793" on="0"/>
        <pt x="177" y="768" on="1"/>
        <pt x="164" y="752" on="1"/>
        <pt x="137" y="754" on="0"/>
        <pt x="130" y="774" on="1"/>
        <pt x="138" y="794" on="1"/>
        <pt x="149" y="823" on="0"/>
        <pt x="198" y="856" on="0"/>
        <pt x="251" y="856" on="0"/>
        <pt x="279" y="842" on="1"/>
        <pt x="341" y="813" on="1"/>
        <pt x="359" y="804" on="0"/>
        <pt x="396" y="804" on="0"/>
        <pt x="417" y="829" on="1"/>
        <pt x="430" y="845" on="1"/>
        <pt x="455" y="843" on="0"/>
        <pt x="464" y="823" on="1"/>
        <pt x="456" y="804" on="1"/>
        <pt x="430" y="741" on="0"/>
        <pt x="368" y="741" on="1"/>
        <pt x="343" y="741" on="0"/>
      </contour>
    </TTGlyph>
    <TTGlyph name="B" xMin="100" yMin="-3" xMax="540" yMax="686">
      <contour>
        <pt x="310" y="-3" on="1"/>
        <pt x="106" y="0" on="1"/>
        <pt x="100" y="6" on="1"/>
        <pt x="100" y="677" on="1"/>
        <pt x="106" y="683" on="1"/>
        <pt x="299" y="686" on="1"/>
        <pt x="507" y="686" on="0"/>
        <pt x="507" y="506" on="1"/>
        <pt x="507" y="457" on="0"/>
        <pt x="454" y="379" on="0"/>
        <pt x="409" y="363" on="1"/>
        <pt x="463" y="349" on="0"/>
        <pt x="540" y="253" on="0"/>
        <pt x="540" y="188" on="1"/>
        <pt x="540" y="114" on="0"/>
        <pt x="491" y="58" on="1"/>
        <pt x="437" y="-3" on="0"/>
      </contour>
      <contour>
        <pt x="171" y="56" on="1"/>
        <pt x="317" y="57" on="1"/>
        <pt x="435" y="57" on="0"/>
        <pt x="460" y="148" on="1"/>
        <pt x="466" y="169" on="0"/>
        <pt x="466" y="193" on="1"/>
        <pt x="466" y="244" on="0"/>
        <pt x="392" y="328" on="0"/>
        <pt x="307" y="328" on="1"/>
        <pt x="171" y="328" on="1"/>
      </contour>
      <contour>
        <pt x="171" y="627" on="1"/>
        <pt x="171" y="390" on="1"/>
        <pt x="298" y="390" on="1"/>
        <pt x="374" y="390" on="0"/>
        <pt x="433" y="459" on="0"/>
        <pt x="433" y="508" on="1"/>
        <pt x="433" y="626" on="0"/>
        <pt x="301" y="626" on="1"/>
        <pt x="208" y="626" on="0"/>
      </contour>
    </TTGlyph>
    <TTGlyph name="C" xMin="58" yMin="-12" xMax="550" yMax="695">
      <contour>
        <pt x="479" y="471" on="1"/>
        <pt x="479" y="474" on="0"/>
        <pt x="479" y="477" on="1"/>
        <pt x="479" y="536" on="0"/>
        <pt x="402" y="635" on="0"/>
        <pt x="230" y="635" on="0"/>
        <pt x="133" y="483" on="0"/>
        <pt x="133" y="203" on="0"/>
        <pt x="232" y="50" on="0"/>
        <pt x="411" y="50" on="0"/>
        <pt x="502" y="130" on="1"/>
        <pt x="531" y="112" on="0"/>
        <pt x="541" y="84" on="1"/>
        <pt x="499" y="41" on="0"/>
        <pt x="377" y="-12" on="0"/>
        <pt x="222" y="-12" on="0"/>
        <pt x="164" y="39" on="1"/>
        <pt x="58" y="132" on="0"/>
        <pt x="58" y="338" on="1"/>
        <pt x="58" y="514" on="0"/>
        <pt x="207" y="695" on="0"/>
        <pt x="423" y="695" on="0"/>
        <pt x="550" y="580" on="0"/>
        <pt x="550" y="508" on="1"/>
        <pt x="550" y="466" on="0"/>
        <pt x="511" y="466" on="1"/>
        <pt x="497" y="466" on="0"/>
      </contour>
    </TTGlyph>
    <TTGlyph name="Cacute" xMin="58" yMin="-12" xMax="550" yMax="879">
      <contour>
        <pt x="479" y="471" on="1"/>
        <pt x="479" y="474" on="0"/>
        <pt x="479" y="477" on="1"/>
        <pt x="479" y="536" on="0"/>
        <pt x="402" y="635" on="0"/>
        <pt x="230" y="635" on="0"/>
        <pt x="133" y="483" on="0"/>
        <pt x="133" y="203" on="0"/>
        <pt x="232" y="50" on="0"/>
        <pt x="411" y="50" on="0"/>
        <pt x="502" y="130" on="1"/>
        <pt x="531" y="112" on="0"/>
        <pt x="541" y="84" on="1"/>
        <pt x="499" y="41" on="0"/>
        <pt x="377" y="-12" on="0"/>
        <pt x="222" y="-12" on="0"/>
        <pt x="164" y="39" on="1"/>
        <pt x="58" y="132" on="0"/>
        <pt x="58" y="338" on="1"/>
        <pt x="58" y="514" on="0"/>
        <pt x="207" y="695" on="0"/>
        <pt x="423" y="695" on="0"/>
        <pt x="550" y="580" on="0"/>
        <pt x="550" y="508" on="1"/>
        <pt x="550" y="466" on="0"/>
        <pt x="511" y="466" on="1"/>
        <pt x="497" y="466" on="0"/>
      </contour>
      <contour>
        <pt x="233" y="769" on="1"/>
        <pt x="421" y="879" on="1"/>
        <pt x="449" y="862" on="0"/>
        <pt x="458" y="816" on="1"/>
        <pt x="255" y="730" on="1"/>
        <pt x="237" y="742" on="0"/>
      </contour>
    </TTGlyph>
    <TTGlyph name="Ccaron" xMin="58" yMin="-12" xMax="550" yMax="880">
      <contour>
        <pt x="479" y="471" on="1"/>
        <pt x="479" y="474" on="0"/>
        <pt x="479" y="477" on="1"/>
        <pt x="479" y="536" on="0"/>
        <pt x="402" y="635" on="0"/>
        <pt x="230" y="635" on="0"/>
        <pt x="133" y="483" on="0"/>
        <pt x="133" y="203" on="0"/>
        <pt x="232" y="50" on="0"/>
        <pt x="411" y="50" on="0"/>
        <pt x="502" y="130" on="1"/>
        <pt x="531" y="112" on="0"/>
        <pt x="541" y="84" on="1"/>
        <pt x="499" y="41" on="0"/>
        <pt x="377" y="-12" on="0"/>
        <pt x="222" y="-12" on="0"/>
        <pt x="164" y="39" on="1"/>
        <pt x="58" y="132" on="0"/>
        <pt x="58" y="338" on="1"/>
        <pt x="58" y="514" on="0"/>
        <pt x="207" y="695" on="0"/>
        <pt x="423" y="695" on="0"/>
        <pt x="550" y="580" on="0"/>
        <pt x="550" y="508" on="1"/>
        <pt x="550" y="466" on="0"/>
        <pt x="511" y="466" on="1"/>
        <pt x="497" y="466" on="0"/>
      </contour>
      <contour>
        <pt x="209" y="875" on="1"/>
        <pt x="318" y="800" on="1"/>
        <pt x="430" y="880" on="1"/>
        <pt x="455" y="871" on="0"/>
        <pt x="462" y="847" on="1"/>
        <pt x="352" y="740" on="1"/>
        <pt x="332" y="738" on="0"/>
        <pt x="298" y="738" on="0"/>
        <pt x="286" y="740" on="1"/>
        <pt x="175" y="843" on="1"/>
        <pt x="184" y="867" on="0"/>
      </contour>
    </TTGlyph>
    <TTGlyph name="Ccedilla" xMin="58" yMin="-218" xMax="550" yMax="695">
      <contour>
        <pt x="267" y="-72" on="1"/>
        <pt x="277" y="-35" on="0"/>
        <pt x="288" y="-11" on="1"/>
        <pt x="209" y="-5" on="0"/>
        <pt x="156" y="46" on="1"/>
        <pt x="58" y="140" on="0"/>
        <pt x="58" y="514" on="0"/>
        <pt x="207" y="695" on="0"/>
        <pt x="423" y="695" on="0"/>
        <pt x="550" y="580" on="0"/>
        <pt x="550" y="508" on="1"/>
        <pt x="550" y="466" on="0"/>
        <pt x="511" y="466" on="1"/>
        <pt x="497" y="466" on="0"/>
        <pt x="479" y="471" on="1"/>
        <pt x="479" y="474" on="0"/>
        <pt x="479" y="477" on="1"/>
        <pt x="479" y="536" on="0"/>
        <pt x="402" y="635" on="0"/>
        <pt x="230" y="635" on="0"/>
        <pt x="133" y="483" on="0"/>
        <pt x="133" y="203" on="0"/>
        <pt x="232" y="50" on="0"/>
        <pt x="411" y="50" on="0"/>
        <pt x="502" y="130" on="1"/>
        <pt x="531" y="112" on="0"/>
        <pt x="541" y="84" on="1"/>
        <pt x="460" y="1" on="0"/>
        <pt x="343" y="-10" on="1"/>
        <pt x="334" y="-28" on="0"/>
        <pt x="330" y="-40" on="1"/>
        <pt x="368" y="-43" on="0"/>
        <pt x="418" y="-89" on="0"/>
        <pt x="418" y="-166" on="0"/>
        <pt x="356" y="-218" on="0"/>
        <pt x="265" y="-218" on="0"/>
        <pt x="236" y="-200" on="1"/>
        <pt x="237" y="-179" on="0"/>
        <pt x="254" y="-157" on="1"/>
        <pt x="277" y="-171" on="0"/>
        <pt x="331" y="-171" on="0"/>
        <pt x="356" y="-145" on="0"/>
        <pt x="356" y="-107" on="0"/>
        <pt x="331" y="-82" on="0"/>
        <pt x="294" y="-82" on="0"/>
        <pt x="282" y="-87" on="1"/>
        <pt x="270" y="-82" on="0"/>
      </contour>
    </TTGlyph>
    <TTGlyph name="D" xMin="100" yMin="-4" xMax="575" yMax="686">
      <contour>
        <pt x="533" y="584" on="0"/>
        <pt x="575" y="441" on="0"/>
        <pt x="575" y="240" on="0"/>
        <pt x="533" y="98" on="0"/>
        <pt x="473" y="47" on="1"/>
        <pt x="444" y="22" on="0"/>
        <pt x="348" y="-4" on="0"/>
        <pt x="280" y="-4" on="0"/>
        <pt x="106" y="0" on="1"/>
        <pt x="100" y="6" on="1"/>
        <pt x="100" y="677" on="1"/>
        <pt x="106" y="683" on="1"/>
        <pt x="193" y="686" on="0"/>
        <pt x="306" y="686" on="1"/>
        <pt x="348" y="686" on="0"/>
        <pt x="444" y="660" on="0"/>
        <pt x="473" y="635" on="1"/>
      </contour>
      <contour>
        <pt x="171" y="57" on="1"/>
        <pt x="305" y="56" on="1"/>
        <pt x="354" y="56" on="0"/>
        <pt x="427" y="91" on="0"/>
        <pt x="468" y="145" on="0"/>
        <pt x="493" y="225" on="0"/>
        <pt x="501" y="297" on="0"/>
        <pt x="501" y="385" on="0"/>
        <pt x="493" y="458" on="0"/>
        <pt x="468" y="537" on="0"/>
        <pt x="427" y="591" on="0"/>
        <pt x="354" y="626" on="0"/>
        <pt x="305" y="626" on="1"/>
        <pt x="171" y="627" on="1"/>
      </contour>
    </TTGlyph>
    <TTGlyph name="Dcaron" xMin="100" yMin="-4" xMax="575" yMax="879">
      <contour>
        <pt x="533" y="584" on="0"/>
        <pt x="575" y="441" on="0"/>
        <pt x="575" y="240" on="0"/>
        <pt x="533" y="98" on="0"/>
        <pt x="473" y="47" on="1"/>
        <pt x="444" y="22" on="0"/>
        <pt x="348" y="-4" on="0"/>
        <pt x="280" y="-4" on="0"/>
        <pt x="106" y="0" on="1"/>
        <pt x="100" y="6" on="1"/>
        <pt x="100" y="677" on="1"/>
        <pt x="106" y="683" on="1"/>
        <pt x="193" y="686" on="0"/>
        <pt x="306" y="686" on="1"/>
        <pt x="348" y="686" on="0"/>
        <pt x="444" y="660" on="0"/>
        <pt x="473" y="635" on="1"/>
      </contour>
      <contour>
        <pt x="171" y="57" on="1"/>
        <pt x="305" y="56" on="1"/>
        <pt x="354" y="56" on="0"/>
        <pt x="427" y="91" on="0"/>
        <pt x="468" y="145" on="0"/>
        <pt x="493" y="225" on="0"/>
        <pt x="501" y="297" on="0"/>
        <pt x="501" y="385" on="0"/>
        <pt x="493" y="458" on="0"/>
        <pt x="468" y="537" on="0"/>
        <pt x="427" y="591" on="0"/>
        <pt x="354" y="626" on="0"/>
        <pt x="305" y="626" on="1"/>
        <pt x="171" y="627" on="1"/>
      </contour>
      <contour>
        <pt x="192" y="874" on="1"/>
        <pt x="301" y="799" on="1"/>
        <pt x="413" y="879" on="1"/>
        <pt x="438" y="870" on="0"/>
        <pt x="445" y="846" on="1"/>
        <pt x="335" y="739" on="1"/>
        <pt x="314" y="736" on="0"/>
        <pt x="282" y="736" on="0"/>
        <pt x="269" y="739" on="1"/>
        <pt x="158" y="842" on="1"/>
        <pt x="167" y="866" on="0"/>
      </contour>
    </TTGlyph>
    <TTGlyph name="E" xMin="100" yMin="0" xMax="505" yMax="683">
      <contour>
        <pt x="169" y="95" on="1"/>
        <pt x="168" y="60" on="1"/>
        <pt x="202" y="62" on="0"/>
        <pt x="229" y="62" on="1"/>
        <pt x="505" y="62" on="1"/>
        <pt x="505" y="42" on="0"/>
        <pt x="503" y="32" on="1"/>
        <pt x="499" y="0" on="0"/>
        <pt x="458" y="0" on="1"/>
        <pt x="141" y="0" on="1"/>
        <pt x="122" y="0" on="0"/>
        <pt x="100" y="25" on="0"/>
        <pt x="100" y="47" on="1"/>
        <pt x="100" y="677" on="1"/>
        <pt x="106" y="683" on="1"/>
        <pt x="490" y="683" on="1"/>
        <pt x="492" y="672" on="0"/>
        <pt x="492" y="636" on="0"/>
        <pt x="487" y="622" on="1"/>
        <pt x="328" y="622" on="0"/>
        <pt x="168" y="622" on="1"/>
        <pt x="168" y="622" on="0"/>
        <pt x="169" y="561" on="1"/>
        <pt x="169" y="375" on="1"/>
        <pt x="228" y="376" on="1"/>
        <pt x="439" y="376" on="1"/>
        <pt x="442" y="361" on="0"/>
        <pt x="442" y="331" on="0"/>
        <pt x="439" y="316" on="1"/>
        <pt x="228" y="316" on="1"/>
        <pt x="190" y="316" on="0"/>
        <pt x="169" y="317" on="1"/>
      </contour>
    </TTGlyph>
    <TTGlyph name="Eacute" xMin="100" yMin="0" xMax="505" yMax="878">
      <contour>
        <pt x="169" y="95" on="1"/>
        <pt x="168" y="60" on="1"/>
        <pt x="202" y="62" on="0"/>
        <pt x="229" y="62" on="1"/>
        <pt x="505" y="62" on="1"/>
        <pt x="505" y="42" on="0"/>
        <pt x="503" y="32" on="1"/>
        <pt x="499" y="0" on="0"/>
        <pt x="458" y="0" on="1"/>
        <pt x="141" y="0" on="1"/>
        <pt x="122" y="0" on="0"/>
        <pt x="100" y="25" on="0"/>
        <pt x="100" y="47" on="1"/>
        <pt x="100" y="677" on="1"/>
        <pt x="106" y="683" on="1"/>
        <pt x="490" y="683" on="1"/>
        <pt x="492" y="672" on="0"/>
        <pt x="492" y="636" on="0"/>
        <pt x="487" y="622" on="1"/>
        <pt x="328" y="622" on="0"/>
        <pt x="168" y="622" on="1"/>
        <pt x="168" y="622" on="0"/>
        <pt x="169" y="561" on="1"/>
        <pt x="169" y="375" on="1"/>
        <pt x="228" y="376" on="1"/>
        <pt x="439" y="376" on="1"/>
        <pt x="442" y="361" on="0"/>
        <pt x="442" y="331" on="0"/>
        <pt x="439" y="316" on="1"/>
        <pt x="228" y="316" on="1"/>
        <pt x="190" y="316" on="0"/>
        <pt x="169" y="317" on="1"/>
      </contour>
      <contour>
        <pt x="214" y="768" on="1"/>
        <pt x="402" y="878" on="1"/>
        <pt x="430" y="861" on="0"/>
        <pt x="439" y="815" on="1"/>
        <pt x="236" y="729" on="1"/>
        <pt x="218" y="741" on="0"/>
      </contour>
    </TTGlyph>
    <TTGlyph name="Ecaron" xMin="100" yMin="0" xMax="505" yMax="879">
      <contour>
        <pt x="169" y="95" on="1"/>
        <pt x="168" y="60" on="1"/>
        <pt x="202" y="62" on="0"/>
        <pt x="229" y="62" on="1"/>
        <pt x="505" y="62" on="1"/>
        <pt x="505" y="42" on="0"/>
        <pt x="503" y="32" on="1"/>
        <pt x="499" y="0" on="0"/>
        <pt x="458" y="0" on="1"/>
        <pt x="141" y="0" on="1"/>
        <pt x="122" y="0" on="0"/>
        <pt x="100" y="25" on="0"/>
        <pt x="100" y="47" on="1"/>
        <pt x="100" y="677" on="1"/>
        <pt x="106" y="683" on="1"/>
        <pt x="490" y="683" on="1"/>
        <pt x="492" y="672" on="0"/>
        <pt x="492" y="636" on="0"/>
        <pt x="487" y="622" on="1"/>
        <pt x="328" y="622" on="0"/>
        <pt x="168" y="622" on="1"/>
        <pt x="168" y="622" on="0"/>
        <pt x="169" y="561" on="1"/>
        <pt x="169" y="375" on="1"/>
        <pt x="228" y="376" on="1"/>
        <pt x="439" y="376" on="1"/>
        <pt x="442" y="361" on="0"/>
        <pt x="442" y="331" on="0"/>
        <pt x="439" y="316" on="1"/>
        <pt x="228" y="316" on="1"/>
        <pt x="190" y="316" on="0"/>
        <pt x="169" y="317" on="1"/>
      </contour>
      <contour>
        <pt x="190" y="874" on="1"/>
        <pt x="299" y="799" on="1"/>
        <pt x="411" y="879" on="1"/>
        <pt x="436" y="870" on="0"/>
        <pt x="443" y="846" on="1"/>
        <pt x="333" y="739" on="1"/>
        <pt x="313" y="736" on="0"/>
        <pt x="280" y="736" on="0"/>
        <pt x="267" y="739" on="1"/>
        <pt x="156" y="842" on="1"/>
        <pt x="165" y="866" on="0"/>
      </contour>
    </TTGlyph>
    <TTGlyph name="Ecircumflex" xMin="100" yMin="0" xMax="505" yMax="876">
      <contour>
        <pt x="169" y="95" on="1"/>
        <pt x="168" y="60" on="1"/>
        <pt x="202" y="62" on="0"/>
        <pt x="229" y="62" on="1"/>
        <pt x="505" y="62" on="1"/>
        <pt x="505" y="42" on="0"/>
        <pt x="503" y="32" on="1"/>
        <pt x="499" y="0" on="0"/>
        <pt x="458" y="0" on="1"/>
        <pt x="141" y="0" on="1"/>
        <pt x="122" y="0" on="0"/>
        <pt x="100" y="25" on="0"/>
        <pt x="100" y="47" on="1"/>
        <pt x="100" y="677" on="1"/>
        <pt x="106" y="683" on="1"/>
        <pt x="490" y="683" on="1"/>
        <pt x="492" y="672" on="0"/>
        <pt x="492" y="636" on="0"/>
        <pt x="487" y="622" on="1"/>
        <pt x="328" y="622" on="0"/>
        <pt x="168" y="622" on="1"/>
        <pt x="168" y="622" on="0"/>
        <pt x="169" y="561" on="1"/>
        <pt x="169" y="375" on="1"/>
        <pt x="228" y="376" on="1"/>
        <pt x="439" y="376" on="1"/>
        <pt x="442" y="361" on="0"/>
        <pt x="442" y="331" on="0"/>
        <pt x="439" y="316" on="1"/>
        <pt x="228" y="316" on="1"/>
        <pt x="190" y="316" on="0"/>
        <pt x="169" y="317" on="1"/>
      </contour>
      <contour>
        <pt x="408" y="738" on="1"/>
        <pt x="299" y="813" on="1"/>
        <pt x="187" y="733" on="1"/>
        <pt x="162" y="742" on="0"/>
        <pt x="155" y="767" on="1"/>
        <pt x="266" y="873" on="1"/>
        <pt x="282" y="876" on="0"/>
        <pt x="315" y="876" on="0"/>
        <pt x="332" y="873" on="1"/>
        <pt x="442" y="771" on="1"/>
        <pt x="435" y="746" on="0"/>
      </contour>
    </TTGlyph>
    <TTGlyph name="Edieresis" xMin="100" yMin="0" xMax="505" yMax="823">
      <contour>
        <pt x="169" y="95" on="1"/>
        <pt x="168" y="60" on="1"/>
        <pt x="202" y="62" on="0"/>
        <pt x="229" y="62" on="1"/>
        <pt x="505" y="62" on="1"/>
        <pt x="505" y="42" on="0"/>
        <pt x="503" y="32" on="1"/>
        <pt x="499" y="0" on="0"/>
        <pt x="458" y="0" on="1"/>
        <pt x="141" y="0" on="1"/>
        <pt x="122" y="0" on="0"/>
        <pt x="100" y="25" on="0"/>
        <pt x="100" y="47" on="1"/>
        <pt x="100" y="677" on="1"/>
        <pt x="106" y="683" on="1"/>
        <pt x="490" y="683" on="1"/>
        <pt x="492" y="672" on="0"/>
        <pt x="492" y="636" on="0"/>
        <pt x="487" y="622" on="1"/>
        <pt x="328" y="622" on="0"/>
        <pt x="168" y="622" on="1"/>
        <pt x="168" y="622" on="0"/>
        <pt x="169" y="561" on="1"/>
        <pt x="169" y="375" on="1"/>
        <pt x="228" y="376" on="1"/>
        <pt x="439" y="376" on="1"/>
        <pt x="442" y="361" on="0"/>
        <pt x="442" y="331" on="0"/>
        <pt x="439" y="316" on="1"/>
        <pt x="228" y="316" on="1"/>
        <pt x="190" y="316" on="0"/>
        <pt x="169" y="317" on="1"/>
      </contour>
      <contour>
        <pt x="357" y="815" on="1"/>
        <pt x="370" y="823" on="0"/>
        <pt x="421" y="823" on="0"/>
        <pt x="437" y="815" on="1"/>
        <pt x="443" y="795" on="0"/>
        <pt x="443" y="764" on="0"/>
        <pt x="437" y="745" on="1"/>
        <pt x="424" y="737" on="0"/>
        <pt x="368" y="737" on="0"/>
        <pt x="357" y="745" on="1"/>
        <pt x="350" y="763" on="0"/>
        <pt x="350" y="797" on="0"/>
      </contour>
      <contour>
        <pt x="161" y="815" on="1"/>
        <pt x="177" y="823" on="0"/>
        <pt x="228" y="823" on="0"/>
        <pt x="241" y="815" on="1"/>
        <pt x="248" y="797" on="0"/>
        <pt x="248" y="763" on="0"/>
        <pt x="241" y="745" on="1"/>
        <pt x="230" y="737" on="0"/>
        <pt x="174" y="737" on="0"/>
        <pt x="161" y="745" on="1"/>
        <pt x="155" y="764" on="0"/>
        <pt x="155" y="796" on="0"/>
      </contour>
    </TTGlyph>
    <TTGlyph name="Egrave" xMin="100" yMin="0" xMax="505" yMax="878">
      <contour>
        <pt x="169" y="95" on="1"/>
        <pt x="168" y="60" on="1"/>
        <pt x="202" y="62" on="0"/>
        <pt x="229" y="62" on="1"/>
        <pt x="505" y="62" on="1"/>
        <pt x="505" y="42" on="0"/>
        <pt x="503" y="32" on="1"/>
        <pt x="499" y="0" on="0"/>
        <pt x="458" y="0" on="1"/>
        <pt x="141" y="0" on="1"/>
        <pt x="122" y="0" on="0"/>
        <pt x="100" y="25" on="0"/>
        <pt x="100" y="47" on="1"/>
        <pt x="100" y="677" on="1"/>
        <pt x="106" y="683" on="1"/>
        <pt x="490" y="683" on="1"/>
        <pt x="492" y="672" on="0"/>
        <pt x="492" y="636" on="0"/>
        <pt x="487" y="622" on="1"/>
        <pt x="328" y="622" on="0"/>
        <pt x="168" y="622" on="1"/>
        <pt x="168" y="622" on="0"/>
        <pt x="169" y="561" on="1"/>
        <pt x="169" y="375" on="1"/>
        <pt x="228" y="376" on="1"/>
        <pt x="439" y="376" on="1"/>
        <pt x="442" y="361" on="0"/>
        <pt x="442" y="331" on="0"/>
        <pt x="439" y="316" on="1"/>
        <pt x="228" y="316" on="1"/>
        <pt x="190" y="316" on="0"/>
        <pt x="169" y="317" on="1"/>
      </contour>
      <contour>
        <pt x="211" y="878" on="1"/>
        <pt x="399" y="768" on="1"/>
        <pt x="392" y="739" on="0"/>
        <pt x="377" y="729" on="1"/>
        <pt x="174" y="815" on="1"/>
        <pt x="183" y="861" on="0"/>
      </contour>
    </TTGlyph>
    <TTGlyph name="Eogonek" xMin="100" yMin="-217" xMax="512" yMax="683">
      <contour>
        <pt x="169" y="95" on="1"/>
        <pt x="168" y="60" on="1"/>
        <pt x="202" y="62" on="0"/>
        <pt x="229" y="62" on="1"/>
        <pt x="505" y="62" on="1"/>
        <pt x="505" y="42" on="0"/>
        <pt x="503" y="32" on="1"/>
        <pt x="500" y="11" on="0"/>
        <pt x="480" y="3" on="1"/>
        <pt x="478" y="2" on="1"/>
        <pt x="433" y="-17" on="0"/>
        <pt x="377" y="-82" on="0"/>
        <pt x="377" y="-139" on="0"/>
        <pt x="406" y="-166" on="0"/>
        <pt x="460" y="-166" on="0"/>
        <pt x="494" y="-148" on="1"/>
        <pt x="512" y="-162" on="0"/>
        <pt x="512" y="-185" on="1"/>
        <pt x="473" y="-217" on="0"/>
        <pt x="370" y="-217" on="0"/>
        <pt x="314" y="-169" on="0"/>
        <pt x="314" y="-127" on="1"/>
        <pt x="314" y="-53" on="0"/>
        <pt x="392" y="0" on="1"/>
        <pt x="141" y="0" on="1"/>
        <pt x="122" y="0" on="0"/>
        <pt x="100" y="25" on="0"/>
        <pt x="100" y="47" on="1"/>
        <pt x="100" y="677" on="1"/>
        <pt x="106" y="683" on="1"/>
        <pt x="490" y="683" on="1"/>
        <pt x="492" y="672" on="0"/>
        <pt x="492" y="636" on="0"/>
        <pt x="487" y="622" on="1"/>
        <pt x="328" y="622" on="0"/>
        <pt x="168" y="622" on="1"/>
        <pt x="169" y="561" on="1"/>
        <pt x="169" y="375" on="1"/>
        <pt x="228" y="376" on="1"/>
        <pt x="439" y="376" on="1"/>
        <pt x="442" y="361" on="0"/>
        <pt x="442" y="331" on="0"/>
        <pt x="439" y="316" on="1"/>
        <pt x="228" y="316" on="1"/>
        <pt x="190" y="316" on="0"/>
        <pt x="169" y="317" on="1"/>
      </contour>
    </TTGlyph>
    <TTGlyph name="Eth" xMin="30" yMin="-4" xMax="591" yMax="686">
      <contour>
        <pt x="549" y="584" on="0"/>
        <pt x="591" y="441" on="0"/>
        <pt x="591" y="241" on="0"/>
        <pt x="549" y="98" on="0"/>
        <pt x="489" y="47" on="1"/>
        <pt x="460" y="22" on="0"/>
        <pt x="364" y="-4" on="0"/>
        <pt x="296" y="-4" on="0"/>
        <pt x="122" y="0" on="1"/>
        <pt x="116" y="6" on="1"/>
        <pt x="116" y="316" on="1"/>
        <pt x="33" y="316" on="1"/>
        <pt x="30" y="328" on="0"/>
        <pt x="30" y="362" on="0"/>
        <pt x="33" y="376" on="1"/>
        <pt x="116" y="376" on="1"/>
        <pt x="116" y="677" on="1"/>
        <pt x="122" y="683" on="1"/>
        <pt x="209" y="686" on="0"/>
        <pt x="322" y="686" on="1"/>
        <pt x="364" y="686" on="0"/>
        <pt x="460" y="660" on="0"/>
        <pt x="489" y="635" on="1"/>
      </contour>
      <contour>
        <pt x="321" y="626" on="1"/>
        <pt x="187" y="627" on="1"/>
        <pt x="187" y="376" on="1"/>
        <pt x="360" y="376" on="1"/>
        <pt x="363" y="362" on="0"/>
        <pt x="363" y="328" on="0"/>
        <pt x="360" y="316" on="1"/>
        <pt x="187" y="316" on="1"/>
        <pt x="187" y="57" on="1"/>
        <pt x="321" y="56" on="1"/>
        <pt x="517" y="56" on="0"/>
        <pt x="517" y="342" on="1"/>
        <pt x="517" y="495" on="0"/>
        <pt x="464" y="564" on="1"/>
        <pt x="443" y="591" on="0"/>
        <pt x="370" y="626" on="0"/>
      </contour>
    </TTGlyph>
    <TTGlyph name="Euro" xMin="31" yMin="-12" xMax="537" yMax="660">
      <contour>
        <pt x="499" y="537" on="1"/>
        <pt x="418" y="597" on="0"/>
        <pt x="343" y="597" on="1"/>
        <pt x="207" y="597" on="0"/>
        <pt x="183" y="419" on="1"/>
        <pt x="416" y="419" on="1"/>
        <pt x="419" y="405" on="0"/>
        <pt x="419" y="380" on="0"/>
        <pt x="416" y="366" on="1"/>
        <pt x="178" y="366" on="1"/>
        <pt x="177" y="352" on="0"/>
        <pt x="177" y="292" on="0"/>
        <pt x="178" y="278" on="1"/>
        <pt x="416" y="278" on="1"/>
        <pt x="419" y="263" on="0"/>
        <pt x="419" y="237" on="0"/>
        <pt x="416" y="224" on="1"/>
        <pt x="184" y="224" on="1"/>
        <pt x="210" y="51" on="0"/>
        <pt x="343" y="51" on="1"/>
        <pt x="418" y="51" on="0"/>
        <pt x="499" y="111" on="1"/>
        <pt x="526" y="94" on="0"/>
        <pt x="537" y="64" on="1"/>
        <pt x="445" y="-12" on="0"/>
        <pt x="335" y="-12" on="1"/>
        <pt x="143" y="-12" on="0"/>
        <pt x="110" y="224" on="1"/>
        <pt x="34" y="224" on="1"/>
        <pt x="31" y="237" on="0"/>
        <pt x="31" y="263" on="0"/>
        <pt x="34" y="278" on="1"/>
        <pt x="105" y="278" on="1"/>
        <pt x="104" y="293" on="0"/>
        <pt x="104" y="352" on="0"/>
        <pt x="105" y="366" on="1"/>
        <pt x="34" y="366" on="1"/>
        <pt x="31" y="380" on="0"/>
        <pt x="31" y="406" on="0"/>
        <pt x="34" y="419" on="1"/>
        <pt x="110" y="419" on="1"/>
        <pt x="142" y="660" on="0"/>
        <pt x="335" y="660" on="1"/>
        <pt x="443" y="660" on="0"/>
        <pt x="537" y="584" on="1"/>
        <pt x="526" y="554" on="0"/>
      </contour>
    </TTGlyph>
    <TTGlyph name="Euro.smcp" xMin="29" yMin="-12" xMax="474" yMax="554">
      <contour>
        <pt x="439" y="451" on="1"/>
        <pt x="372" y="494" on="0"/>
        <pt x="306" y="494" on="1"/>
        <pt x="195" y="494" on="0"/>
        <pt x="171" y="359" on="1"/>
        <pt x="367" y="359" on="1"/>
        <pt x="370" y="346" on="0"/>
        <pt x="370" y="320" on="0"/>
        <pt x="367" y="306" on="1"/>
        <pt x="165" y="306" on="1"/>
        <pt x="164" y="295" on="0"/>
        <pt x="164" y="248" on="0"/>
        <pt x="165" y="238" on="1"/>
        <pt x="367" y="238" on="1"/>
        <pt x="370" y="225" on="0"/>
        <pt x="370" y="198" on="0"/>
        <pt x="367" y="185" on="1"/>
        <pt x="170" y="185" on="1"/>
        <pt x="194" y="48" on="0"/>
        <pt x="306" y="48" on="1"/>
        <pt x="372" y="48" on="0"/>
        <pt x="439" y="91" on="1"/>
        <pt x="467" y="74" on="0"/>
        <pt x="474" y="47" on="1"/>
        <pt x="397" y="-12" on="0"/>
        <pt x="298" y="-12" on="1"/>
        <pt x="129" y="-12" on="0"/>
        <pt x="99" y="185" on="1"/>
        <pt x="32" y="185" on="1"/>
        <pt x="29" y="199" on="0"/>
        <pt x="29" y="224" on="0"/>
        <pt x="32" y="238" on="1"/>
        <pt x="94" y="238" on="1"/>
        <pt x="93" y="249" on="0"/>
        <pt x="93" y="294" on="0"/>
        <pt x="94" y="306" on="1"/>
        <pt x="32" y="306" on="1"/>
        <pt x="29" y="320" on="0"/>
        <pt x="29" y="346" on="0"/>
        <pt x="32" y="359" on="1"/>
        <pt x="99" y="359" on="1"/>
        <pt x="129" y="554" on="0"/>
        <pt x="298" y="554" on="1"/>
        <pt x="396" y="554" on="0"/>
        <pt x="474" y="496" on="1"/>
        <pt x="467" y="468" on="0"/>
      </contour>
    </TTGlyph>
    <TTGlyph name="F" xMin="100" yMin="-3" xMax="487" yMax="683">
      <contour>
        <pt x="171" y="376" on="1"/>
        <pt x="229" y="377" on="1"/>
        <pt x="434" y="377" on="1"/>
        <pt x="437" y="361" on="0"/>
        <pt x="437" y="332" on="0"/>
        <pt x="434" y="316" on="1"/>
        <pt x="229" y="316" on="1"/>
        <pt x="192" y="316" on="0"/>
        <pt x="171" y="317" on="1"/>
        <pt x="171" y="0" on="1"/>
        <pt x="156" y="-3" on="0"/>
        <pt x="114" y="-3" on="0"/>
        <pt x="100" y="0" on="1"/>
        <pt x="100" y="677" on="1"/>
        <pt x="106" y="683" on="1"/>
        <pt x="482" y="683" on="1"/>
        <pt x="487" y="668" on="0"/>
        <pt x="487" y="654" on="1"/>
        <pt x="487" y="621" on="0"/>
        <pt x="443" y="621" on="1"/>
        <pt x="282" y="621" on="1"/>
        <pt x="199" y="621" on="0"/>
        <pt x="170" y="623" on="1"/>
        <pt x="171" y="479" on="1"/>
      </contour>
    </TTGlyph>
    <TTGlyph name="G" xMin="58" yMin="-12" xMax="564" yMax="695">
      <contour>
        <pt x="356" y="340" on="1"/>
        <pt x="508" y="340" on="1"/>
        <pt x="539" y="340" on="0"/>
        <pt x="564" y="318" on="0"/>
        <pt x="564" y="291" on="1"/>
        <pt x="564" y="32" on="1"/>
        <pt x="457" y="-12" on="0"/>
        <pt x="329" y="-12" on="1"/>
        <pt x="254" y="-12" on="0"/>
        <pt x="145" y="48" on="0"/>
        <pt x="115" y="100" on="1"/>
        <pt x="58" y="199" on="0"/>
        <pt x="58" y="337" on="1"/>
        <pt x="58" y="431" on="0"/>
        <pt x="107" y="574" on="0"/>
        <pt x="148" y="614" on="1"/>
        <pt x="229" y="695" on="0"/>
        <pt x="341" y="695" on="1"/>
        <pt x="402" y="695" on="0"/>
        <pt x="523" y="655" on="0"/>
        <pt x="563" y="620" on="1"/>
        <pt x="555" y="585" on="0"/>
        <pt x="525" y="565" on="1"/>
        <pt x="442" y="631" on="0"/>
        <pt x="335" y="631" on="1"/>
        <pt x="247" y="631" on="0"/>
        <pt x="133" y="491" on="0"/>
        <pt x="133" y="336" on="1"/>
        <pt x="133" y="51" on="0"/>
        <pt x="342" y="51" on="1"/>
        <pt x="429" y="51" on="0"/>
        <pt x="495" y="75" on="1"/>
        <pt x="495" y="216" on="1"/>
        <pt x="495" y="260" on="0"/>
        <pt x="496" y="276" on="1"/>
        <pt x="383" y="276" on="1"/>
        <pt x="350" y="276" on="0"/>
        <pt x="350" y="310" on="1"/>
        <pt x="350" y="322" on="0"/>
      </contour>
    </TTGlyph>
    <TTGlyph name="H" xMin="100" yMin="-3" xMax="566" yMax="686">
      <contour>
        <pt x="497" y="383" on="1"/>
        <pt x="496" y="457" on="1"/>
        <pt x="496" y="683" on="1"/>
        <pt x="508" y="686" on="0"/>
        <pt x="552" y="686" on="0"/>
        <pt x="566" y="683" on="1"/>
        <pt x="566" y="0" on="1"/>
        <pt x="552" y="-3" on="0"/>
        <pt x="508" y="-3" on="0"/>
        <pt x="496" y="0" on="1"/>
        <pt x="496" y="249" on="1"/>
        <pt x="497" y="323" on="1"/>
        <pt x="436" y="322" on="1"/>
        <pt x="231" y="322" on="1"/>
        <pt x="170" y="323" on="1"/>
        <pt x="171" y="249" on="1"/>
        <pt x="171" y="0" on="1"/>
        <pt x="156" y="-3" on="0"/>
        <pt x="114" y="-3" on="0"/>
        <pt x="100" y="0" on="1"/>
        <pt x="100" y="683" on="1"/>
        <pt x="113" y="686" on="0"/>
        <pt x="156" y="686" on="0"/>
        <pt x="171" y="683" on="1"/>
        <pt x="171" y="457" on="1"/>
        <pt x="171" y="457" on="0"/>
        <pt x="170" y="383" on="1"/>
        <pt x="231" y="384" on="1"/>
        <pt x="436" y="384" on="1"/>
      </contour>
    </TTGlyph>
    <TTGlyph name="Hbar" xMin="27" yMin="-3" xMax="649" yMax="686">
      <contour>
        <pt x="175" y="323" on="1"/>
        <pt x="176" y="249" on="1"/>
        <pt x="176" y="0" on="1"/>
        <pt x="161" y="-3" on="0"/>
        <pt x="118" y="-3" on="0"/>
        <pt x="105" y="0" on="1"/>
        <pt x="105" y="498" on="1"/>
        <pt x="30" y="498" on="1"/>
        <pt x="27" y="512" on="0"/>
        <pt x="27" y="544" on="0"/>
        <pt x="30" y="559" on="1"/>
        <pt x="105" y="559" on="1"/>
        <pt x="105" y="683" on="1"/>
        <pt x="119" y="686" on="0"/>
        <pt x="161" y="686" on="0"/>
        <pt x="176" y="683" on="1"/>
        <pt x="176" y="559" on="1"/>
        <pt x="501" y="559" on="1"/>
        <pt x="501" y="683" on="1"/>
        <pt x="513" y="686" on="0"/>
        <pt x="558" y="686" on="0"/>
        <pt x="571" y="683" on="1"/>
        <pt x="571" y="559" on="1"/>
        <pt x="646" y="559" on="1"/>
        <pt x="649" y="544" on="0"/>
        <pt x="649" y="512" on="0"/>
        <pt x="646" y="498" on="1"/>
        <pt x="571" y="498" on="1"/>
        <pt x="571" y="0" on="1"/>
        <pt x="558" y="-3" on="0"/>
        <pt x="513" y="-3" on="0"/>
        <pt x="501" y="0" on="1"/>
        <pt x="501" y="249" on="1"/>
        <pt x="502" y="323" on="1"/>
        <pt x="441" y="322" on="1"/>
        <pt x="236" y="322" on="1"/>
      </contour>
      <contour>
        <pt x="175" y="384" on="1"/>
        <pt x="236" y="385" on="1"/>
        <pt x="441" y="385" on="1"/>
        <pt x="502" y="384" on="1"/>
        <pt x="501" y="457" on="1"/>
        <pt x="501" y="498" on="1"/>
        <pt x="176" y="498" on="1"/>
        <pt x="176" y="457" on="1"/>
      </contour>
    </TTGlyph>
    <TTGlyph name="I" xMin="104" yMin="-3" xMax="175" yMax="686">
      <contour>
        <pt x="104" y="0" on="1"/>
        <pt x="104" y="683" on="1"/>
        <pt x="117" y="686" on="0"/>
        <pt x="160" y="686" on="0"/>
        <pt x="175" y="683" on="1"/>
        <pt x="175" y="0" on="1"/>
        <pt x="160" y="-3" on="0"/>
        <pt x="118" y="-3" on="0"/>
      </contour>
    </TTGlyph>
    <TTGlyph name="IJ" xMin="104" yMin="-10" xMax="627" yMax="686">
      <contour>
        <pt x="104" y="0" on="1"/>
        <pt x="104" y="683" on="1"/>
        <pt x="117" y="686" on="0"/>
        <pt x="160" y="686" on="0"/>
        <pt x="175" y="683" on="1"/>
        <pt x="175" y="0" on="1"/>
        <pt x="160" y="-3" on="0"/>
        <pt x="118" y="-3" on="0"/>
      </contour>
      <contour>
        <pt x="320" y="85" on="1"/>
        <pt x="375" y="51" on="0"/>
        <pt x="504" y="51" on="0"/>
        <pt x="557" y="130" on="0"/>
        <pt x="557" y="225" on="1"/>
        <pt x="557" y="683" on="1"/>
        <pt x="571" y="686" on="0"/>
        <pt x="614" y="686" on="0"/>
        <pt x="627" y="683" on="1"/>
        <pt x="627" y="240" on="1"/>
        <pt x="627" y="181" on="0"/>
        <pt x="614" y="101" on="0"/>
        <pt x="596" y="64" on="1"/>
        <pt x="558" y="-10" on="0"/>
        <pt x="441" y="-10" on="1"/>
        <pt x="357" y="-10" on="0"/>
        <pt x="290" y="31" on="1"/>
        <pt x="297" y="62" on="0"/>
      </contour>
    </TTGlyph>
    <TTGlyph name="Iacute" xMin="55" yMin="-3" xMax="280" yMax="878">
      <contour>
        <pt x="104" y="0" on="1"/>
        <pt x="104" y="683" on="1"/>
        <pt x="117" y="686" on="0"/>
        <pt x="160" y="686" on="0"/>
        <pt x="175" y="683" on="1"/>
        <pt x="175" y="0" on="1"/>
        <pt x="160" y="-3" on="0"/>
        <pt x="118" y="-3" on="0"/>
      </contour>
      <contour>
        <pt x="55" y="768" on="1"/>
        <pt x="243" y="878" on="1"/>
        <pt x="271" y="861" on="0"/>
        <pt x="280" y="815" on="1"/>
        <pt x="77" y="729" on="1"/>
        <pt x="59" y="741" on="0"/>
      </contour>
    </TTGlyph>
    <TTGlyph name="Icircumflex" xMin="-4" yMin="-3" xMax="283" yMax="876">
      <contour>
        <pt x="104" y="0" on="1"/>
        <pt x="104" y="683" on="1"/>
        <pt x="117" y="686" on="0"/>
        <pt x="160" y="686" on="0"/>
        <pt x="175" y="683" on="1"/>
        <pt x="175" y="0" on="1"/>
        <pt x="160" y="-3" on="0"/>
        <pt x="118" y="-3" on="0"/>
      </contour>
      <contour>
        <pt x="249" y="738" on="1"/>
        <pt x="140" y="813" on="1"/>
        <pt x="28" y="733" on="1"/>
        <pt x="3" y="742" on="0"/>
        <pt x="-4" y="767" on="1"/>
        <pt x="107" y="873" on="1"/>
        <pt x="123" y="876" on="0"/>
        <pt x="156" y="876" on="0"/>
        <pt x="173" y="873" on="1"/>
        <pt x="283" y="771" on="1"/>
        <pt x="276" y="746" on="0"/>
      </contour>
    </TTGlyph>
    <TTGlyph name="Idieresis" xMin="-4" yMin="-3" xMax="284" yMax="823">
      <contour>
        <pt x="104" y="0" on="1"/>
        <pt x="104" y="683" on="1"/>
        <pt x="117" y="686" on="0"/>
        <pt x="160" y="686" on="0"/>
        <pt x="175" y="683" on="1"/>
        <pt x="175" y="0" on="1"/>
        <pt x="160" y="-3" on="0"/>
        <pt x="118" y="-3" on="0"/>
      </contour>
      <contour>
        <pt x="198" y="815" on="1"/>
        <pt x="211" y="823" on="0"/>
        <pt x="262" y="823" on="0"/>
        <pt x="278" y="815" on="1"/>
        <pt x="284" y="795" on="0"/>
        <pt x="284" y="764" on="0"/>
        <pt x="278" y="745" on="1"/>
        <pt x="265" y="737" on="0"/>
        <pt x="209" y="737" on="0"/>
        <pt x="198" y="745" on="1"/>
        <pt x="191" y="763" on="0"/>
        <pt x="191" y="797" on="0"/>
      </contour>
      <contour>
        <pt x="2" y="815" on="1"/>
        <pt x="18" y="823" on="0"/>
        <pt x="69" y="823" on="0"/>
        <pt x="82" y="815" on="1"/>
        <pt x="89" y="797" on="0"/>
        <pt x="89" y="763" on="0"/>
        <pt x="82" y="745" on="1"/>
        <pt x="71" y="737" on="0"/>
        <pt x="15" y="737" on="0"/>
        <pt x="2" y="745" on="1"/>
        <pt x="-4" y="764" on="0"/>
        <pt x="-4" y="796" on="0"/>
      </contour>
    </TTGlyph>
    <TTGlyph name="Igrave" xMin="15" yMin="-3" xMax="240" yMax="878">
      <contour>
        <pt x="104" y="0" on="1"/>
        <pt x="104" y="683" on="1"/>
        <pt x="117" y="686" on="0"/>
        <pt x="160" y="686" on="0"/>
        <pt x="175" y="683" on="1"/>
        <pt x="175" y="0" on="1"/>
        <pt x="160" y="-3" on="0"/>
        <pt x="118" y="-3" on="0"/>
      </contour>
      <contour>
        <pt x="52" y="878" on="1"/>
        <pt x="240" y="768" on="1"/>
        <pt x="233" y="739" on="0"/>
        <pt x="218" y="729" on="1"/>
        <pt x="15" y="815" on="1"/>
        <pt x="24" y="861" on="0"/>
      </contour>
    </TTGlyph>
    <TTGlyph name="Itilde" xMin="-27" yMin="-3" xMax="307" yMax="856">
      <contour>
        <pt x="104" y="0" on="1"/>
        <pt x="104" y="683" on="1"/>
        <pt x="117" y="686" on="0"/>
        <pt x="160" y="686" on="0"/>
        <pt x="175" y="683" on="1"/>
        <pt x="175" y="0" on="1"/>
        <pt x="160" y="-3" on="0"/>
        <pt x="118" y="-3" on="0"/>
      </contour>
      <contour>
        <pt x="158" y="755" on="1"/>
        <pt x="96" y="784" on="1"/>
        <pt x="76" y="793" on="0"/>
        <pt x="41" y="793" on="0"/>
        <pt x="20" y="768" on="1"/>
        <pt x="7" y="752" on="1"/>
        <pt x="-20" y="754" on="0"/>
        <pt x="-27" y="774" on="1"/>
        <pt x="-19" y="794" on="1"/>
        <pt x="-8" y="823" on="0"/>
        <pt x="41" y="856" on="0"/>
        <pt x="94" y="856" on="0"/>
        <pt x="122" y="842" on="1"/>
        <pt x="184" y="813" on="1"/>
        <pt x="202" y="804" on="0"/>
        <pt x="239" y="804" on="0"/>
        <pt x="260" y="829" on="1"/>
        <pt x="273" y="845" on="1"/>
        <pt x="298" y="843" on="0"/>
        <pt x="307" y="823" on="1"/>
        <pt x="299" y="804" on="1"/>
        <pt x="273" y="741" on="0"/>
        <pt x="211" y="741" on="1"/>
        <pt x="186" y="741" on="0"/>
      </contour>
    </TTGlyph>
    <TTGlyph name="J" xMin="10" yMin="-10" xMax="347" yMax="686">
      <contour>
        <pt x="40" y="85" on="1"/>
        <pt x="95" y="51" on="0"/>
        <pt x="224" y="51" on="0"/>
        <pt x="277" y="130" on="0"/>
        <pt x="277" y="225" on="1"/>
        <pt x="277" y="683" on="1"/>
        <pt x="290" y="686" on="0"/>
        <pt x="333" y="686" on="0"/>
        <pt x="347" y="683" on="1"/>
        <pt x="347" y="240" on="1"/>
        <pt x="347" y="181" on="0"/>
        <pt x="334" y="101" on="0"/>
        <pt x="316" y="64" on="1"/>
        <pt x="278" y="-10" on="0"/>
        <pt x="161" y="-10" on="1"/>
        <pt x="77" y="-10" on="0"/>
        <pt x="10" y="31" on="1"/>
        <pt x="17" y="62" on="0"/>
      </contour>
    </TTGlyph>
    <TTGlyph name="Jcircumflex" xMin="10" yMin="-10" xMax="456" yMax="876">
      <contour>
        <pt x="40" y="85" on="1"/>
        <pt x="95" y="51" on="0"/>
        <pt x="224" y="51" on="0"/>
        <pt x="277" y="130" on="0"/>
        <pt x="277" y="225" on="1"/>
        <pt x="277" y="683" on="1"/>
        <pt x="290" y="686" on="0"/>
        <pt x="333" y="686" on="0"/>
        <pt x="347" y="683" on="1"/>
        <pt x="347" y="240" on="1"/>
        <pt x="347" y="181" on="0"/>
        <pt x="334" y="101" on="0"/>
        <pt x="316" y="64" on="1"/>
        <pt x="278" y="-10" on="0"/>
        <pt x="161" y="-10" on="1"/>
        <pt x="77" y="-10" on="0"/>
        <pt x="10" y="31" on="1"/>
        <pt x="17" y="62" on="0"/>
      </contour>
      <contour>
        <pt x="422" y="738" on="1"/>
        <pt x="313" y="813" on="1"/>
        <pt x="201" y="733" on="1"/>
        <pt x="176" y="742" on="0"/>
        <pt x="169" y="767" on="1"/>
        <pt x="280" y="873" on="1"/>
        <pt x="296" y="876" on="0"/>
        <pt x="329" y="876" on="0"/>
        <pt x="346" y="873" on="1"/>
        <pt x="456" y="771" on="1"/>
        <pt x="449" y="746" on="0"/>
      </contour>
    </TTGlyph>
    <TTGlyph name="K" xMin="100" yMin="-5" xMax="557" yMax="686">
      <contour>
        <pt x="557" y="20" on="1"/>
        <pt x="541" y="-5" on="0"/>
        <pt x="486" y="-5" on="0"/>
        <pt x="466" y="16" on="0"/>
        <pt x="456" y="42" on="1"/>
        <pt x="390" y="208" on="1"/>
        <pt x="365" y="271" on="0"/>
        <pt x="305" y="321" on="0"/>
        <pt x="215" y="321" on="0"/>
        <pt x="171" y="319" on="1"/>
        <pt x="171" y="0" on="1"/>
        <pt x="156" y="-3" on="0"/>
        <pt x="114" y="-3" on="0"/>
        <pt x="100" y="0" on="1"/>
        <pt x="100" y="683" on="1"/>
        <pt x="113" y="686" on="0"/>
        <pt x="156" y="686" on="0"/>
        <pt x="171" y="683" on="1"/>
        <pt x="171" y="381" on="1"/>
        <pt x="247" y="383" on="1"/>
        <pt x="266" y="383" on="0"/>
        <pt x="281" y="407" on="1"/>
        <pt x="431" y="649" on="1"/>
        <pt x="443" y="669" on="0"/>
        <pt x="463" y="685" on="0"/>
        <pt x="492" y="685" on="0"/>
        <pt x="520" y="683" on="1"/>
        <pt x="526" y="675" on="1"/>
        <pt x="354" y="400" on="1"/>
        <pt x="344" y="384" on="0"/>
        <pt x="326" y="366" on="1"/>
        <pt x="374" y="359" on="0"/>
        <pt x="428" y="300" on="0"/>
        <pt x="454" y="237" on="1"/>
        <pt x="517" y="78" on="1"/>
        <pt x="534" y="37" on="0"/>
      </contour>
    </TTGlyph>
    <TTGlyph name="Kcommaaccent" xMin="100" yMin="-244" xMax="557" yMax="686">
      <contour>
        <pt x="557" y="20" on="1"/>
        <pt x="541" y="-5" on="0"/>
        <pt x="486" y="-5" on="0"/>
        <pt x="466" y="16" on="0"/>
        <pt x="456" y="42" on="1"/>
        <pt x="390" y="208" on="1"/>
        <pt x="365" y="271" on="0"/>
        <pt x="305" y="321" on="0"/>
        <pt x="215" y="321" on="0"/>
        <pt x="171" y="319" on="1"/>
        <pt x="171" y="0" on="1"/>
        <pt x="156" y="-3" on="0"/>
        <pt x="114" y="-3" on="0"/>
        <pt x="100" y="0" on="1"/>
        <pt x="100" y="683" on="1"/>
        <pt x="113" y="686" on="0"/>
        <pt x="156" y="686" on="0"/>
        <pt x="171" y="683" on="1"/>
        <pt x="171" y="381" on="1"/>
        <pt x="247" y="383" on="1"/>
        <pt x="266" y="383" on="0"/>
        <pt x="281" y="407" on="1"/>
        <pt x="431" y="649" on="1"/>
        <pt x="443" y="669" on="0"/>
        <pt x="463" y="685" on="0"/>
        <pt x="492" y="685" on="0"/>
        <pt x="520" y="683" on="1"/>
        <pt x="526" y="675" on="1"/>
        <pt x="354" y="400" on="1"/>
        <pt x="344" y="384" on="0"/>
        <pt x="326" y="366" on="1"/>
        <pt x="374" y="359" on="0"/>
        <pt x="428" y="300" on="0"/>
        <pt x="454" y="237" on="1"/>
        <pt x="517" y="78" on="1"/>
        <pt x="534" y="37" on="0"/>
      </contour>
      <contour>
        <pt x="347" y="-58" on="1"/>
        <pt x="354" y="-79" on="0"/>
        <pt x="354" y="-103" on="1"/>
        <pt x="354" y="-147" on="0"/>
        <pt x="298" y="-221" on="0"/>
        <pt x="250" y="-244" on="1"/>
        <pt x="232" y="-238" on="0"/>
        <pt x="226" y="-213" on="1"/>
        <pt x="281" y="-174" on="0"/>
        <pt x="281" y="-120" on="1"/>
        <pt x="281" y="-94" on="0"/>
        <pt x="268" y="-68" on="1"/>
        <pt x="291" y="-53" on="0"/>
        <pt x="331" y="-53" on="0"/>
      </contour>
    </TTGlyph>
    <TTGlyph name="L" xMin="100" yMin="0" xMax="473" yMax="686">
      <contour>
        <pt x="257" y="63" on="1"/>
        <pt x="473" y="63" on="1"/>
        <pt x="473" y="42" on="0"/>
        <pt x="471" y="32" on="1"/>
        <pt x="465" y="0" on="0"/>
        <pt x="426" y="0" on="1"/>
        <pt x="142" y="0" on="1"/>
        <pt x="124" y="0" on="0"/>
        <pt x="100" y="25" on="0"/>
        <pt x="100" y="48" on="1"/>
        <pt x="100" y="680" on="1"/>
        <pt x="106" y="686" on="1"/>
        <pt x="135" y="686" on="1"/>
        <pt x="157" y="686" on="0"/>
        <pt x="171" y="665" on="0"/>
        <pt x="171" y="640" on="1"/>
        <pt x="171" y="60" on="1"/>
        <pt x="216" y="63" on="0"/>
      </contour>
    </TTGlyph>
    <TTGlyph name="Ldot" xMin="100" yMin="0" xMax="473" yMax="686">
      <contour>
        <pt x="257" y="63" on="1"/>
        <pt x="473" y="63" on="1"/>
        <pt x="473" y="42" on="0"/>
        <pt x="471" y="32" on="1"/>
        <pt x="465" y="0" on="0"/>
        <pt x="426" y="0" on="1"/>
        <pt x="142" y="0" on="1"/>
        <pt x="124" y="0" on="0"/>
        <pt x="100" y="25" on="0"/>
        <pt x="100" y="48" on="1"/>
        <pt x="100" y="680" on="1"/>
        <pt x="106" y="686" on="1"/>
        <pt x="135" y="686" on="1"/>
        <pt x="157" y="686" on="0"/>
        <pt x="171" y="665" on="0"/>
        <pt x="171" y="640" on="1"/>
        <pt x="171" y="60" on="1"/>
        <pt x="216" y="63" on="0"/>
      </contour>
      <contour>
        <pt x="343" y="309" on="1"/>
        <pt x="336" y="321" on="0"/>
        <pt x="336" y="376" on="0"/>
        <pt x="343" y="388" on="1"/>
        <pt x="361" y="397" on="0"/>
        <pt x="412" y="397" on="0"/>
        <pt x="426" y="388" on="1"/>
        <pt x="433" y="376" on="0"/>
        <pt x="433" y="321" on="0"/>
        <pt x="426" y="309" on="1"/>
        <pt x="414" y="299" on="0"/>
        <pt x="359" y="299" on="0"/>
      </contour>
    </TTGlyph>
    <TTGlyph name="Lslash" xMin="27" yMin="0" xMax="476" yMax="686">
      <contour>
        <pt x="175" y="640" on="1"/>
        <pt x="175" y="381" on="1"/>
        <pt x="365" y="443" on="1"/>
        <pt x="370" y="440" on="1"/>
        <pt x="374" y="425" on="0"/>
        <pt x="374" y="397" on="0"/>
        <pt x="371" y="383" on="1"/>
        <pt x="175" y="320" on="1"/>
        <pt x="175" y="60" on="1"/>
        <pt x="220" y="63" on="0"/>
        <pt x="261" y="63" on="1"/>
        <pt x="476" y="63" on="1"/>
        <pt x="476" y="42" on="0"/>
        <pt x="474" y="32" on="1"/>
        <pt x="470" y="0" on="0"/>
        <pt x="429" y="0" on="1"/>
        <pt x="145" y="0" on="1"/>
        <pt x="128" y="0" on="0"/>
        <pt x="104" y="25" on="0"/>
        <pt x="104" y="48" on="1"/>
        <pt x="104" y="300" on="1"/>
        <pt x="36" y="277" on="1"/>
        <pt x="31" y="280" on="1"/>
        <pt x="28" y="295" on="0"/>
        <pt x="28" y="323" on="0"/>
        <pt x="30" y="337" on="1"/>
        <pt x="104" y="360" on="1"/>
        <pt x="104" y="680" on="1"/>
        <pt x="110" y="686" on="1"/>
        <pt x="139" y="686" on="1"/>
        <pt x="161" y="686" on="0"/>
        <pt x="175" y="665" on="0"/>
      </contour>
    </TTGlyph>
    <TTGlyph name="M" xMin="87" yMin="-4" xMax="704" yMax="686">
      <contour>
        <pt x="87" y="1" on="1"/>
        <pt x="140" y="683" on="1"/>
        <pt x="157" y="686" on="0"/>
        <pt x="216" y="686" on="0"/>
        <pt x="233" y="683" on="1"/>
        <pt x="352" y="324" on="1"/>
        <pt x="385" y="227" on="0"/>
        <pt x="393" y="181" on="1"/>
        <pt x="398" y="181" on="1"/>
        <pt x="406" y="227" on="0"/>
        <pt x="439" y="324" on="1"/>
        <pt x="558" y="683" on="1"/>
        <pt x="577" y="686" on="0"/>
        <pt x="631" y="686" on="0"/>
        <pt x="651" y="683" on="1"/>
        <pt x="704" y="1" on="1"/>
        <pt x="687" y="-4" on="0"/>
        <pt x="652" y="-4" on="0"/>
        <pt x="635" y="-1" on="1"/>
        <pt x="606" y="423" on="1"/>
        <pt x="603" y="465" on="0"/>
        <pt x="598" y="609" on="1"/>
        <pt x="593" y="609" on="1"/>
        <pt x="430" y="107" on="1"/>
        <pt x="414" y="104" on="0"/>
        <pt x="375" y="104" on="0"/>
        <pt x="360" y="107" on="1"/>
        <pt x="197" y="609" on="1"/>
        <pt x="192" y="609" on="1"/>
        <pt x="191" y="584" on="0"/>
        <pt x="186" y="447" on="0"/>
        <pt x="184" y="423" on="1"/>
        <pt x="155" y="-1" on="1"/>
        <pt x="138" y="-4" on="0"/>
        <pt x="100" y="-4" on="0"/>
      </contour>
    </TTGlyph>
    <TTGlyph name="N" xMin="100" yMin="-3" xMax="569" yMax="686">
      <contour>
        <pt x="563" y="686" on="1"/>
        <pt x="569" y="681" on="1"/>
        <pt x="569" y="0" on="1"/>
        <pt x="551" y="-3" on="0"/>
        <pt x="498" y="-3" on="0"/>
        <pt x="482" y="0" on="1"/>
        <pt x="232" y="461" on="1"/>
        <pt x="202" y="516" on="0"/>
        <pt x="163" y="598" on="1"/>
        <pt x="160" y="598" on="1"/>
        <pt x="166" y="418" on="0"/>
        <pt x="166" y="388" on="1"/>
        <pt x="166" y="0" on="1"/>
        <pt x="146" y="-3" on="0"/>
        <pt x="118" y="-3" on="0"/>
        <pt x="100" y="0" on="1"/>
        <pt x="100" y="683" on="1"/>
        <pt x="118" y="686" on="0"/>
        <pt x="169" y="686" on="0"/>
        <pt x="187" y="683" on="1"/>
        <pt x="436" y="222" on="1"/>
        <pt x="441" y="213" on="0"/>
        <pt x="506" y="83" on="1"/>
        <pt x="506" y="82" on="1"/>
        <pt x="509" y="82" on="1"/>
        <pt x="504" y="202" on="0"/>
        <pt x="504" y="305" on="1"/>
        <pt x="504" y="640" on="1"/>
        <pt x="504" y="665" on="0"/>
        <pt x="518" y="686" on="0"/>
        <pt x="540" y="686" on="1"/>
      </contour>
    </TTGlyph>
    <TTGlyph name="Nacute" xMin="100" yMin="-3" xMax="569" yMax="878">
      <contour>
        <pt x="563" y="686" on="1"/>
        <pt x="569" y="681" on="1"/>
        <pt x="569" y="0" on="1"/>
        <pt x="551" y="-3" on="0"/>
        <pt x="498" y="-3" on="0"/>
        <pt x="482" y="0" on="1"/>
        <pt x="232" y="461" on="1"/>
        <pt x="202" y="516" on="0"/>
        <pt x="163" y="598" on="1"/>
        <pt x="160" y="598" on="1"/>
        <pt x="166" y="418" on="0"/>
        <pt x="166" y="388" on="1"/>
        <pt x="166" y="0" on="1"/>
        <pt x="146" y="-3" on="0"/>
        <pt x="118" y="-3" on="0"/>
        <pt x="100" y="0" on="1"/>
        <pt x="100" y="683" on="1"/>
        <pt x="118" y="686" on="0"/>
        <pt x="169" y="686" on="0"/>
        <pt x="187" y="683" on="1"/>
        <pt x="436" y="222" on="1"/>
        <pt x="441" y="213" on="0"/>
        <pt x="506" y="83" on="1"/>
        <pt x="506" y="82" on="1"/>
        <pt x="509" y="82" on="1"/>
        <pt x="504" y="202" on="0"/>
        <pt x="504" y="305" on="1"/>
        <pt x="504" y="640" on="1"/>
        <pt x="504" y="665" on="0"/>
        <pt x="518" y="686" on="0"/>
        <pt x="540" y="686" on="1"/>
      </contour>
      <contour>
        <pt x="252" y="768" on="1"/>
        <pt x="440" y="878" on="1"/>
        <pt x="468" y="861" on="0"/>
        <pt x="477" y="815" on="1"/>
        <pt x="274" y="729" on="1"/>
        <pt x="256" y="741" on="0"/>
      </contour>
    </TTGlyph>
    <TTGlyph name="Ncaron" xMin="100" yMin="-3" xMax="569" yMax="879">
      <contour>
        <pt x="563" y="686" on="1"/>
        <pt x="569" y="681" on="1"/>
        <pt x="569" y="0" on="1"/>
        <pt x="551" y="-3" on="0"/>
        <pt x="498" y="-3" on="0"/>
        <pt x="482" y="0" on="1"/>
        <pt x="232" y="461" on="1"/>
        <pt x="202" y="516" on="0"/>
        <pt x="163" y="598" on="1"/>
        <pt x="160" y="598" on="1"/>
        <pt x="166" y="418" on="0"/>
        <pt x="166" y="388" on="1"/>
        <pt x="166" y="0" on="1"/>
        <pt x="146" y="-3" on="0"/>
        <pt x="118" y="-3" on="0"/>
        <pt x="100" y="0" on="1"/>
        <pt x="100" y="683" on="1"/>
        <pt x="118" y="686" on="0"/>
        <pt x="169" y="686" on="0"/>
        <pt x="187" y="683" on="1"/>
        <pt x="436" y="222" on="1"/>
        <pt x="441" y="213" on="0"/>
        <pt x="506" y="83" on="1"/>
        <pt x="506" y="82" on="1"/>
        <pt x="509" y="82" on="1"/>
        <pt x="504" y="202" on="0"/>
        <pt x="504" y="305" on="1"/>
        <pt x="504" y="640" on="1"/>
        <pt x="504" y="665" on="0"/>
        <pt x="518" y="686" on="0"/>
        <pt x="540" y="686" on="1"/>
      </contour>
      <contour>
        <pt x="228" y="874" on="1"/>
        <pt x="337" y="799" on="1"/>
        <pt x="449" y="879" on="1"/>
        <pt x="474" y="870" on="0"/>
        <pt x="481" y="846" on="1"/>
        <pt x="371" y="739" on="1"/>
        <pt x="350" y="736" on="0"/>
        <pt x="318" y="736" on="0"/>
        <pt x="305" y="739" on="1"/>
        <pt x="194" y="842" on="1"/>
        <pt x="203" y="866" on="0"/>
      </contour>
    </TTGlyph>
    <TTGlyph name="Ntilde" xMin="100" yMin="-3" xMax="569" yMax="856">
      <contour>
        <pt x="563" y="686" on="1"/>
        <pt x="569" y="681" on="1"/>
        <pt x="569" y="0" on="1"/>
        <pt x="551" y="-3" on="0"/>
        <pt x="498" y="-3" on="0"/>
        <pt x="482" y="0" on="1"/>
        <pt x="232" y="461" on="1"/>
        <pt x="202" y="516" on="0"/>
        <pt x="163" y="598" on="1"/>
        <pt x="160" y="598" on="1"/>
        <pt x="166" y="418" on="0"/>
        <pt x="166" y="388" on="1"/>
        <pt x="166" y="0" on="1"/>
        <pt x="146" y="-3" on="0"/>
        <pt x="118" y="-3" on="0"/>
        <pt x="100" y="0" on="1"/>
        <pt x="100" y="683" on="1"/>
        <pt x="118" y="686" on="0"/>
        <pt x="169" y="686" on="0"/>
        <pt x="187" y="683" on="1"/>
        <pt x="436" y="222" on="1"/>
        <pt x="441" y="213" on="0"/>
        <pt x="506" y="83" on="1"/>
        <pt x="506" y="82" on="1"/>
        <pt x="509" y="82" on="1"/>
        <pt x="504" y="202" on="0"/>
        <pt x="504" y="305" on="1"/>
        <pt x="504" y="640" on="1"/>
        <pt x="504" y="665" on="0"/>
        <pt x="518" y="686" on="0"/>
        <pt x="540" y="686" on="1"/>
      </contour>
      <contour>
        <pt x="355" y="755" on="1"/>
        <pt x="293" y="784" on="1"/>
        <pt x="273" y="793" on="0"/>
        <pt x="238" y="793" on="0"/>
        <pt x="217" y="768" on="1"/>
        <pt x="204" y="752" on="1"/>
        <pt x="177" y="754" on="0"/>
        <pt x="170" y="774" on="1"/>
        <pt x="178" y="794" on="1"/>
        <pt x="189" y="823" on="0"/>
        <pt x="238" y="856" on="0"/>
        <pt x="291" y="856" on="0"/>
        <pt x="319" y="842" on="1"/>
        <pt x="381" y="813" on="1"/>
        <pt x="399" y="804" on="0"/>
        <pt x="436" y="804" on="0"/>
        <pt x="457" y="829" on="1"/>
        <pt x="470" y="845" on="1"/>
        <pt x="495" y="843" on="0"/>
        <pt x="504" y="823" on="1"/>
        <pt x="496" y="804" on="1"/>
        <pt x="470" y="741" on="0"/>
        <pt x="408" y="741" on="1"/>
        <pt x="383" y="741" on="0"/>
      </contour>
    </TTGlyph>
    <TTGlyph name="O" xMin="58" yMin="-12" xMax="593" yMax="695">
      <contour>
        <pt x="133" y="396" on="0"/>
        <pt x="133" y="288" on="0"/>
        <pt x="150" y="192" on="0"/>
        <pt x="191" y="101" on="0"/>
        <pt x="270" y="48" on="0"/>
        <pt x="382" y="48" on="0"/>
        <pt x="461" y="101" on="0"/>
        <pt x="501" y="192" on="0"/>
        <pt x="518" y="288" on="0"/>
        <pt x="518" y="396" on="0"/>
        <pt x="501" y="491" on="0"/>
        <pt x="461" y="582" on="0"/>
        <pt x="382" y="635" on="0"/>
        <pt x="270" y="635" on="0"/>
        <pt x="191" y="582" on="0"/>
        <pt x="150" y="492" on="0"/>
      </contour>
      <contour>
        <pt x="58" y="342" on="1"/>
        <pt x="58" y="431" on="0"/>
        <pt x="110" y="589" on="0"/>
        <pt x="164" y="637" on="1"/>
        <pt x="229" y="695" on="0"/>
        <pt x="424" y="695" on="0"/>
        <pt x="487" y="637" on="1"/>
        <pt x="541" y="589" on="0"/>
        <pt x="593" y="431" on="0"/>
        <pt x="593" y="342" on="1"/>
        <pt x="593" y="141" on="0"/>
        <pt x="487" y="46" on="1"/>
        <pt x="424" y="-12" on="0"/>
        <pt x="229" y="-12" on="0"/>
        <pt x="164" y="46" on="1"/>
        <pt x="58" y="141" on="0"/>
      </contour>
    </TTGlyph>
    <TTGlyph name="OE" xMin="58" yMin="-12" xMax="826" yMax="695">
      <contour>
        <pt x="489" y="95" on="1"/>
        <pt x="488" y="60" on="1"/>
        <pt x="522" y="62" on="0"/>
        <pt x="549" y="62" on="1"/>
        <pt x="826" y="62" on="1"/>
        <pt x="826" y="42" on="0"/>
        <pt x="824" y="32" on="1"/>
        <pt x="818" y="0" on="0"/>
        <pt x="779" y="0" on="1"/>
        <pt x="444" y="0" on="1"/>
        <pt x="345" y="-12" on="0"/>
        <pt x="327" y="-12" on="1"/>
        <pt x="229" y="-12" on="0"/>
        <pt x="164" y="46" on="1"/>
        <pt x="58" y="141" on="0"/>
        <pt x="58" y="342" on="1"/>
        <pt x="58" y="431" on="0"/>
        <pt x="110" y="589" on="0"/>
        <pt x="164" y="637" on="1"/>
        <pt x="229" y="695" on="0"/>
        <pt x="327" y="695" on="1"/>
        <pt x="342" y="695" on="0"/>
        <pt x="444" y="683" on="1"/>
        <pt x="810" y="683" on="1"/>
        <pt x="812" y="672" on="0"/>
        <pt x="812" y="636" on="0"/>
        <pt x="807" y="622" on="1"/>
        <pt x="648" y="622" on="0"/>
        <pt x="488" y="622" on="1"/>
        <pt x="488" y="622" on="0"/>
        <pt x="489" y="561" on="1"/>
        <pt x="489" y="375" on="1"/>
        <pt x="548" y="376" on="1"/>
        <pt x="759" y="376" on="1"/>
        <pt x="762" y="361" on="0"/>
        <pt x="762" y="331" on="0"/>
        <pt x="759" y="316" on="1"/>
        <pt x="548" y="316" on="1"/>
        <pt x="510" y="316" on="0"/>
        <pt x="489" y="317" on="1"/>
      </contour>
      <contour>
        <pt x="191" y="101" on="0"/>
        <pt x="270" y="48" on="0"/>
        <pt x="374" y="48" on="0"/>
        <pt x="421" y="58" on="1"/>
        <pt x="421" y="625" on="1"/>
        <pt x="363" y="635" on="0"/>
        <pt x="271" y="635" on="0"/>
        <pt x="191" y="582" on="0"/>
        <pt x="150" y="492" on="0"/>
        <pt x="133" y="396" on="0"/>
        <pt x="133" y="288" on="0"/>
        <pt x="150" y="192" on="0"/>
      </contour>
    </TTGlyph>
    <TTGlyph name="Oacute" xMin="58" yMin="-12" xMax="593" yMax="878">
      <contour>
        <pt x="133" y="396" on="0"/>
        <pt x="133" y="288" on="0"/>
        <pt x="150" y="192" on="0"/>
        <pt x="191" y="101" on="0"/>
        <pt x="270" y="48" on="0"/>
        <pt x="382" y="48" on="0"/>
        <pt x="461" y="101" on="0"/>
        <pt x="501" y="192" on="0"/>
        <pt x="518" y="288" on="0"/>
        <pt x="518" y="396" on="0"/>
        <pt x="501" y="491" on="0"/>
        <pt x="461" y="582" on="0"/>
        <pt x="382" y="635" on="0"/>
        <pt x="270" y="635" on="0"/>
        <pt x="191" y="582" on="0"/>
        <pt x="150" y="492" on="0"/>
      </contour>
      <contour>
        <pt x="58" y="342" on="1"/>
        <pt x="58" y="431" on="0"/>
        <pt x="110" y="589" on="0"/>
        <pt x="164" y="637" on="1"/>
        <pt x="229" y="695" on="0"/>
        <pt x="424" y="695" on="0"/>
        <pt x="487" y="637" on="1"/>
        <pt x="541" y="589" on="0"/>
        <pt x="593" y="431" on="0"/>
        <pt x="593" y="342" on="1"/>
        <pt x="593" y="141" on="0"/>
        <pt x="487" y="46" on="1"/>
        <pt x="424" y="-12" on="0"/>
        <pt x="229" y="-12" on="0"/>
        <pt x="164" y="46" on="1"/>
        <pt x="58" y="141" on="0"/>
      </contour>
      <contour>
        <pt x="241" y="768" on="1"/>
        <pt x="429" y="878" on="1"/>
        <pt x="457" y="861" on="0"/>
        <pt x="466" y="815" on="1"/>
        <pt x="263" y="729" on="1"/>
        <pt x="245" y="741" on="0"/>
      </contour>
    </TTGlyph>
    <TTGlyph name="Ocircumflex" xMin="58" yMin="-12" xMax="593" yMax="876">
      <contour>
        <pt x="133" y="396" on="0"/>
        <pt x="133" y="288" on="0"/>
        <pt x="150" y="192" on="0"/>
        <pt x="191" y="101" on="0"/>
        <pt x="270" y="48" on="0"/>
        <pt x="382" y="48" on="0"/>
        <pt x="461" y="101" on="0"/>
        <pt x="501" y="192" on="0"/>
        <pt x="518" y="288" on="0"/>
        <pt x="518" y="396" on="0"/>
        <pt x="501" y="491" on="0"/>
        <pt x="461" y="582" on="0"/>
        <pt x="382" y="635" on="0"/>
        <pt x="270" y="635" on="0"/>
        <pt x="191" y="582" on="0"/>
        <pt x="150" y="492" on="0"/>
      </contour>
      <contour>
        <pt x="58" y="342" on="1"/>
        <pt x="58" y="431" on="0"/>
        <pt x="110" y="589" on="0"/>
        <pt x="164" y="637" on="1"/>
        <pt x="229" y="695" on="0"/>
        <pt x="424" y="695" on="0"/>
        <pt x="487" y="637" on="1"/>
        <pt x="541" y="589" on="0"/>
        <pt x="593" y="431" on="0"/>
        <pt x="593" y="342" on="1"/>
        <pt x="593" y="141" on="0"/>
        <pt x="487" y="46" on="1"/>
        <pt x="424" y="-12" on="0"/>
        <pt x="229" y="-12" on="0"/>
        <pt x="164" y="46" on="1"/>
        <pt x="58" y="141" on="0"/>
      </contour>
      <contour>
        <pt x="435" y="738" on="1"/>
        <pt x="326" y="813" on="1"/>
        <pt x="214" y="733" on="1"/>
        <pt x="189" y="742" on="0"/>
        <pt x="182" y="767" on="1"/>
        <pt x="293" y="873" on="1"/>
        <pt x="309" y="876" on="0"/>
        <pt x="342" y="876" on="0"/>
        <pt x="359" y="873" on="1"/>
        <pt x="469" y="771" on="1"/>
        <pt x="462" y="746" on="0"/>
      </contour>
    </TTGlyph>
    <TTGlyph name="Odieresis" xMin="58" yMin="-12" xMax="593" yMax="823">
      <contour>
        <pt x="133" y="396" on="0"/>
        <pt x="133" y="288" on="0"/>
        <pt x="150" y="192" on="0"/>
        <pt x="191" y="101" on="0"/>
        <pt x="270" y="48" on="0"/>
        <pt x="382" y="48" on="0"/>
        <pt x="461" y="101" on="0"/>
        <pt x="501" y="192" on="0"/>
        <pt x="518" y="288" on="0"/>
        <pt x="518" y="396" on="0"/>
        <pt x="501" y="491" on="0"/>
        <pt x="461" y="582" on="0"/>
        <pt x="382" y="635" on="0"/>
        <pt x="270" y="635" on="0"/>
        <pt x="191" y="582" on="0"/>
        <pt x="150" y="492" on="0"/>
      </contour>
      <contour>
        <pt x="58" y="342" on="1"/>
        <pt x="58" y="431" on="0"/>
        <pt x="110" y="589" on="0"/>
        <pt x="164" y="637" on="1"/>
        <pt x="229" y="695" on="0"/>
        <pt x="424" y="695" on="0"/>
        <pt x="487" y="637" on="1"/>
        <pt x="541" y="589" on="0"/>
        <pt x="593" y="431" on="0"/>
        <pt x="593" y="342" on="1"/>
        <pt x="593" y="141" on="0"/>
        <pt x="487" y="46" on="1"/>
        <pt x="424" y="-12" on="0"/>
        <pt x="229" y="-12" on="0"/>
        <pt x="164" y="46" on="1"/>
        <pt x="58" y="141" on="0"/>
      </contour>
      <contour>
        <pt x="384" y="815" on="1"/>
        <pt x="397" y="823" on="0"/>
        <pt x="448" y="823" on="0"/>
        <pt x="464" y="815" on="1"/>
        <pt x="470" y="795" on="0"/>
        <pt x="470" y="764" on="0"/>
        <pt x="464" y="745" on="1"/>
        <pt x="451" y="737" on="0"/>
        <pt x="395" y="737" on="0"/>
        <pt x="384" y="745" on="1"/>
        <pt x="377" y="763" on="0"/>
        <pt x="377" y="797" on="0"/>
      </contour>
      <contour>
        <pt x="188" y="815" on="1"/>
        <pt x="204" y="823" on="0"/>
        <pt x="255" y="823" on="0"/>
        <pt x="268" y="815" on="1"/>
        <pt x="275" y="797" on="0"/>
        <pt x="275" y="763" on="0"/>
        <pt x="268" y="745" on="1"/>
        <pt x="257" y="737" on="0"/>
        <pt x="201" y="737" on="0"/>
        <pt x="188" y="745" on="1"/>
        <pt x="182" y="764" on="0"/>
        <pt x="182" y="796" on="0"/>
      </contour>
    </TTGlyph>
    <TTGlyph name="Ograve" xMin="58" yMin="-12" xMax="593" yMax="878">
      <contour>
        <pt x="133" y="396" on="0"/>
        <pt x="133" y="288" on="0"/>
        <pt x="150" y="192" on="0"/>
        <pt x="191" y="101" on="0"/>
        <pt x="270" y="48" on="0"/>
        <pt x="382" y="48" on="0"/>
        <pt x="461" y="101" on="0"/>
        <pt x="501" y="192" on="0"/>
        <pt x="518" y="288" on="0"/>
        <pt x="518" y="396" on="0"/>
        <pt x="501" y="491" on="0"/>
        <pt x="461" y="582" on="0"/>
        <pt x="382" y="635" on="0"/>
        <pt x="270" y="635" on="0"/>
        <pt x="191" y="582" on="0"/>
        <pt x="150" y="492" on="0"/>
      </contour>
      <contour>
        <pt x="58" y="342" on="1"/>
        <pt x="58" y="431" on="0"/>
        <pt x="110" y="589" on="0"/>
        <pt x="164" y="637" on="1"/>
        <pt x="229" y="695" on="0"/>
        <pt x="424" y="695" on="0"/>
        <pt x="487" y="637" on="1"/>
        <pt x="541" y="589" on="0"/>
        <pt x="593" y="431" on="0"/>
        <pt x="593" y="342" on="1"/>
        <pt x="593" y="141" on="0"/>
        <pt x="487" y="46" on="1"/>
        <pt x="424" y="-12" on="0"/>
        <pt x="229" y="-12" on="0"/>
        <pt x="164" y="46" on="1"/>
        <pt x="58" y="141" on="0"/>
      </contour>
      <contour>
        <pt x="238" y="878" on="1"/>
        <pt x="426" y="768" on="1"/>
        <pt x="419" y="739" on="0"/>
        <pt x="404" y="729" on="1"/>
        <pt x="201" y="815" on="1"/>
        <pt x="210" y="861" on="0"/>
      </contour>
    </TTGlyph>
    <TTGlyph name="Oslash" xMin="58" yMin="-39" xMax="593" yMax="722">
      <contour>
        <pt x="58" y="342" on="1"/>
        <pt x="58" y="431" on="0"/>
        <pt x="110" y="589" on="0"/>
        <pt x="164" y="637" on="1"/>
        <pt x="229" y="695" on="0"/>
        <pt x="404" y="695" on="0"/>
        <pt x="459" y="658" on="1"/>
        <pt x="496" y="722" on="1"/>
        <pt x="529" y="718" on="0"/>
        <pt x="547" y="695" on="1"/>
        <pt x="505" y="619" on="1"/>
        <pt x="593" y="523" on="0"/>
        <pt x="593" y="141" on="0"/>
        <pt x="487" y="46" on="1"/>
        <pt x="422" y="-12" on="0"/>
        <pt x="245" y="-12" on="0"/>
        <pt x="192" y="24" on="1"/>
        <pt x="156" y="-39" on="1"/>
        <pt x="143" y="-38" on="0"/>
        <pt x="112" y="-22" on="0"/>
        <pt x="104" y="-12" on="1"/>
        <pt x="146" y="63" on="1"/>
        <pt x="58" y="161" on="0"/>
      </contour>
      <contour>
        <pt x="181" y="128" on="1"/>
        <pt x="429" y="602" on="1"/>
        <pt x="387" y="635" on="0"/>
        <pt x="270" y="635" on="0"/>
        <pt x="191" y="582" on="0"/>
        <pt x="170" y="537" on="1"/>
        <pt x="133" y="455" on="0"/>
        <pt x="133" y="205" on="0"/>
      </contour>
      <contour>
        <pt x="518" y="342" on="1"/>
        <pt x="518" y="476" on="0"/>
        <pt x="470" y="555" on="1"/>
        <pt x="223" y="80" on="1"/>
        <pt x="265" y="48" on="0"/>
        <pt x="371" y="48" on="0"/>
        <pt x="440" y="85" on="0"/>
        <pt x="482" y="142" on="0"/>
        <pt x="495" y="182" on="1"/>
        <pt x="518" y="253" on="0"/>
      </contour>
    </TTGlyph>
    <TTGlyph name="Otilde" xMin="58" yMin="-12" xMax="593" yMax="860">
      <contour>
        <pt x="133" y="396" on="0"/>
        <pt x="133" y="288" on="0"/>
        <pt x="150" y="192" on="0"/>
        <pt x="191" y="101" on="0"/>
        <pt x="270" y="48" on="0"/>
        <pt x="382" y="48" on="0"/>
        <pt x="461" y="101" on="0"/>
        <pt x="501" y="192" on="0"/>
        <pt x="518" y="288" on="0"/>
        <pt x="518" y="396" on="0"/>
        <pt x="501" y="491" on="0"/>
        <pt x="461" y="582" on="0"/>
        <pt x="382" y="635" on="0"/>
        <pt x="270" y="635" on="0"/>
        <pt x="191" y="582" on="0"/>
        <pt x="150" y="492" on="0"/>
      </contour>
      <contour>
        <pt x="58" y="342" on="1"/>
        <pt x="58" y="431" on="0"/>
        <pt x="110" y="589" on="0"/>
        <pt x="164" y="637" on="1"/>
        <pt x="229" y="695" on="0"/>
        <pt x="424" y="695" on="0"/>
        <pt x="487" y="637" on="1"/>
        <pt x="541" y="589" on="0"/>
        <pt x="593" y="431" on="0"/>
        <pt x="593" y="342" on="1"/>
        <pt x="593" y="141" on="0"/>
        <pt x="487" y="46" on="1"/>
        <pt x="424" y="-12" on="0"/>
        <pt x="229" y="-12" on="0"/>
        <pt x="164" y="46" on="1"/>
        <pt x="58" y="141" on="0"/>
      </contour>
      <contour>
        <pt x="345" y="759" on="1"/>
        <pt x="285" y="789" on="1"/>
        <pt x="267" y="798" on="0"/>
        <pt x="232" y="798" on="0"/>
        <pt x="213" y="772" on="1"/>
        <pt x="200" y="756" on="1"/>
        <pt x="174" y="758" on="0"/>
        <pt x="166" y="779" on="1"/>
        <pt x="174" y="799" on="1"/>
        <pt x="203" y="860" on="0"/>
        <pt x="260" y="860" on="1"/>
        <pt x="282" y="860" on="0"/>
        <pt x="310" y="847" on="1"/>
        <pt x="370" y="817" on="1"/>
        <pt x="386" y="808" on="0"/>
        <pt x="422" y="808" on="0"/>
        <pt x="443" y="834" on="1"/>
        <pt x="455" y="850" on="1"/>
        <pt x="479" y="848" on="0"/>
        <pt x="490" y="828" on="1"/>
        <pt x="481" y="808" on="1"/>
        <pt x="454" y="746" on="0"/>
        <pt x="396" y="746" on="1"/>
        <pt x="373" y="746" on="0"/>
      </contour>
    </TTGlyph>
    <TTGlyph name="P" xMin="100" yMin="-3" xMax="513" yMax="686">
      <contour>
        <pt x="106" y="683" on="1"/>
        <pt x="295" y="686" on="1"/>
        <pt x="393" y="686" on="0"/>
        <pt x="513" y="576" on="0"/>
        <pt x="513" y="371" on="0"/>
        <pt x="394" y="260" on="0"/>
        <pt x="295" y="260" on="1"/>
        <pt x="171" y="260" on="1"/>
        <pt x="171" y="0" on="1"/>
        <pt x="156" y="-3" on="0"/>
        <pt x="114" y="-3" on="0"/>
        <pt x="100" y="0" on="1"/>
        <pt x="100" y="677" on="1"/>
      </contour>
      <contour>
        <pt x="171" y="627" on="1"/>
        <pt x="171" y="319" on="1"/>
        <pt x="213" y="320" on="0"/>
        <pt x="374" y="320" on="0"/>
        <pt x="438" y="411" on="0"/>
        <pt x="438" y="537" on="0"/>
        <pt x="374" y="626" on="0"/>
        <pt x="208" y="626" on="0"/>
      </contour>
    </TTGlyph>
    <TTGlyph name="Q" xMin="58" yMin="-117" xMax="581" yMax="695">
      <contour>
        <pt x="464" y="-98" on="1"/>
        <pt x="341" y="-11" on="1"/>
        <pt x="336" y="-12" on="0"/>
        <pt x="326" y="-12" on="1"/>
        <pt x="221" y="-12" on="0"/>
        <pt x="159" y="44" on="1"/>
        <pt x="58" y="134" on="0"/>
        <pt x="58" y="549" on="0"/>
        <pt x="159" y="639" on="1"/>
        <pt x="221" y="695" on="0"/>
        <pt x="418" y="695" on="0"/>
        <pt x="480" y="639" on="1"/>
        <pt x="581" y="549" on="0"/>
        <pt x="581" y="137" on="0"/>
        <pt x="482" y="48" on="1"/>
        <pt x="451" y="22" on="0"/>
        <pt x="425" y="13" on="1"/>
        <pt x="447" y="-2" on="1"/>
        <pt x="530" y="-63" on="0"/>
        <pt x="574" y="-64" on="1"/>
        <pt x="572" y="-91" on="0"/>
        <pt x="541" y="-117" on="0"/>
        <pt x="492" y="-117" on="0"/>
      </contour>
      <contour>
        <pt x="133" y="635" on="0"/>
        <pt x="133" y="51" on="0"/>
        <pt x="506" y="51" on="0"/>
        <pt x="506" y="635" on="0"/>
      </contour>
    </TTGlyph>
    <TTGlyph name="R" xMin="100" yMin="-6" xMax="551" yMax="686">
      <contour>
        <pt x="106" y="683" on="1"/>
        <pt x="306" y="686" on="1"/>
        <pt x="409" y="686" on="0"/>
        <pt x="521" y="581" on="0"/>
        <pt x="521" y="489" on="1"/>
        <pt x="521" y="421" on="0"/>
        <pt x="451" y="325" on="0"/>
        <pt x="389" y="307" on="1"/>
        <pt x="430" y="293" on="0"/>
        <pt x="456" y="227" on="1"/>
        <pt x="509" y="89" on="1"/>
        <pt x="531" y="33" on="0"/>
        <pt x="551" y="18" on="1"/>
        <pt x="537" y="-6" on="0"/>
        <pt x="502" y="-6" on="1"/>
        <pt x="482" y="-6" on="0"/>
        <pt x="461" y="16" on="0"/>
        <pt x="451" y="41" on="1"/>
        <pt x="391" y="197" on="1"/>
        <pt x="373" y="244" on="0"/>
        <pt x="326" y="291" on="0"/>
        <pt x="279" y="291" on="1"/>
        <pt x="171" y="291" on="1"/>
        <pt x="171" y="0" on="1"/>
        <pt x="156" y="-3" on="0"/>
        <pt x="114" y="-3" on="0"/>
        <pt x="100" y="0" on="1"/>
        <pt x="100" y="677" on="1"/>
      </contour>
      <contour>
        <pt x="171" y="627" on="1"/>
        <pt x="171" y="351" on="1"/>
        <pt x="257" y="353" on="0"/>
        <pt x="306" y="353" on="1"/>
        <pt x="383" y="353" on="0"/>
        <pt x="447" y="432" on="0"/>
        <pt x="447" y="548" on="0"/>
        <pt x="383" y="626" on="0"/>
        <pt x="208" y="626" on="0"/>
      </contour>
    </TTGlyph>
    <TTGlyph name="Racute" xMin="100" yMin="-6" xMax="551" yMax="878">
      <contour>
        <pt x="106" y="683" on="1"/>
        <pt x="306" y="686" on="1"/>
        <pt x="409" y="686" on="0"/>
        <pt x="521" y="581" on="0"/>
        <pt x="521" y="489" on="1"/>
        <pt x="521" y="421" on="0"/>
        <pt x="451" y="325" on="0"/>
        <pt x="389" y="307" on="1"/>
        <pt x="430" y="293" on="0"/>
        <pt x="456" y="227" on="1"/>
        <pt x="509" y="89" on="1"/>
        <pt x="531" y="33" on="0"/>
        <pt x="551" y="18" on="1"/>
        <pt x="537" y="-6" on="0"/>
        <pt x="502" y="-6" on="1"/>
        <pt x="482" y="-6" on="0"/>
        <pt x="461" y="16" on="0"/>
        <pt x="451" y="41" on="1"/>
        <pt x="391" y="197" on="1"/>
        <pt x="373" y="244" on="0"/>
        <pt x="326" y="291" on="0"/>
        <pt x="279" y="291" on="1"/>
        <pt x="171" y="291" on="1"/>
        <pt x="171" y="0" on="1"/>
        <pt x="156" y="-3" on="0"/>
        <pt x="114" y="-3" on="0"/>
        <pt x="100" y="0" on="1"/>
        <pt x="100" y="677" on="1"/>
      </contour>
      <contour>
        <pt x="171" y="627" on="1"/>
        <pt x="171" y="351" on="1"/>
        <pt x="257" y="353" on="0"/>
        <pt x="306" y="353" on="1"/>
        <pt x="383" y="353" on="0"/>
        <pt x="447" y="432" on="0"/>
        <pt x="447" y="548" on="0"/>
        <pt x="383" y="626" on="0"/>
        <pt x="208" y="626" on="0"/>
      </contour>
      <contour>
        <pt x="210" y="768" on="1"/>
        <pt x="398" y="878" on="1"/>
        <pt x="426" y="861" on="0"/>
        <pt x="435" y="815" on="1"/>
        <pt x="232" y="729" on="1"/>
        <pt x="214" y="741" on="0"/>
      </contour>
    </TTGlyph>
    <TTGlyph name="Rcaron" xMin="100" yMin="-6" xMax="551" yMax="879">
      <contour>
        <pt x="106" y="683" on="1"/>
        <pt x="306" y="686" on="1"/>
        <pt x="409" y="686" on="0"/>
        <pt x="521" y="581" on="0"/>
        <pt x="521" y="489" on="1"/>
        <pt x="521" y="421" on="0"/>
        <pt x="451" y="325" on="0"/>
        <pt x="389" y="307" on="1"/>
        <pt x="430" y="293" on="0"/>
        <pt x="456" y="227" on="1"/>
        <pt x="509" y="89" on="1"/>
        <pt x="531" y="33" on="0"/>
        <pt x="551" y="18" on="1"/>
        <pt x="537" y="-6" on="0"/>
        <pt x="502" y="-6" on="1"/>
        <pt x="482" y="-6" on="0"/>
        <pt x="461" y="16" on="0"/>
        <pt x="451" y="41" on="1"/>
        <pt x="391" y="197" on="1"/>
        <pt x="373" y="244" on="0"/>
        <pt x="326" y="291" on="0"/>
        <pt x="279" y="291" on="1"/>
        <pt x="171" y="291" on="1"/>
        <pt x="171" y="0" on="1"/>
        <pt x="156" y="-3" on="0"/>
        <pt x="114" y="-3" on="0"/>
        <pt x="100" y="0" on="1"/>
        <pt x="100" y="677" on="1"/>
      </contour>
      <contour>
        <pt x="171" y="627" on="1"/>
        <pt x="171" y="351" on="1"/>
        <pt x="257" y="353" on="0"/>
        <pt x="306" y="353" on="1"/>
        <pt x="383" y="353" on="0"/>
        <pt x="447" y="432" on="0"/>
        <pt x="447" y="548" on="0"/>
        <pt x="383" y="626" on="0"/>
        <pt x="208" y="626" on="0"/>
      </contour>
      <contour>
        <pt x="186" y="874" on="1"/>
        <pt x="295" y="799" on="1"/>
        <pt x="407" y="879" on="1"/>
        <pt x="432" y="870" on="0"/>
        <pt x="439" y="846" on="1"/>
        <pt x="329" y="739" on="1"/>
        <pt x="308" y="736" on="0"/>
        <pt x="276" y="736" on="0"/>
        <pt x="263" y="739" on="1"/>
        <pt x="152" y="842" on="1"/>
        <pt x="161" y="866" on="0"/>
      </contour>
    </TTGlyph>
    <TTGlyph name="Rcommaaccent" xMin="100" yMin="-244" xMax="551" yMax="686">
      <contour>
        <pt x="106" y="683" on="1"/>
        <pt x="306" y="686" on="1"/>
        <pt x="409" y="686" on="0"/>
        <pt x="521" y="581" on="0"/>
        <pt x="521" y="489" on="1"/>
        <pt x="521" y="421" on="0"/>
        <pt x="451" y="325" on="0"/>
        <pt x="389" y="307" on="1"/>
        <pt x="430" y="293" on="0"/>
        <pt x="456" y="227" on="1"/>
        <pt x="509" y="89" on="1"/>
        <pt x="531" y="33" on="0"/>
        <pt x="551" y="18" on="1"/>
        <pt x="537" y="-6" on="0"/>
        <pt x="502" y="-6" on="1"/>
        <pt x="482" y="-6" on="0"/>
        <pt x="461" y="16" on="0"/>
        <pt x="451" y="41" on="1"/>
        <pt x="391" y="197" on="1"/>
        <pt x="373" y="244" on="0"/>
        <pt x="326" y="291" on="0"/>
        <pt x="279" y="291" on="1"/>
        <pt x="171" y="291" on="1"/>
        <pt x="171" y="0" on="1"/>
        <pt x="156" y="-3" on="0"/>
        <pt x="114" y="-3" on="0"/>
        <pt x="100" y="0" on="1"/>
        <pt x="100" y="677" on="1"/>
      </contour>
      <contour>
        <pt x="171" y="627" on="1"/>
        <pt x="171" y="351" on="1"/>
        <pt x="257" y="353" on="0"/>
        <pt x="306" y="353" on="1"/>
        <pt x="383" y="353" on="0"/>
        <pt x="447" y="432" on="0"/>
        <pt x="447" y="548" on="0"/>
        <pt x="383" y="626" on="0"/>
        <pt x="208" y="626" on="0"/>
      </contour>
      <contour>
        <pt x="347" y="-58" on="1"/>
        <pt x="354" y="-79" on="0"/>
        <pt x="354" y="-103" on="1"/>
        <pt x="354" y="-147" on="0"/>
        <pt x="298" y="-221" on="0"/>
        <pt x="250" y="-244" on="1"/>
        <pt x="232" y="-238" on="0"/>
        <pt x="226" y="-213" on="1"/>
        <pt x="281" y="-174" on="0"/>
        <pt x="281" y="-120" on="1"/>
        <pt x="281" y="-94" on="0"/>
        <pt x="268" y="-68" on="1"/>
        <pt x="291" y="-53" on="0"/>
        <pt x="331" y="-53" on="0"/>
      </contour>
    </TTGlyph>
    <TTGlyph name="S" xMin="40" yMin="-12" xMax="505" yMax="695">
      <contour>
        <pt x="40" y="63" on="1"/>
        <pt x="43" y="97" on="0"/>
        <pt x="74" y="120" on="1"/>
        <pt x="173" y="51" on="0"/>
        <pt x="274" y="51" on="1"/>
        <pt x="346" y="51" on="0"/>
        <pt x="432" y="112" on="0"/>
        <pt x="432" y="165" on="1"/>
        <pt x="432" y="246" on="0"/>
        <pt x="322" y="294" on="1"/>
        <pt x="205" y="345" on="1"/>
        <pt x="72" y="403" on="0"/>
        <pt x="72" y="511" on="1"/>
        <pt x="72" y="588" on="0"/>
        <pt x="189" y="695" on="0"/>
        <pt x="382" y="695" on="0"/>
        <pt x="482" y="647" on="1"/>
        <pt x="484" y="612" on="0"/>
        <pt x="454" y="588" on="1"/>
        <pt x="364" y="634" on="0"/>
        <pt x="225" y="634" on="0"/>
        <pt x="143" y="569" on="0"/>
        <pt x="143" y="517" on="1"/>
        <pt x="143" y="451" on="0"/>
        <pt x="243" y="408" on="1"/>
        <pt x="356" y="359" on="1"/>
        <pt x="505" y="295" on="0"/>
        <pt x="505" y="180" on="1"/>
        <pt x="505" y="93" on="0"/>
        <pt x="386" y="-12" on="0"/>
        <pt x="143" y="-12" on="0"/>
      </contour>
    </TTGlyph>
    <TTGlyph name="Sacute" xMin="40" yMin="-12" xMax="505" yMax="878">
      <contour>
        <pt x="40" y="63" on="1"/>
        <pt x="43" y="97" on="0"/>
        <pt x="74" y="120" on="1"/>
        <pt x="173" y="51" on="0"/>
        <pt x="274" y="51" on="1"/>
        <pt x="346" y="51" on="0"/>
        <pt x="432" y="112" on="0"/>
        <pt x="432" y="165" on="1"/>
        <pt x="432" y="246" on="0"/>
        <pt x="322" y="294" on="1"/>
        <pt x="205" y="345" on="1"/>
        <pt x="72" y="403" on="0"/>
        <pt x="72" y="511" on="1"/>
        <pt x="72" y="588" on="0"/>
        <pt x="189" y="695" on="0"/>
        <pt x="382" y="695" on="0"/>
        <pt x="482" y="647" on="1"/>
        <pt x="484" y="612" on="0"/>
        <pt x="454" y="588" on="1"/>
        <pt x="364" y="634" on="0"/>
        <pt x="225" y="634" on="0"/>
        <pt x="143" y="569" on="0"/>
        <pt x="143" y="517" on="1"/>
        <pt x="143" y="451" on="0"/>
        <pt x="243" y="408" on="1"/>
        <pt x="356" y="359" on="1"/>
        <pt x="505" y="295" on="0"/>
        <pt x="505" y="180" on="1"/>
        <pt x="505" y="93" on="0"/>
        <pt x="386" y="-12" on="0"/>
        <pt x="143" y="-12" on="0"/>
      </contour>
      <contour>
        <pt x="203" y="768" on="1"/>
        <pt x="391" y="878" on="1"/>
        <pt x="419" y="861" on="0"/>
        <pt x="428" y="815" on="1"/>
        <pt x="225" y="729" on="1"/>
        <pt x="207" y="741" on="0"/>
      </contour>
    </TTGlyph>
    <TTGlyph name="Scaron" xMin="40" yMin="-12" xMax="505" yMax="879">
      <contour>
        <pt x="40" y="63" on="1"/>
        <pt x="43" y="97" on="0"/>
        <pt x="74" y="120" on="1"/>
        <pt x="173" y="51" on="0"/>
        <pt x="274" y="51" on="1"/>
        <pt x="346" y="51" on="0"/>
        <pt x="432" y="112" on="0"/>
        <pt x="432" y="165" on="1"/>
        <pt x="432" y="246" on="0"/>
        <pt x="322" y="294" on="1"/>
        <pt x="205" y="345" on="1"/>
        <pt x="72" y="403" on="0"/>
        <pt x="72" y="511" on="1"/>
        <pt x="72" y="588" on="0"/>
        <pt x="189" y="695" on="0"/>
        <pt x="382" y="695" on="0"/>
        <pt x="482" y="647" on="1"/>
        <pt x="484" y="612" on="0"/>
        <pt x="454" y="588" on="1"/>
        <pt x="364" y="634" on="0"/>
        <pt x="225" y="634" on="0"/>
        <pt x="143" y="569" on="0"/>
        <pt x="143" y="517" on="1"/>
        <pt x="143" y="451" on="0"/>
        <pt x="243" y="408" on="1"/>
        <pt x="356" y="359" on="1"/>
        <pt x="505" y="295" on="0"/>
        <pt x="505" y="180" on="1"/>
        <pt x="505" y="93" on="0"/>
        <pt x="386" y="-12" on="0"/>
        <pt x="143" y="-12" on="0"/>
      </contour>
      <contour>
        <pt x="179" y="874" on="1"/>
        <pt x="288" y="799" on="1"/>
        <pt x="400" y="879" on="1"/>
        <pt x="425" y="870" on="0"/>
        <pt x="432" y="846" on="1"/>
        <pt x="322" y="739" on="1"/>
        <pt x="302" y="736" on="0"/>
        <pt x="269" y="736" on="0"/>
        <pt x="256" y="739" on="1"/>
        <pt x="145" y="842" on="1"/>
        <pt x="154" y="866" on="0"/>
      </contour>
    </TTGlyph>
    <TTGlyph name="T" xMin="19" yMin="-3" xMax="463" yMax="683">
      <contour>
        <pt x="330" y="622" on="1"/>
        <pt x="276" y="623" on="1"/>
        <pt x="276" y="0" on="1"/>
        <pt x="261" y="-3" on="0"/>
        <pt x="220" y="-3" on="0"/>
        <pt x="205" y="0" on="1"/>
        <pt x="205" y="623" on="1"/>
        <pt x="152" y="622" on="1"/>
        <pt x="22" y="622" on="1"/>
        <pt x="19" y="637" on="0"/>
        <pt x="19" y="666" on="0"/>
        <pt x="22" y="683" on="1"/>
        <pt x="458" y="683" on="1"/>
        <pt x="463" y="668" on="0"/>
        <pt x="463" y="654" on="1"/>
        <pt x="463" y="622" on="0"/>
        <pt x="420" y="622" on="1"/>
      </contour>
    </TTGlyph>
    <TTGlyph name="Tcaron" xMin="19" yMin="-3" xMax="463" yMax="879">
      <contour>
        <pt x="330" y="622" on="1"/>
        <pt x="276" y="623" on="1"/>
        <pt x="276" y="0" on="1"/>
        <pt x="261" y="-3" on="0"/>
        <pt x="220" y="-3" on="0"/>
        <pt x="205" y="0" on="1"/>
        <pt x="205" y="623" on="1"/>
        <pt x="152" y="622" on="1"/>
        <pt x="22" y="622" on="1"/>
        <pt x="19" y="637" on="0"/>
        <pt x="19" y="666" on="0"/>
        <pt x="22" y="683" on="1"/>
        <pt x="458" y="683" on="1"/>
        <pt x="463" y="668" on="0"/>
        <pt x="463" y="654" on="1"/>
        <pt x="463" y="622" on="0"/>
        <pt x="420" y="622" on="1"/>
      </contour>
      <contour>
        <pt x="131" y="874" on="1"/>
        <pt x="240" y="799" on="1"/>
        <pt x="352" y="879" on="1"/>
        <pt x="377" y="870" on="0"/>
        <pt x="384" y="846" on="1"/>
        <pt x="274" y="739" on="1"/>
        <pt x="254" y="736" on="0"/>
        <pt x="221" y="736" on="0"/>
        <pt x="208" y="739" on="1"/>
        <pt x="97" y="842" on="1"/>
        <pt x="106" y="866" on="0"/>
      </contour>
    </TTGlyph>
    <TTGlyph name="Thorn" xMin="100" yMin="-3" xMax="511" yMax="686">
      <contour>
        <pt x="100" y="0" on="1"/>
        <pt x="100" y="683" on="1"/>
        <pt x="113" y="686" on="0"/>
        <pt x="156" y="686" on="0"/>
        <pt x="171" y="683" on="1"/>
        <pt x="171" y="575" on="1"/>
        <pt x="288" y="578" on="0"/>
        <pt x="293" y="578" on="1"/>
        <pt x="391" y="578" on="0"/>
        <pt x="511" y="468" on="0"/>
        <pt x="511" y="263" on="0"/>
        <pt x="392" y="151" on="0"/>
        <pt x="293" y="151" on="1"/>
        <pt x="171" y="151" on="1"/>
        <pt x="171" y="0" on="1"/>
        <pt x="156" y="-3" on="0"/>
        <pt x="114" y="-3" on="0"/>
      </contour>
      <contour>
        <pt x="436" y="428" on="0"/>
        <pt x="372" y="518" on="0"/>
        <pt x="214" y="518" on="0"/>
        <pt x="171" y="519" on="1"/>
        <pt x="171" y="210" on="1"/>
        <pt x="213" y="211" on="0"/>
        <pt x="296" y="211" on="1"/>
        <pt x="377" y="211" on="0"/>
        <pt x="408" y="263" on="1"/>
        <pt x="436" y="309" on="0"/>
      </contour>
    </TTGlyph>
    <TTGlyph name="U" xMin="92" yMin="-12" xMax="573" yMax="686">
      <contour>
        <pt x="573" y="683" on="1"/>
        <pt x="573" y="232" on="1"/>
        <pt x="573" y="113" on="0"/>
        <pt x="441" y="-12" on="0"/>
        <pt x="224" y="-12" on="0"/>
        <pt x="92" y="114" on="0"/>
        <pt x="92" y="232" on="1"/>
        <pt x="92" y="680" on="1"/>
        <pt x="98" y="686" on="1"/>
        <pt x="127" y="686" on="1"/>
        <pt x="149" y="686" on="0"/>
        <pt x="163" y="665" on="0"/>
        <pt x="163" y="640" on="1"/>
        <pt x="163" y="233" on="1"/>
        <pt x="163" y="143" on="0"/>
        <pt x="252" y="47" on="0"/>
        <pt x="414" y="47" on="0"/>
        <pt x="503" y="143" on="0"/>
        <pt x="503" y="233" on="1"/>
        <pt x="503" y="683" on="1"/>
        <pt x="517" y="686" on="0"/>
        <pt x="560" y="686" on="0"/>
      </contour>
    </TTGlyph>
    <TTGlyph name="Uacute" xMin="92" yMin="-12" xMax="573" yMax="878">
      <contour>
        <pt x="573" y="683" on="1"/>
        <pt x="573" y="232" on="1"/>
        <pt x="573" y="113" on="0"/>
        <pt x="441" y="-12" on="0"/>
        <pt x="224" y="-12" on="0"/>
        <pt x="92" y="114" on="0"/>
        <pt x="92" y="232" on="1"/>
        <pt x="92" y="680" on="1"/>
        <pt x="98" y="686" on="1"/>
        <pt x="127" y="686" on="1"/>
        <pt x="149" y="686" on="0"/>
        <pt x="163" y="665" on="0"/>
        <pt x="163" y="640" on="1"/>
        <pt x="163" y="233" on="1"/>
        <pt x="163" y="143" on="0"/>
        <pt x="252" y="47" on="0"/>
        <pt x="414" y="47" on="0"/>
        <pt x="503" y="143" on="0"/>
        <pt x="503" y="233" on="1"/>
        <pt x="503" y="683" on="1"/>
        <pt x="517" y="686" on="0"/>
        <pt x="560" y="686" on="0"/>
      </contour>
      <contour>
        <pt x="248" y="768" on="1"/>
        <pt x="436" y="878" on="1"/>
        <pt x="464" y="861" on="0"/>
        <pt x="473" y="815" on="1"/>
        <pt x="270" y="729" on="1"/>
        <pt x="252" y="741" on="0"/>
      </contour>
    </TTGlyph>
    <TTGlyph name="Ucircumflex" xMin="92" yMin="-12" xMax="573" yMax="876">
      <contour>
        <pt x="573" y="683" on="1"/>
        <pt x="573" y="232" on="1"/>
        <pt x="573" y="113" on="0"/>
        <pt x="441" y="-12" on="0"/>
        <pt x="224" y="-12" on="0"/>
        <pt x="92" y="114" on="0"/>
        <pt x="92" y="232" on="1"/>
        <pt x="92" y="680" on="1"/>
        <pt x="98" y="686" on="1"/>
        <pt x="127" y="686" on="1"/>
        <pt x="149" y="686" on="0"/>
        <pt x="163" y="665" on="0"/>
        <pt x="163" y="640" on="1"/>
        <pt x="163" y="233" on="1"/>
        <pt x="163" y="143" on="0"/>
        <pt x="252" y="47" on="0"/>
        <pt x="414" y="47" on="0"/>
        <pt x="503" y="143" on="0"/>
        <pt x="503" y="233" on="1"/>
        <pt x="503" y="683" on="1"/>
        <pt x="517" y="686" on="0"/>
        <pt x="560" y="686" on="0"/>
      </contour>
      <contour>
        <pt x="442" y="738" on="1"/>
        <pt x="333" y="813" on="1"/>
        <pt x="221" y="733" on="1"/>
        <pt x="196" y="742" on="0"/>
        <pt x="189" y="767" on="1"/>
        <pt x="300" y="873" on="1"/>
        <pt x="316" y="876" on="0"/>
        <pt x="349" y="876" on="0"/>
        <pt x="366" y="873" on="1"/>
        <pt x="476" y="771" on="1"/>
        <pt x="469" y="746" on="0"/>
      </contour>
    </TTGlyph>
    <TTGlyph name="Udieresis" xMin="92" yMin="-12" xMax="573" yMax="823">
      <contour>
        <pt x="573" y="683" on="1"/>
        <pt x="573" y="232" on="1"/>
        <pt x="573" y="113" on="0"/>
        <pt x="441" y="-12" on="0"/>
        <pt x="224" y="-12" on="0"/>
        <pt x="92" y="114" on="0"/>
        <pt x="92" y="232" on="1"/>
        <pt x="92" y="680" on="1"/>
        <pt x="98" y="686" on="1"/>
        <pt x="127" y="686" on="1"/>
        <pt x="149" y="686" on="0"/>
        <pt x="163" y="665" on="0"/>
        <pt x="163" y="640" on="1"/>
        <pt x="163" y="233" on="1"/>
        <pt x="163" y="143" on="0"/>
        <pt x="252" y="47" on="0"/>
        <pt x="414" y="47" on="0"/>
        <pt x="503" y="143" on="0"/>
        <pt x="503" y="233" on="1"/>
        <pt x="503" y="683" on="1"/>
        <pt x="517" y="686" on="0"/>
        <pt x="560" y="686" on="0"/>
      </contour>
      <contour>
        <pt x="391" y="815" on="1"/>
        <pt x="404" y="823" on="0"/>
        <pt x="455" y="823" on="0"/>
        <pt x="471" y="815" on="1"/>
        <pt x="477" y="795" on="0"/>
        <pt x="477" y="764" on="0"/>
        <pt x="471" y="745" on="1"/>
        <pt x="458" y="737" on="0"/>
        <pt x="402" y="737" on="0"/>
        <pt x="391" y="745" on="1"/>
        <pt x="384" y="763" on="0"/>
        <pt x="384" y="797" on="0"/>
      </contour>
      <contour>
        <pt x="195" y="815" on="1"/>
        <pt x="211" y="823" on="0"/>
        <pt x="262" y="823" on="0"/>
        <pt x="275" y="815" on="1"/>
        <pt x="282" y="797" on="0"/>
        <pt x="282" y="763" on="0"/>
        <pt x="275" y="745" on="1"/>
        <pt x="264" y="737" on="0"/>
        <pt x="208" y="737" on="0"/>
        <pt x="195" y="745" on="1"/>
        <pt x="189" y="764" on="0"/>
        <pt x="189" y="796" on="0"/>
      </contour>
    </TTGlyph>
    <TTGlyph name="Ugrave" xMin="92" yMin="-12" xMax="573" yMax="878">
      <contour>
        <pt x="573" y="683" on="1"/>
        <pt x="573" y="232" on="1"/>
        <pt x="573" y="113" on="0"/>
        <pt x="441" y="-12" on="0"/>
        <pt x="224" y="-12" on="0"/>
        <pt x="92" y="114" on="0"/>
        <pt x="92" y="232" on="1"/>
        <pt x="92" y="680" on="1"/>
        <pt x="98" y="686" on="1"/>
        <pt x="127" y="686" on="1"/>
        <pt x="149" y="686" on="0"/>
        <pt x="163" y="665" on="0"/>
        <pt x="163" y="640" on="1"/>
        <pt x="163" y="233" on="1"/>
        <pt x="163" y="143" on="0"/>
        <pt x="252" y="47" on="0"/>
        <pt x="414" y="47" on="0"/>
        <pt x="503" y="143" on="0"/>
        <pt x="503" y="233" on="1"/>
        <pt x="503" y="683" on="1"/>
        <pt x="517" y="686" on="0"/>
        <pt x="560" y="686" on="0"/>
      </contour>
      <contour>
        <pt x="245" y="878" on="1"/>
        <pt x="433" y="768" on="1"/>
        <pt x="426" y="739" on="0"/>
        <pt x="411" y="729" on="1"/>
        <pt x="208" y="815" on="1"/>
        <pt x="217" y="861" on="0"/>
      </contour>
    </TTGlyph>
    <TTGlyph name="Uring" xMin="92" yMin="-12" xMax="573" yMax="879">
      <contour>
        <pt x="573" y="683" on="1"/>
        <pt x="573" y="232" on="1"/>
        <pt x="573" y="113" on="0"/>
        <pt x="441" y="-12" on="0"/>
        <pt x="224" y="-12" on="0"/>
        <pt x="92" y="114" on="0"/>
        <pt x="92" y="232" on="1"/>
        <pt x="92" y="680" on="1"/>
        <pt x="98" y="686" on="1"/>
        <pt x="127" y="686" on="1"/>
        <pt x="149" y="686" on="0"/>
        <pt x="163" y="665" on="0"/>
        <pt x="163" y="640" on="1"/>
        <pt x="163" y="233" on="1"/>
        <pt x="163" y="143" on="0"/>
        <pt x="252" y="47" on="0"/>
        <pt x="414" y="47" on="0"/>
        <pt x="503" y="143" on="0"/>
        <pt x="503" y="233" on="1"/>
        <pt x="503" y="683" on="1"/>
        <pt x="517" y="686" on="0"/>
        <pt x="560" y="686" on="0"/>
      </contour>
      <contour>
        <pt x="226" y="733" on="0"/>
        <pt x="226" y="819" on="0"/>
        <pt x="287" y="879" on="0"/>
        <pt x="379" y="879" on="0"/>
        <pt x="440" y="819" on="0"/>
        <pt x="440" y="733" on="0"/>
        <pt x="379" y="672" on="0"/>
        <pt x="287" y="672" on="0"/>
      </contour>
      <contour>
        <pt x="282" y="801" on="0"/>
        <pt x="282" y="751" on="0"/>
        <pt x="311" y="719" on="0"/>
        <pt x="355" y="719" on="0"/>
        <pt x="384" y="751" on="0"/>
        <pt x="384" y="801" on="0"/>
        <pt x="355" y="833" on="0"/>
        <pt x="311" y="833" on="0"/>
      </contour>
    </TTGlyph>
    <TTGlyph name="V" xMin="28" yMin="-4" xMax="531" yMax="689">
      <contour>
        <pt x="289" y="70" on="1"/>
        <pt x="465" y="683" on="1"/>
        <pt x="477" y="686" on="0"/>
        <pt x="512" y="686" on="0"/>
        <pt x="528" y="682" on="1"/>
        <pt x="531" y="676" on="1"/>
        <pt x="326" y="-1" on="1"/>
        <pt x="297" y="-4" on="0"/>
        <pt x="254" y="-4" on="0"/>
        <pt x="231" y="10" on="0"/>
        <pt x="224" y="33" on="1"/>
        <pt x="28" y="677" on="1"/>
        <pt x="52" y="689" on="0"/>
        <pt x="72" y="689" on="1"/>
        <pt x="102" y="689" on="0"/>
        <pt x="112" y="655" on="1"/>
        <pt x="233" y="244" on="1"/>
        <pt x="243" y="210" on="0"/>
        <pt x="281" y="78" on="1"/>
        <pt x="283" y="70" on="0"/>
      </contour>
    </TTGlyph>
    <TTGlyph name="W" xMin="40" yMin="-4" xMax="781" yMax="689">
      <contour>
        <pt x="171" y="36" on="1"/>
        <pt x="40" y="680" on="1"/>
        <pt x="59" y="689" on="0"/>
        <pt x="82" y="689" on="1"/>
        <pt x="111" y="689" on="0"/>
        <pt x="118" y="652" on="1"/>
        <pt x="194" y="259" on="1"/>
        <pt x="226" y="89" on="0"/>
        <pt x="231" y="61" on="0"/>
        <pt x="234" y="58" on="0"/>
        <pt x="238" y="58" on="1"/>
        <pt x="364" y="668" on="1"/>
        <pt x="385" y="671" on="0"/>
        <pt x="443" y="671" on="0"/>
        <pt x="457" y="668" on="1"/>
        <pt x="573" y="68" on="1"/>
        <pt x="575" y="58" on="0"/>
        <pt x="581" y="58" on="1"/>
        <pt x="594" y="135" on="0"/>
        <pt x="620" y="259" on="1"/>
        <pt x="711" y="683" on="1"/>
        <pt x="723" y="686" on="0"/>
        <pt x="764" y="686" on="0"/>
        <pt x="777" y="682" on="1"/>
        <pt x="781" y="677" on="1"/>
        <pt x="631" y="1" on="1"/>
        <pt x="607" y="-4" on="0"/>
        <pt x="526" y="-4" on="0"/>
        <pt x="519" y="34" on="1"/>
        <pt x="413" y="593" on="1"/>
        <pt x="407" y="593" on="1"/>
        <pt x="373" y="415" on="0"/>
        <pt x="356" y="337" on="1"/>
        <pt x="284" y="0" on="1"/>
        <pt x="260" y="-4" on="0"/>
        <pt x="179" y="-4" on="0"/>
      </contour>
    </TTGlyph>
    <TTGlyph name="X" xMin="24" yMin="-6" xMax="544" yMax="689">
      <contour>
        <pt x="453" y="683" on="1"/>
        <pt x="463" y="687" on="0"/>
        <pt x="507" y="687" on="0"/>
        <pt x="519" y="680" on="1"/>
        <pt x="522" y="674" on="1"/>
        <pt x="328" y="363" on="1"/>
        <pt x="544" y="11" on="1"/>
        <pt x="521" y="-6" on="0"/>
        <pt x="471" y="-6" on="0"/>
        <pt x="452" y="24" on="1"/>
        <pt x="280" y="303" on="1"/>
        <pt x="95" y="0" on="1"/>
        <pt x="85" y="-4" on="0"/>
        <pt x="39" y="-4" on="0"/>
        <pt x="27" y="3" on="1"/>
        <pt x="24" y="9" on="1"/>
        <pt x="244" y="361" on="1"/>
        <pt x="53" y="672" on="1"/>
        <pt x="76" y="689" on="0"/>
        <pt x="127" y="689" on="0"/>
        <pt x="146" y="659" on="1"/>
        <pt x="292" y="420" on="1"/>
      </contour>
    </TTGlyph>
    <TTGlyph name="Y" xMin="16" yMin="-3" xMax="463" yMax="690">
      <contour>
        <pt x="246" y="302" on="1"/>
        <pt x="254" y="330" on="0"/>
        <pt x="287" y="414" on="1"/>
        <pt x="394" y="683" on="1"/>
        <pt x="407" y="687" on="0"/>
        <pt x="442" y="687" on="0"/>
        <pt x="460" y="682" on="1"/>
        <pt x="463" y="676" on="1"/>
        <pt x="275" y="223" on="1"/>
        <pt x="275" y="0" on="1"/>
        <pt x="260" y="-3" on="0"/>
        <pt x="218" y="-3" on="0"/>
        <pt x="204" y="0" on="1"/>
        <pt x="204" y="226" on="1"/>
        <pt x="16" y="675" on="1"/>
        <pt x="42" y="690" on="0"/>
        <pt x="88" y="690" on="0"/>
        <pt x="102" y="655" on="1"/>
        <pt x="202" y="414" on="1"/>
        <pt x="220" y="373" on="0"/>
        <pt x="242" y="302" on="1"/>
      </contour>
    </TTGlyph>
    <TTGlyph name="Yacute" xMin="16" yMin="-3" xMax="463" yMax="878">
      <contour>
        <pt x="246" y="302" on="1"/>
        <pt x="254" y="330" on="0"/>
        <pt x="287" y="414" on="1"/>
        <pt x="394" y="683" on="1"/>
        <pt x="407" y="687" on="0"/>
        <pt x="442" y="687" on="0"/>
        <pt x="460" y="682" on="1"/>
        <pt x="463" y="676" on="1"/>
        <pt x="275" y="223" on="1"/>
        <pt x="275" y="0" on="1"/>
        <pt x="260" y="-3" on="0"/>
        <pt x="218" y="-3" on="0"/>
        <pt x="204" y="0" on="1"/>
        <pt x="204" y="226" on="1"/>
        <pt x="16" y="675" on="1"/>
        <pt x="42" y="690" on="0"/>
        <pt x="88" y="690" on="0"/>
        <pt x="102" y="655" on="1"/>
        <pt x="202" y="414" on="1"/>
        <pt x="220" y="373" on="0"/>
        <pt x="242" y="302" on="1"/>
      </contour>
      <contour>
        <pt x="158" y="768" on="1"/>
        <pt x="346" y="878" on="1"/>
        <pt x="374" y="861" on="0"/>
        <pt x="383" y="815" on="1"/>
        <pt x="180" y="729" on="1"/>
        <pt x="162" y="741" on="0"/>
      </contour>
    </TTGlyph>
    <TTGlyph name="Ydieresis" xMin="16" yMin="-3" xMax="463" yMax="823">
      <contour>
        <pt x="246" y="302" on="1"/>
        <pt x="254" y="330" on="0"/>
        <pt x="287" y="414" on="1"/>
        <pt x="394" y="683" on="1"/>
        <pt x="407" y="687" on="0"/>
        <pt x="442" y="687" on="0"/>
        <pt x="460" y="682" on="1"/>
        <pt x="463" y="676" on="1"/>
        <pt x="275" y="223" on="1"/>
        <pt x="275" y="0" on="1"/>
        <pt x="260" y="-3" on="0"/>
        <pt x="218" y="-3" on="0"/>
        <pt x="204" y="0" on="1"/>
        <pt x="204" y="226" on="1"/>
        <pt x="16" y="675" on="1"/>
        <pt x="42" y="690" on="0"/>
        <pt x="88" y="690" on="0"/>
        <pt x="102" y="655" on="1"/>
        <pt x="202" y="414" on="1"/>
        <pt x="220" y="373" on="0"/>
        <pt x="242" y="302" on="1"/>
      </contour>
      <contour>
        <pt x="301" y="815" on="1"/>
        <pt x="314" y="823" on="0"/>
        <pt x="365" y="823" on="0"/>
        <pt x="381" y="815" on="1"/>
        <pt x="387" y="795" on="0"/>
        <pt x="387" y="764" on="0"/>
        <pt x="381" y="745" on="1"/>
        <pt x="368" y="737" on="0"/>
        <pt x="312" y="737" on="0"/>
        <pt x="301" y="745" on="1"/>
        <pt x="294" y="763" on="0"/>
        <pt x="294" y="797" on="0"/>
      </contour>
      <contour>
        <pt x="105" y="815" on="1"/>
        <pt x="121" y="823" on="0"/>
        <pt x="172" y="823" on="0"/>
        <pt x="185" y="815" on="1"/>
        <pt x="192" y="797" on="0"/>
        <pt x="192" y="763" on="0"/>
        <pt x="185" y="745" on="1"/>
        <pt x="174" y="737" on="0"/>
        <pt x="118" y="737" on="0"/>
        <pt x="105" y="745" on="1"/>
        <pt x="99" y="764" on="0"/>
        <pt x="99" y="796" on="0"/>
      </contour>
    </TTGlyph>
    <TTGlyph name="Z" xMin="54" yMin="0" xMax="496" yMax="683">
      <contour>
        <pt x="65" y="85" on="1"/>
        <pt x="338" y="513" on="1"/>
        <pt x="344" y="522" on="0"/>
        <pt x="415" y="624" on="1"/>
        <pt x="412" y="627" on="1"/>
        <pt x="380" y="620" on="0"/>
        <pt x="255" y="620" on="1"/>
        <pt x="82" y="620" on="1"/>
        <pt x="79" y="632" on="0"/>
        <pt x="79" y="664" on="0"/>
        <pt x="85" y="683" on="1"/>
        <pt x="478" y="683" on="1"/>
        <pt x="488" y="647" on="0"/>
        <pt x="488" y="620" on="0"/>
        <pt x="476" y="600" on="1"/>
        <pt x="207" y="178" on="1"/>
        <pt x="202" y="170" on="0"/>
        <pt x="128" y="62" on="1"/>
        <pt x="131" y="59" on="1"/>
        <pt x="184" y="64" on="0"/>
        <pt x="232" y="64" on="1"/>
        <pt x="368" y="64" on="1"/>
        <pt x="454" y="64" on="0"/>
        <pt x="489" y="80" on="1"/>
        <pt x="496" y="59" on="0"/>
        <pt x="496" y="42" on="1"/>
        <pt x="496" y="0" on="0"/>
        <pt x="443" y="0" on="1"/>
        <pt x="65" y="0" on="1"/>
        <pt x="54" y="33" on="0"/>
        <pt x="54" y="67" on="0"/>
      </contour>
    </TTGlyph>
    <TTGlyph name="Zacute" xMin="54" yMin="0" xMax="496" yMax="878">
      <contour>
        <pt x="65" y="85" on="1"/>
        <pt x="338" y="513" on="1"/>
        <pt x="344" y="522" on="0"/>
        <pt x="415" y="624" on="1"/>
        <pt x="412" y="627" on="1"/>
        <pt x="380" y="620" on="0"/>
        <pt x="255" y="620" on="1"/>
        <pt x="82" y="620" on="1"/>
        <pt x="79" y="632" on="0"/>
        <pt x="79" y="664" on="0"/>
        <pt x="85" y="683" on="1"/>
        <pt x="478" y="683" on="1"/>
        <pt x="488" y="647" on="0"/>
        <pt x="488" y="620" on="0"/>
        <pt x="476" y="600" on="1"/>
        <pt x="207" y="178" on="1"/>
        <pt x="202" y="170" on="0"/>
        <pt x="128" y="62" on="1"/>
        <pt x="131" y="59" on="1"/>
        <pt x="184" y="64" on="0"/>
        <pt x="232" y="64" on="1"/>
        <pt x="368" y="64" on="1"/>
        <pt x="454" y="64" on="0"/>
        <pt x="489" y="80" on="1"/>
        <pt x="496" y="59" on="0"/>
        <pt x="496" y="42" on="1"/>
        <pt x="496" y="0" on="0"/>
        <pt x="443" y="0" on="1"/>
        <pt x="65" y="0" on="1"/>
        <pt x="54" y="33" on="0"/>
        <pt x="54" y="67" on="0"/>
      </contour>
      <contour>
        <pt x="196" y="768" on="1"/>
        <pt x="384" y="878" on="1"/>
        <pt x="412" y="861" on="0"/>
        <pt x="421" y="815" on="1"/>
        <pt x="218" y="729" on="1"/>
        <pt x="200" y="741" on="0"/>
      </contour>
    </TTGlyph>
    <TTGlyph name="Zcaron" xMin="54" yMin="0" xMax="496" yMax="879">
      <contour>
        <pt x="65" y="85" on="1"/>
        <pt x="338" y="513" on="1"/>
        <pt x="344" y="522" on="0"/>
        <pt x="415" y="624" on="1"/>
        <pt x="412" y="627" on="1"/>
        <pt x="380" y="620" on="0"/>
        <pt x="255" y="620" on="1"/>
        <pt x="82" y="620" on="1"/>
        <pt x="79" y="632" on="0"/>
        <pt x="79" y="664" on="0"/>
        <pt x="85" y="683" on="1"/>
        <pt x="478" y="683" on="1"/>
        <pt x="488" y="647" on="0"/>
        <pt x="488" y="620" on="0"/>
        <pt x="476" y="600" on="1"/>
        <pt x="207" y="178" on="1"/>
        <pt x="202" y="170" on="0"/>
        <pt x="128" y="62" on="1"/>
        <pt x="131" y="59" on="1"/>
        <pt x="184" y="64" on="0"/>
        <pt x="232" y="64" on="1"/>
        <pt x="368" y="64" on="1"/>
        <pt x="454" y="64" on="0"/>
        <pt x="489" y="80" on="1"/>
        <pt x="496" y="59" on="0"/>
        <pt x="496" y="42" on="1"/>
        <pt x="496" y="0" on="0"/>
        <pt x="443" y="0" on="1"/>
        <pt x="65" y="0" on="1"/>
        <pt x="54" y="33" on="0"/>
        <pt x="54" y="67" on="0"/>
      </contour>
      <contour>
        <pt x="172" y="874" on="1"/>
        <pt x="281" y="799" on="1"/>
        <pt x="393" y="879" on="1"/>
        <pt x="418" y="870" on="0"/>
        <pt x="425" y="846" on="1"/>
        <pt x="315" y="739" on="1"/>
        <pt x="294" y="736" on="0"/>
        <pt x="262" y="736" on="0"/>
        <pt x="249" y="739" on="1"/>
        <pt x="138" y="842" on="1"/>
        <pt x="147" y="866" on="0"/>
      </contour>
    </TTGlyph>
    <TTGlyph name="Zdotaccent" xMin="54" yMin="0" xMax="496" yMax="835">
      <contour>
        <pt x="65" y="85" on="1"/>
        <pt x="338" y="513" on="1"/>
        <pt x="344" y="522" on="0"/>
        <pt x="415" y="624" on="1"/>
        <pt x="412" y="627" on="1"/>
        <pt x="380" y="620" on="0"/>
        <pt x="255" y="620" on="1"/>
        <pt x="82" y="620" on="1"/>
        <pt x="79" y="632" on="0"/>
        <pt x="79" y="664" on="0"/>
        <pt x="85" y="683" on="1"/>
        <pt x="478" y="683" on="1"/>
        <pt x="488" y="647" on="0"/>
        <pt x="488" y="620" on="0"/>
        <pt x="476" y="600" on="1"/>
        <pt x="207" y="178" on="1"/>
        <pt x="202" y="170" on="0"/>
        <pt x="128" y="62" on="1"/>
        <pt x="131" y="59" on="1"/>
        <pt x="184" y="64" on="0"/>
        <pt x="232" y="64" on="1"/>
        <pt x="368" y="64" on="1"/>
        <pt x="454" y="64" on="0"/>
        <pt x="489" y="80" on="1"/>
        <pt x="496" y="59" on="0"/>
        <pt x="496" y="42" on="1"/>
        <pt x="496" y="0" on="0"/>
        <pt x="443" y="0" on="1"/>
        <pt x="65" y="0" on="1"/>
        <pt x="54" y="33" on="0"/>
        <pt x="54" y="67" on="0"/>
      </contour>
      <contour>
        <pt x="239" y="754" on="1"/>
        <pt x="232" y="768" on="0"/>
        <pt x="232" y="811" on="0"/>
        <pt x="239" y="825" on="1"/>
        <pt x="252" y="835" on="0"/>
        <pt x="311" y="835" on="0"/>
        <pt x="323" y="825" on="1"/>
        <pt x="330" y="811" on="0"/>
        <pt x="330" y="768" on="0"/>
        <pt x="323" y="754" on="1"/>
        <pt x="313" y="744" on="0"/>
        <pt x="252" y="744" on="0"/>
      </contour>
    </TTGlyph>
    <TTGlyph name="a" xMin="52" yMin="-12" xMax="445" yMax="500">
      <contour>
        <pt x="445" y="28" on="1"/>
        <pt x="435" y="3" on="0"/>
        <pt x="413" y="-7" on="1"/>
        <pt x="365" y="12" on="0"/>
        <pt x="355" y="65" on="1"/>
        <pt x="278" y="-12" on="0"/>
        <pt x="196" y="-12" on="1"/>
        <pt x="128" y="-12" on="0"/>
        <pt x="52" y="75" on="0"/>
        <pt x="52" y="133" on="1"/>
        <pt x="52" y="213" on="0"/>
        <pt x="152" y="293" on="0"/>
        <pt x="239" y="293" on="1"/>
        <pt x="298" y="293" on="0"/>
        <pt x="352" y="283" on="1"/>
        <pt x="352" y="336" on="1"/>
        <pt x="352" y="441" on="0"/>
        <pt x="259" y="441" on="1"/>
        <pt x="188" y="441" on="0"/>
        <pt x="95" y="399" on="1"/>
        <pt x="85" y="407" on="0"/>
        <pt x="70" y="439" on="0"/>
        <pt x="70" y="453" on="1"/>
        <pt x="175" y="500" on="0"/>
        <pt x="264" y="500" on="1"/>
        <pt x="417" y="500" on="0"/>
        <pt x="417" y="334" on="1"/>
        <pt x="417" y="128" on="1"/>
        <pt x="417" y="55" on="0"/>
      </contour>
      <contour>
        <pt x="122" y="98" on="0"/>
        <pt x="165" y="47" on="0"/>
        <pt x="241" y="47" on="0"/>
        <pt x="321" y="91" on="0"/>
        <pt x="352" y="133" on="1"/>
        <pt x="352" y="232" on="1"/>
        <pt x="296" y="240" on="0"/>
        <pt x="185" y="240" on="0"/>
        <pt x="122" y="186" on="0"/>
      </contour>
    </TTGlyph>
    <TTGlyph name="a.smcp" xMin="19" yMin="-6" xMax="504" yMax="546">
      <contour>
        <pt x="381" y="139" on="1"/>
        <pt x="320" y="138" on="1"/>
        <pt x="203" y="138" on="1"/>
        <pt x="135" y="139" on="1"/>
        <pt x="84" y="-1" on="1"/>
        <pt x="70" y="-4" on="0"/>
        <pt x="34" y="-4" on="0"/>
        <pt x="21" y="1" on="1"/>
        <pt x="19" y="4" on="1"/>
        <pt x="221" y="542" on="1"/>
        <pt x="235" y="546" on="0"/>
        <pt x="289" y="546" on="0"/>
        <pt x="301" y="542" on="1"/>
        <pt x="504" y="3" on="1"/>
        <pt x="488" y="-6" on="0"/>
        <pt x="446" y="-6" on="0"/>
        <pt x="429" y="9" on="0"/>
        <pt x="421" y="31" on="1"/>
      </contour>
      <contour>
        <pt x="157" y="197" on="1"/>
        <pt x="212" y="198" on="1"/>
        <pt x="311" y="198" on="1"/>
        <pt x="313" y="198" on="0"/>
        <pt x="353" y="197" on="0"/>
        <pt x="360" y="197" on="1"/>
        <pt x="310" y="333" on="1"/>
        <pt x="281" y="411" on="0"/>
        <pt x="260" y="478" on="1"/>
        <pt x="256" y="478" on="1"/>
        <pt x="237" y="412" on="0"/>
        <pt x="219" y="365" on="1"/>
      </contour>
    </TTGlyph>
    <TTGlyph name="aacute" xMin="52" yMin="-12" xMax="445" yMax="718">
      <contour>
        <pt x="445" y="28" on="1"/>
        <pt x="435" y="3" on="0"/>
        <pt x="413" y="-7" on="1"/>
        <pt x="365" y="12" on="0"/>
        <pt x="355" y="65" on="1"/>
        <pt x="278" y="-12" on="0"/>
        <pt x="196" y="-12" on="1"/>
        <pt x="128" y="-12" on="0"/>
        <pt x="52" y="75" on="0"/>
        <pt x="52" y="133" on="1"/>
        <pt x="52" y="213" on="0"/>
        <pt x="152" y="293" on="0"/>
        <pt x="239" y="293" on="1"/>
        <pt x="298" y="293" on="0"/>
        <pt x="352" y="283" on="1"/>
        <pt x="352" y="336" on="1"/>
        <pt x="352" y="441" on="0"/>
        <pt x="259" y="441" on="1"/>
        <pt x="188" y="441" on="0"/>
        <pt x="95" y="399" on="1"/>
        <pt x="85" y="407" on="0"/>
        <pt x="70" y="439" on="0"/>
        <pt x="70" y="453" on="1"/>
        <pt x="175" y="500" on="0"/>
        <pt x="264" y="500" on="1"/>
        <pt x="417" y="500" on="0"/>
        <pt x="417" y="334" on="1"/>
        <pt x="417" y="128" on="1"/>
        <pt x="417" y="55" on="0"/>
      </contour>
      <contour>
        <pt x="122" y="98" on="0"/>
        <pt x="165" y="47" on="0"/>
        <pt x="241" y="47" on="0"/>
        <pt x="321" y="91" on="0"/>
        <pt x="352" y="133" on="1"/>
        <pt x="352" y="232" on="1"/>
        <pt x="296" y="240" on="0"/>
        <pt x="185" y="240" on="0"/>
        <pt x="122" y="186" on="0"/>
      </contour>
      <contour>
        <pt x="179" y="565" on="1"/>
        <pt x="314" y="718" on="1"/>
        <pt x="333" y="712" on="0"/>
        <pt x="365" y="682" on="0"/>
        <pt x="373" y="665" on="1"/>
        <pt x="211" y="536" on="1"/>
        <pt x="188" y="542" on="0"/>
      </contour>
    </TTGlyph>
    <TTGlyph name="aacute.smcp" xMin="19" yMin="-6" xMax="504" yMax="770">
      <contour>
        <pt x="381" y="139" on="1"/>
        <pt x="320" y="138" on="1"/>
        <pt x="203" y="138" on="1"/>
        <pt x="135" y="139" on="1"/>
        <pt x="84" y="-1" on="1"/>
        <pt x="70" y="-4" on="0"/>
        <pt x="34" y="-4" on="0"/>
        <pt x="21" y="1" on="1"/>
        <pt x="19" y="4" on="1"/>
        <pt x="221" y="542" on="1"/>
        <pt x="235" y="546" on="0"/>
        <pt x="289" y="546" on="0"/>
        <pt x="301" y="542" on="1"/>
        <pt x="504" y="3" on="1"/>
        <pt x="488" y="-6" on="0"/>
        <pt x="446" y="-6" on="0"/>
        <pt x="429" y="9" on="0"/>
        <pt x="421" y="31" on="1"/>
      </contour>
      <contour>
        <pt x="157" y="197" on="1"/>
        <pt x="212" y="198" on="1"/>
        <pt x="311" y="198" on="1"/>
        <pt x="313" y="198" on="0"/>
        <pt x="353" y="197" on="0"/>
        <pt x="360" y="197" on="1"/>
        <pt x="310" y="333" on="1"/>
        <pt x="281" y="411" on="0"/>
        <pt x="260" y="478" on="1"/>
        <pt x="256" y="478" on="1"/>
        <pt x="237" y="412" on="0"/>
        <pt x="219" y="365" on="1"/>
      </contour>
      <contour>
        <pt x="199" y="617" on="1"/>
        <pt x="334" y="770" on="1"/>
        <pt x="353" y="764" on="0"/>
        <pt x="385" y="734" on="0"/>
        <pt x="393" y="717" on="1"/>
        <pt x="231" y="588" on="1"/>
        <pt x="208" y="594" on="0"/>
      </contour>
    </TTGlyph>
    <TTGlyph name="acircumflex" xMin="52" yMin="-12" xMax="445" yMax="707">
      <contour>
        <pt x="445" y="28" on="1"/>
        <pt x="435" y="3" on="0"/>
        <pt x="413" y="-7" on="1"/>
        <pt x="365" y="12" on="0"/>
        <pt x="355" y="65" on="1"/>
        <pt x="278" y="-12" on="0"/>
        <pt x="196" y="-12" on="1"/>
        <pt x="128" y="-12" on="0"/>
        <pt x="52" y="75" on="0"/>
        <pt x="52" y="133" on="1"/>
        <pt x="52" y="213" on="0"/>
        <pt x="152" y="293" on="0"/>
        <pt x="239" y="293" on="1"/>
        <pt x="298" y="293" on="0"/>
        <pt x="352" y="283" on="1"/>
        <pt x="352" y="336" on="1"/>
        <pt x="352" y="441" on="0"/>
        <pt x="259" y="441" on="1"/>
        <pt x="188" y="441" on="0"/>
        <pt x="95" y="399" on="1"/>
        <pt x="85" y="407" on="0"/>
        <pt x="70" y="439" on="0"/>
        <pt x="70" y="453" on="1"/>
        <pt x="175" y="500" on="0"/>
        <pt x="264" y="500" on="1"/>
        <pt x="417" y="500" on="0"/>
        <pt x="417" y="334" on="1"/>
        <pt x="417" y="128" on="1"/>
        <pt x="417" y="55" on="0"/>
      </contour>
      <contour>
        <pt x="122" y="98" on="0"/>
        <pt x="165" y="47" on="0"/>
        <pt x="241" y="47" on="0"/>
        <pt x="321" y="91" on="0"/>
        <pt x="352" y="133" on="1"/>
        <pt x="352" y="232" on="1"/>
        <pt x="296" y="240" on="0"/>
        <pt x="185" y="240" on="0"/>
        <pt x="122" y="186" on="0"/>
      </contour>
      <contour>
        <pt x="336" y="543" on="1"/>
        <pt x="241" y="637" on="1"/>
        <pt x="139" y="538" on="1"/>
        <pt x="117" y="548" on="0"/>
        <pt x="105" y="570" on="1"/>
        <pt x="212" y="702" on="1"/>
        <pt x="224" y="706" on="0"/>
        <pt x="255" y="706" on="0"/>
        <pt x="272" y="703" on="1"/>
        <pt x="374" y="576" on="1"/>
        <pt x="361" y="550" on="0"/>
      </contour>
    </TTGlyph>
    <TTGlyph name="acircumflex.smcp" xMin="19" yMin="-6" xMax="504" yMax="759">
      <contour>
        <pt x="381" y="139" on="1"/>
        <pt x="320" y="138" on="1"/>
        <pt x="203" y="138" on="1"/>
        <pt x="135" y="139" on="1"/>
        <pt x="84" y="-1" on="1"/>
        <pt x="70" y="-4" on="0"/>
        <pt x="34" y="-4" on="0"/>
        <pt x="21" y="1" on="1"/>
        <pt x="19" y="4" on="1"/>
        <pt x="221" y="542" on="1"/>
        <pt x="235" y="546" on="0"/>
        <pt x="289" y="546" on="0"/>
        <pt x="301" y="542" on="1"/>
        <pt x="504" y="3" on="1"/>
        <pt x="488" y="-6" on="0"/>
        <pt x="446" y="-6" on="0"/>
        <pt x="429" y="9" on="0"/>
        <pt x="421" y="31" on="1"/>
      </contour>
      <contour>
        <pt x="157" y="197" on="1"/>
        <pt x="212" y="198" on="1"/>
        <pt x="311" y="198" on="1"/>
        <pt x="313" y="198" on="0"/>
        <pt x="353" y="197" on="0"/>
        <pt x="360" y="197" on="1"/>
        <pt x="310" y="333" on="1"/>
        <pt x="281" y="411" on="0"/>
        <pt x="260" y="478" on="1"/>
        <pt x="256" y="478" on="1"/>
        <pt x="237" y="412" on="0"/>
        <pt x="219" y="365" on="1"/>
      </contour>
      <contour>
        <pt x="356" y="595" on="1"/>
        <pt x="261" y="689" on="1"/>
        <pt x="159" y="590" on="1"/>
        <pt x="137" y="600" on="0"/>
        <pt x="125" y="622" on="1"/>
        <pt x="232" y="754" on="1"/>
        <pt x="244" y="758" on="0"/>
        <pt x="275" y="758" on="0"/>
        <pt x="292" y="755" on="1"/>
        <pt x="394" y="628" on="1"/>
        <pt x="381" y="602" on="0"/>
      </contour>
    </TTGlyph>
    <TTGlyph name="acute" xMin="137" yMin="536" xMax="331" yMax="718">
      <contour>
        <pt x="137" y="565" on="1"/>
        <pt x="272" y="718" on="1"/>
        <pt x="291" y="712" on="0"/>
        <pt x="323" y="682" on="0"/>
        <pt x="331" y="665" on="1"/>
        <pt x="169" y="536" on="1"/>
        <pt x="146" y="542" on="0"/>
      </contour>
    </TTGlyph>
    <TTGlyph name="acute.cap" xMin="114" yMin="729" xMax="339" yMax="878">
      <contour>
        <pt x="114" y="768" on="1"/>
        <pt x="302" y="878" on="1"/>
        <pt x="330" y="861" on="0"/>
        <pt x="339" y="815" on="1"/>
        <pt x="136" y="729" on="1"/>
        <pt x="118" y="741" on="0"/>
      </contour>
    </TTGlyph>
    <TTGlyph name="adieresis" xMin="52" yMin="-12" xMax="445" yMax="646">
      <contour>
        <pt x="445" y="28" on="1"/>
        <pt x="435" y="3" on="0"/>
        <pt x="413" y="-7" on="1"/>
        <pt x="365" y="12" on="0"/>
        <pt x="355" y="65" on="1"/>
        <pt x="278" y="-12" on="0"/>
        <pt x="196" y="-12" on="1"/>
        <pt x="128" y="-12" on="0"/>
        <pt x="52" y="75" on="0"/>
        <pt x="52" y="133" on="1"/>
        <pt x="52" y="213" on="0"/>
        <pt x="152" y="293" on="0"/>
        <pt x="239" y="293" on="1"/>
        <pt x="298" y="293" on="0"/>
        <pt x="352" y="283" on="1"/>
        <pt x="352" y="336" on="1"/>
        <pt x="352" y="441" on="0"/>
        <pt x="259" y="441" on="1"/>
        <pt x="188" y="441" on="0"/>
        <pt x="95" y="399" on="1"/>
        <pt x="85" y="407" on="0"/>
        <pt x="70" y="439" on="0"/>
        <pt x="70" y="453" on="1"/>
        <pt x="175" y="500" on="0"/>
        <pt x="264" y="500" on="1"/>
        <pt x="417" y="500" on="0"/>
        <pt x="417" y="334" on="1"/>
        <pt x="417" y="128" on="1"/>
        <pt x="417" y="55" on="0"/>
      </contour>
      <contour>
        <pt x="122" y="98" on="0"/>
        <pt x="165" y="47" on="0"/>
        <pt x="241" y="47" on="0"/>
        <pt x="321" y="91" on="0"/>
        <pt x="352" y="133" on="1"/>
        <pt x="352" y="232" on="1"/>
        <pt x="296" y="240" on="0"/>
        <pt x="185" y="240" on="0"/>
        <pt x="122" y="186" on="0"/>
      </contour>
      <contour>
        <pt x="291" y="572" on="1"/>
        <pt x="284" y="588" on="0"/>
        <pt x="284" y="623" on="0"/>
        <pt x="291" y="637" on="1"/>
        <pt x="305" y="646" on="0"/>
        <pt x="353" y="646" on="0"/>
        <pt x="366" y="637" on="1"/>
        <pt x="373" y="623" on="0"/>
        <pt x="373" y="586" on="0"/>
        <pt x="366" y="572" on="1"/>
        <pt x="355" y="563" on="0"/>
        <pt x="304" y="563" on="0"/>
      </contour>
      <contour>
        <pt x="116" y="572" on="1"/>
        <pt x="109" y="588" on="0"/>
        <pt x="109" y="623" on="0"/>
        <pt x="116" y="637" on="1"/>
        <pt x="129" y="646" on="0"/>
        <pt x="177" y="646" on="0"/>
        <pt x="191" y="637" on="1"/>
        <pt x="198" y="623" on="0"/>
        <pt x="198" y="586" on="0"/>
        <pt x="191" y="572" on="1"/>
        <pt x="178" y="563" on="0"/>
        <pt x="127" y="563" on="0"/>
      </contour>
    </TTGlyph>
    <TTGlyph name="adieresis.smcp" xMin="19" yMin="-6" xMax="504" yMax="698">
      <contour>
        <pt x="381" y="139" on="1"/>
        <pt x="320" y="138" on="1"/>
        <pt x="203" y="138" on="1"/>
        <pt x="135" y="139" on="1"/>
        <pt x="84" y="-1" on="1"/>
        <pt x="70" y="-4" on="0"/>
        <pt x="34" y="-4" on="0"/>
        <pt x="21" y="1" on="1"/>
        <pt x="19" y="4" on="1"/>
        <pt x="221" y="542" on="1"/>
        <pt x="235" y="546" on="0"/>
        <pt x="289" y="546" on="0"/>
        <pt x="301" y="542" on="1"/>
        <pt x="504" y="3" on="1"/>
        <pt x="488" y="-6" on="0"/>
        <pt x="446" y="-6" on="0"/>
        <pt x="429" y="9" on="0"/>
        <pt x="421" y="31" on="1"/>
      </contour>
      <contour>
        <pt x="157" y="197" on="1"/>
        <pt x="212" y="198" on="1"/>
        <pt x="311" y="198" on="1"/>
        <pt x="313" y="198" on="0"/>
        <pt x="353" y="197" on="0"/>
        <pt x="360" y="197" on="1"/>
        <pt x="310" y="333" on="1"/>
        <pt x="281" y="411" on="0"/>
        <pt x="260" y="478" on="1"/>
        <pt x="256" y="478" on="1"/>
        <pt x="237" y="412" on="0"/>
        <pt x="219" y="365" on="1"/>
      </contour>
      <contour>
        <pt x="311" y="624" on="1"/>
        <pt x="304" y="640" on="0"/>
        <pt x="304" y="675" on="0"/>
        <pt x="311" y="689" on="1"/>
        <pt x="325" y="698" on="0"/>
        <pt x="373" y="698" on="0"/>
        <pt x="386" y="689" on="1"/>
        <pt x="393" y="675" on="0"/>
        <pt x="393" y="638" on="0"/>
        <pt x="386" y="624" on="1"/>
        <pt x="375" y="615" on="0"/>
        <pt x="324" y="615" on="0"/>
      </contour>
      <contour>
        <pt x="136" y="624" on="1"/>
        <pt x="129" y="640" on="0"/>
        <pt x="129" y="675" on="0"/>
        <pt x="136" y="689" on="1"/>
        <pt x="149" y="698" on="0"/>
        <pt x="197" y="698" on="0"/>
        <pt x="211" y="689" on="1"/>
        <pt x="218" y="675" on="0"/>
        <pt x="218" y="638" on="0"/>
        <pt x="211" y="624" on="1"/>
        <pt x="198" y="615" on="0"/>
        <pt x="147" y="615" on="0"/>
      </contour>
    </TTGlyph>
    <TTGlyph name="ae" xMin="52" yMin="-12" xMax="739" yMax="502">
      <contour>
        <pt x="735" y="224" on="1"/>
        <pt x="421" y="224" on="1"/>
        <pt x="426" y="49" on="0"/>
        <pt x="553" y="49" on="1"/>
        <pt x="622" y="49" on="0"/>
        <pt x="699" y="93" on="1"/>
        <pt x="721" y="74" on="0"/>
        <pt x="725" y="44" on="1"/>
        <pt x="644" y="-12" on="0"/>
        <pt x="544" y="-12" on="1"/>
        <pt x="429" y="-12" on="0"/>
        <pt x="383" y="83" on="1"/>
        <pt x="350" y="43" on="0"/>
        <pt x="252" y="-12" on="0"/>
        <pt x="127" y="-12" on="0"/>
        <pt x="52" y="74" on="0"/>
        <pt x="52" y="134" on="1"/>
        <pt x="52" y="214" on="0"/>
        <pt x="152" y="293" on="0"/>
        <pt x="239" y="293" on="1"/>
        <pt x="295" y="293" on="0"/>
        <pt x="352" y="282" on="1"/>
        <pt x="352" y="336" on="1"/>
        <pt x="352" y="441" on="0"/>
        <pt x="259" y="441" on="1"/>
        <pt x="188" y="441" on="0"/>
        <pt x="95" y="399" on="1"/>
        <pt x="85" y="407" on="0"/>
        <pt x="70" y="439" on="0"/>
        <pt x="70" y="453" on="1"/>
        <pt x="175" y="500" on="0"/>
        <pt x="364" y="500" on="0"/>
        <pt x="400" y="424" on="1"/>
        <pt x="454" y="502" on="0"/>
        <pt x="639" y="502" on="0"/>
        <pt x="739" y="381" on="0"/>
        <pt x="739" y="288" on="1"/>
        <pt x="739" y="256" on="0"/>
      </contour>
      <contour>
        <pt x="122" y="99" on="0"/>
        <pt x="165" y="47" on="0"/>
        <pt x="245" y="47" on="0"/>
        <pt x="331" y="93" on="0"/>
        <pt x="363" y="139" on="1"/>
        <pt x="354" y="172" on="0"/>
        <pt x="351" y="229" on="1"/>
        <pt x="294" y="240" on="0"/>
        <pt x="184" y="240" on="0"/>
        <pt x="122" y="187" on="0"/>
      </contour>
      <contour>
        <pt x="668" y="360" on="0"/>
        <pt x="609" y="449" on="0"/>
        <pt x="491" y="449" on="0"/>
        <pt x="425" y="357" on="0"/>
        <pt x="421" y="278" on="1"/>
        <pt x="668" y="278" on="1"/>
        <pt x="668" y="290" on="1"/>
      </contour>
    </TTGlyph>
    <TTGlyph name="ae.smcp" xMin="15" yMin="-4" xMax="721" yMax="542">
      <contour>
        <pt x="361" y="139" on="1"/>
        <pt x="304" y="138" on="1"/>
        <pt x="223" y="138" on="1"/>
        <pt x="165" y="139" on="1"/>
        <pt x="84" y="-1" on="1"/>
        <pt x="69" y="-4" on="0"/>
        <pt x="30" y="-4" on="0"/>
        <pt x="17" y="1" on="1"/>
        <pt x="15" y="5" on="1"/>
        <pt x="327" y="535" on="1"/>
        <pt x="342" y="542" on="0"/>
        <pt x="368" y="542" on="1"/>
        <pt x="706" y="542" on="1"/>
        <pt x="708" y="532" on="0"/>
        <pt x="708" y="497" on="0"/>
        <pt x="703" y="483" on="1"/>
        <pt x="566" y="483" on="0"/>
        <pt x="429" y="483" on="1"/>
        <pt x="430" y="433" on="1"/>
        <pt x="430" y="304" on="1"/>
        <pt x="483" y="305" on="1"/>
        <pt x="659" y="305" on="1"/>
        <pt x="662" y="296" on="0"/>
        <pt x="662" y="256" on="0"/>
        <pt x="659" y="246" on="1"/>
        <pt x="430" y="246" on="1"/>
        <pt x="430" y="93" on="1"/>
        <pt x="429" y="59" on="1"/>
        <pt x="443" y="60" on="0"/>
        <pt x="484" y="60" on="1"/>
        <pt x="721" y="60" on="1"/>
        <pt x="721" y="41" on="0"/>
        <pt x="719" y="32" on="1"/>
        <pt x="713" y="0" on="0"/>
        <pt x="675" y="0" on="1"/>
        <pt x="401" y="0" on="1"/>
        <pt x="383" y="0" on="0"/>
        <pt x="361" y="24" on="0"/>
        <pt x="361" y="44" on="1"/>
      </contour>
      <contour>
        <pt x="304" y="197" on="1"/>
        <pt x="361" y="196" on="1"/>
        <pt x="361" y="482" on="1"/>
        <pt x="356" y="482" on="1"/>
        <pt x="294" y="363" on="0"/>
        <pt x="275" y="330" on="1"/>
        <pt x="198" y="196" on="1"/>
        <pt x="240" y="197" on="1"/>
      </contour>
    </TTGlyph>
    <TTGlyph name="agrave" xMin="52" yMin="-12" xMax="445" yMax="718">
      <contour>
        <pt x="445" y="28" on="1"/>
        <pt x="435" y="3" on="0"/>
        <pt x="413" y="-7" on="1"/>
        <pt x="365" y="12" on="0"/>
        <pt x="355" y="65" on="1"/>
        <pt x="278" y="-12" on="0"/>
        <pt x="196" y="-12" on="1"/>
        <pt x="128" y="-12" on="0"/>
        <pt x="52" y="75" on="0"/>
        <pt x="52" y="133" on="1"/>
        <pt x="52" y="213" on="0"/>
        <pt x="152" y="293" on="0"/>
        <pt x="239" y="293" on="1"/>
        <pt x="298" y="293" on="0"/>
        <pt x="352" y="283" on="1"/>
        <pt x="352" y="336" on="1"/>
        <pt x="352" y="441" on="0"/>
        <pt x="259" y="441" on="1"/>
        <pt x="188" y="441" on="0"/>
        <pt x="95" y="399" on="1"/>
        <pt x="85" y="407" on="0"/>
        <pt x="70" y="439" on="0"/>
        <pt x="70" y="453" on="1"/>
        <pt x="175" y="500" on="0"/>
        <pt x="264" y="500" on="1"/>
        <pt x="417" y="500" on="0"/>
        <pt x="417" y="334" on="1"/>
        <pt x="417" y="128" on="1"/>
        <pt x="417" y="55" on="0"/>
      </contour>
      <contour>
        <pt x="122" y="98" on="0"/>
        <pt x="165" y="47" on="0"/>
        <pt x="241" y="47" on="0"/>
        <pt x="321" y="91" on="0"/>
        <pt x="352" y="133" on="1"/>
        <pt x="352" y="232" on="1"/>
        <pt x="296" y="240" on="0"/>
        <pt x="185" y="240" on="0"/>
        <pt x="122" y="186" on="0"/>
      </contour>
      <contour>
        <pt x="176" y="718" on="1"/>
        <pt x="311" y="565" on="1"/>
        <pt x="299" y="542" on="0"/>
        <pt x="279" y="536" on="1"/>
        <pt x="117" y="665" on="1"/>
        <pt x="125" y="682" on="0"/>
        <pt x="157" y="712" on="0"/>
      </contour>
    </TTGlyph>
    <TTGlyph name="agrave.smcp" xMin="19" yMin="-6" xMax="504" yMax="770">
      <contour>
        <pt x="381" y="139" on="1"/>
        <pt x="320" y="138" on="1"/>
        <pt x="203" y="138" on="1"/>
        <pt x="135" y="139" on="1"/>
        <pt x="84" y="-1" on="1"/>
        <pt x="70" y="-4" on="0"/>
        <pt x="34" y="-4" on="0"/>
        <pt x="21" y="1" on="1"/>
        <pt x="19" y="4" on="1"/>
        <pt x="221" y="542" on="1"/>
        <pt x="235" y="546" on="0"/>
        <pt x="289" y="546" on="0"/>
        <pt x="301" y="542" on="1"/>
        <pt x="504" y="3" on="1"/>
        <pt x="488" y="-6" on="0"/>
        <pt x="446" y="-6" on="0"/>
        <pt x="429" y="9" on="0"/>
        <pt x="421" y="31" on="1"/>
      </contour>
      <contour>
        <pt x="157" y="197" on="1"/>
        <pt x="212" y="198" on="1"/>
        <pt x="311" y="198" on="1"/>
        <pt x="313" y="198" on="0"/>
        <pt x="353" y="197" on="0"/>
        <pt x="360" y="197" on="1"/>
        <pt x="310" y="333" on="1"/>
        <pt x="281" y="411" on="0"/>
        <pt x="260" y="478" on="1"/>
        <pt x="256" y="478" on="1"/>
        <pt x="237" y="412" on="0"/>
        <pt x="219" y="365" on="1"/>
      </contour>
      <contour>
        <pt x="197" y="770" on="1"/>
        <pt x="332" y="617" on="1"/>
        <pt x="320" y="594" on="0"/>
        <pt x="300" y="588" on="1"/>
        <pt x="138" y="717" on="1"/>
        <pt x="146" y="734" on="0"/>
        <pt x="178" y="764" on="0"/>
      </contour>
    </TTGlyph>
    <TTGlyph name="ampersand" xMin="57" yMin="-12" xMax="575" yMax="695">
      <contour>
        <pt x="476" y="146" on="1"/>
        <pt x="482" y="0" on="1"/>
        <pt x="468" y="-3" on="0"/>
        <pt x="428" y="-3" on="0"/>
        <pt x="415" y="0" on="1"/>
        <pt x="409" y="39" on="1"/>
        <pt x="332" y="-12" on="0"/>
        <pt x="155" y="-12" on="0"/>
        <pt x="57" y="93" on="0"/>
        <pt x="57" y="180" on="1"/>
        <pt x="57" y="246" on="0"/>
        <pt x="135" y="349" on="0"/>
        <pt x="190" y="366" on="1"/>
        <pt x="145" y="382" on="0"/>
        <pt x="85" y="467" on="0"/>
        <pt x="85" y="519" on="1"/>
        <pt x="85" y="593" on="0"/>
        <pt x="194" y="695" on="0"/>
        <pt x="383" y="695" on="0"/>
        <pt x="453" y="668" on="1"/>
        <pt x="453" y="632" on="0"/>
        <pt x="434" y="610" on="1"/>
        <pt x="349" y="635" on="0"/>
        <pt x="228" y="635" on="0"/>
        <pt x="160" y="569" on="0"/>
        <pt x="160" y="461" on="0"/>
        <pt x="229" y="395" on="0"/>
        <pt x="299" y="395" on="1"/>
        <pt x="477" y="395" on="1"/>
        <pt x="540" y="395" on="0"/>
        <pt x="565" y="407" on="1"/>
        <pt x="575" y="396" on="0"/>
        <pt x="575" y="350" on="0"/>
        <pt x="542" y="334" on="0"/>
        <pt x="512" y="334" on="1"/>
        <pt x="475" y="334" on="1"/>
        <pt x="476" y="271" on="1"/>
      </contour>
      <contour>
        <pt x="407" y="270" on="1"/>
        <pt x="407" y="311" on="0"/>
        <pt x="408" y="334" on="1"/>
        <pt x="291" y="334" on="1"/>
        <pt x="210" y="334" on="0"/>
        <pt x="132" y="239" on="0"/>
        <pt x="132" y="119" on="0"/>
        <pt x="198" y="48" on="0"/>
        <pt x="299" y="48" on="0"/>
        <pt x="381" y="78" on="0"/>
        <pt x="407" y="100" on="1"/>
      </contour>
    </TTGlyph>
    <TTGlyph name="ampersand.smcp" xMin="51" yMin="-12" xMax="514" yMax="554">
      <contour>
        <pt x="430" y="111" on="1"/>
        <pt x="436" y="-4" on="1"/>
        <pt x="424" y="-8" on="0"/>
        <pt x="382" y="-8" on="0"/>
        <pt x="369" y="-5" on="1"/>
        <pt x="364" y="28" on="1"/>
        <pt x="298" y="-12" on="0"/>
        <pt x="139" y="-12" on="0"/>
        <pt x="51" y="73" on="0"/>
        <pt x="51" y="195" on="0"/>
        <pt x="120" y="277" on="0"/>
        <pt x="170" y="290" on="1"/>
        <pt x="129" y="302" on="0"/>
        <pt x="76" y="369" on="0"/>
        <pt x="76" y="412" on="1"/>
        <pt x="76" y="473" on="0"/>
        <pt x="173" y="554" on="0"/>
        <pt x="343" y="554" on="0"/>
        <pt x="408" y="531" on="1"/>
        <pt x="408" y="528" on="0"/>
        <pt x="408" y="525" on="1"/>
        <pt x="408" y="495" on="0"/>
        <pt x="389" y="475" on="1"/>
        <pt x="315" y="496" on="0"/>
        <pt x="208" y="496" on="0"/>
        <pt x="151" y="448" on="0"/>
        <pt x="151" y="408" on="1"/>
        <pt x="151" y="319" on="0"/>
        <pt x="271" y="319" on="1"/>
        <pt x="433" y="319" on="1"/>
        <pt x="483" y="319" on="0"/>
        <pt x="504" y="329" on="1"/>
        <pt x="514" y="312" on="0"/>
        <pt x="514" y="296" on="1"/>
        <pt x="514" y="258" on="0"/>
        <pt x="457" y="258" on="1"/>
        <pt x="429" y="258" on="1"/>
        <pt x="430" y="238" on="0"/>
        <pt x="430" y="204" on="1"/>
      </contour>
      <contour>
        <pt x="361" y="85" on="1"/>
        <pt x="361" y="258" on="1"/>
        <pt x="263" y="258" on="1"/>
        <pt x="192" y="258" on="0"/>
        <pt x="126" y="190" on="0"/>
        <pt x="126" y="97" on="0"/>
        <pt x="181" y="45" on="0"/>
        <pt x="232" y="45" on="1"/>
        <pt x="308" y="45" on="0"/>
      </contour>
    </TTGlyph>
    <TTGlyph name="aogonek" xMin="52" yMin="-217" xMax="475" yMax="500">
      <contour>
        <pt x="458" y="-148" on="1"/>
        <pt x="475" y="-162" on="0"/>
        <pt x="475" y="-185" on="1"/>
        <pt x="436" y="-217" on="0"/>
        <pt x="334" y="-217" on="0"/>
        <pt x="278" y="-169" on="0"/>
        <pt x="278" y="-127" on="1"/>
        <pt x="278" y="-48" on="0"/>
        <pt x="377" y="21" on="1"/>
        <pt x="363" y="36" on="0"/>
        <pt x="356" y="66" on="1"/>
        <pt x="278" y="-12" on="0"/>
        <pt x="196" y="-12" on="1"/>
        <pt x="128" y="-12" on="0"/>
        <pt x="52" y="75" on="0"/>
        <pt x="52" y="133" on="1"/>
        <pt x="52" y="213" on="0"/>
        <pt x="152" y="293" on="0"/>
        <pt x="239" y="293" on="1"/>
        <pt x="298" y="293" on="0"/>
        <pt x="352" y="283" on="1"/>
        <pt x="352" y="336" on="1"/>
        <pt x="352" y="441" on="0"/>
        <pt x="259" y="441" on="1"/>
        <pt x="188" y="441" on="0"/>
        <pt x="95" y="399" on="1"/>
        <pt x="85" y="407" on="0"/>
        <pt x="70" y="439" on="0"/>
        <pt x="70" y="453" on="1"/>
        <pt x="175" y="500" on="0"/>
        <pt x="264" y="500" on="1"/>
        <pt x="417" y="500" on="0"/>
        <pt x="417" y="334" on="1"/>
        <pt x="417" y="128" on="1"/>
        <pt x="417" y="61" on="0"/>
        <pt x="450" y="31" on="1"/>
        <pt x="442" y="13" on="0"/>
        <pt x="414" y="-9" on="1"/>
        <pt x="340" y="-65" on="0"/>
        <pt x="340" y="-114" on="1"/>
        <pt x="340" y="-139" on="0"/>
        <pt x="369" y="-166" on="0"/>
        <pt x="424" y="-166" on="0"/>
      </contour>
      <contour>
        <pt x="122" y="98" on="0"/>
        <pt x="165" y="47" on="0"/>
        <pt x="241" y="47" on="0"/>
        <pt x="321" y="91" on="0"/>
        <pt x="352" y="133" on="1"/>
        <pt x="352" y="232" on="1"/>
        <pt x="296" y="240" on="0"/>
        <pt x="185" y="240" on="0"/>
        <pt x="122" y="186" on="0"/>
      </contour>
    </TTGlyph>
    <TTGlyph name="aogonek.smcp" xMin="19" yMin="-217" xMax="549" yMax="546">
      <contour>
        <pt x="203" y="138" on="1"/>
        <pt x="135" y="139" on="1"/>
        <pt x="84" y="-1" on="1"/>
        <pt x="70" y="-4" on="0"/>
        <pt x="34" y="-4" on="0"/>
        <pt x="21" y="1" on="1"/>
        <pt x="19" y="4" on="1"/>
        <pt x="221" y="542" on="1"/>
        <pt x="235" y="546" on="0"/>
        <pt x="289" y="546" on="0"/>
        <pt x="301" y="542" on="1"/>
        <pt x="503" y="4" on="1"/>
        <pt x="504" y="3" on="1"/>
        <pt x="414" y="-58" on="0"/>
        <pt x="414" y="-114" on="1"/>
        <pt x="414" y="-139" on="0"/>
        <pt x="443" y="-166" on="0"/>
        <pt x="499" y="-166" on="0"/>
        <pt x="531" y="-148" on="1"/>
        <pt x="549" y="-162" on="0"/>
        <pt x="549" y="-185" on="1"/>
        <pt x="510" y="-217" on="0"/>
        <pt x="408" y="-217" on="0"/>
        <pt x="352" y="-169" on="0"/>
        <pt x="352" y="-127" on="1"/>
        <pt x="352" y="-53" on="0"/>
        <pt x="432" y="7" on="1"/>
        <pt x="428" y="12" on="0"/>
        <pt x="421" y="31" on="1"/>
        <pt x="381" y="139" on="1"/>
        <pt x="320" y="138" on="1"/>
      </contour>
      <contour>
        <pt x="157" y="197" on="1"/>
        <pt x="212" y="198" on="1"/>
        <pt x="311" y="198" on="1"/>
        <pt x="313" y="198" on="0"/>
        <pt x="353" y="197" on="0"/>
        <pt x="360" y="197" on="1"/>
        <pt x="310" y="333" on="1"/>
        <pt x="281" y="411" on="0"/>
        <pt x="260" y="478" on="1"/>
        <pt x="256" y="478" on="1"/>
        <pt x="237" y="412" on="0"/>
        <pt x="219" y="365" on="1"/>
      </contour>
    </TTGlyph>
    <TTGlyph name="aring" xMin="52" yMin="-12" xMax="445" yMax="743">
      <contour>
        <pt x="445" y="28" on="1"/>
        <pt x="435" y="3" on="0"/>
        <pt x="413" y="-7" on="1"/>
        <pt x="365" y="12" on="0"/>
        <pt x="355" y="65" on="1"/>
        <pt x="278" y="-12" on="0"/>
        <pt x="196" y="-12" on="1"/>
        <pt x="128" y="-12" on="0"/>
        <pt x="52" y="75" on="0"/>
        <pt x="52" y="133" on="1"/>
        <pt x="52" y="213" on="0"/>
        <pt x="152" y="293" on="0"/>
        <pt x="239" y="293" on="1"/>
        <pt x="298" y="293" on="0"/>
        <pt x="352" y="283" on="1"/>
        <pt x="352" y="336" on="1"/>
        <pt x="352" y="441" on="0"/>
        <pt x="259" y="441" on="1"/>
        <pt x="188" y="441" on="0"/>
        <pt x="95" y="399" on="1"/>
        <pt x="85" y="407" on="0"/>
        <pt x="70" y="439" on="0"/>
        <pt x="70" y="453" on="1"/>
        <pt x="175" y="500" on="0"/>
        <pt x="264" y="500" on="1"/>
        <pt x="417" y="500" on="0"/>
        <pt x="417" y="334" on="1"/>
        <pt x="417" y="128" on="1"/>
        <pt x="417" y="55" on="0"/>
      </contour>
      <contour>
        <pt x="122" y="98" on="0"/>
        <pt x="165" y="47" on="0"/>
        <pt x="241" y="47" on="0"/>
        <pt x="321" y="91" on="0"/>
        <pt x="352" y="133" on="1"/>
        <pt x="352" y="232" on="1"/>
        <pt x="296" y="240" on="0"/>
        <pt x="185" y="240" on="0"/>
        <pt x="122" y="186" on="0"/>
      </contour>
      <contour>
        <pt x="134" y="596" on="0"/>
        <pt x="134" y="682" on="0"/>
        <pt x="195" y="743" on="0"/>
        <pt x="287" y="743" on="0"/>
        <pt x="348" y="682" on="0"/>
        <pt x="348" y="596" on="0"/>
        <pt x="287" y="536" on="0"/>
        <pt x="195" y="536" on="0"/>
      </contour>
      <contour>
        <pt x="190" y="664" on="0"/>
        <pt x="190" y="614" on="0"/>
        <pt x="219" y="582" on="0"/>
        <pt x="263" y="582" on="0"/>
        <pt x="292" y="614" on="0"/>
        <pt x="292" y="664" on="0"/>
        <pt x="263" y="697" on="0"/>
        <pt x="219" y="697" on="0"/>
      </contour>
    </TTGlyph>
    <TTGlyph name="aring.smcp" xMin="19" yMin="-6" xMax="504" yMax="795">
      <contour>
        <pt x="381" y="139" on="1"/>
        <pt x="320" y="138" on="1"/>
        <pt x="203" y="138" on="1"/>
        <pt x="135" y="139" on="1"/>
        <pt x="84" y="-1" on="1"/>
        <pt x="70" y="-4" on="0"/>
        <pt x="34" y="-4" on="0"/>
        <pt x="21" y="1" on="1"/>
        <pt x="19" y="4" on="1"/>
        <pt x="221" y="542" on="1"/>
        <pt x="235" y="546" on="0"/>
        <pt x="289" y="546" on="0"/>
        <pt x="301" y="542" on="1"/>
        <pt x="504" y="3" on="1"/>
        <pt x="488" y="-6" on="0"/>
        <pt x="446" y="-6" on="0"/>
        <pt x="429" y="9" on="0"/>
        <pt x="421" y="31" on="1"/>
      </contour>
      <contour>
        <pt x="157" y="197" on="1"/>
        <pt x="212" y="198" on="1"/>
        <pt x="311" y="198" on="1"/>
        <pt x="313" y="198" on="0"/>
        <pt x="353" y="197" on="0"/>
        <pt x="360" y="197" on="1"/>
        <pt x="310" y="333" on="1"/>
        <pt x="281" y="411" on="0"/>
        <pt x="260" y="478" on="1"/>
        <pt x="256" y="478" on="1"/>
        <pt x="237" y="412" on="0"/>
        <pt x="219" y="365" on="1"/>
      </contour>
      <contour>
        <pt x="154" y="648" on="0"/>
        <pt x="154" y="734" on="0"/>
        <pt x="215" y="795" on="0"/>
        <pt x="307" y="795" on="0"/>
        <pt x="368" y="734" on="0"/>
        <pt x="368" y="648" on="0"/>
        <pt x="307" y="588" on="0"/>
        <pt x="215" y="588" on="0"/>
      </contour>
      <contour>
        <pt x="210" y="716" on="0"/>
        <pt x="210" y="666" on="0"/>
        <pt x="239" y="634" on="0"/>
        <pt x="283" y="634" on="0"/>
        <pt x="312" y="666" on="0"/>
        <pt x="312" y="716" on="0"/>
        <pt x="283" y="749" on="0"/>
        <pt x="239" y="749" on="0"/>
      </contour>
    </TTGlyph>
    <TTGlyph name="asciicircum" xMin="54" yMin="302" xMax="476" yMax="653">
      <contour>
        <pt x="302" y="648" on="1"/>
        <pt x="476" y="306" on="1"/>
        <pt x="466" y="302" on="0"/>
        <pt x="420" y="302" on="0"/>
        <pt x="405" y="306" on="1"/>
        <pt x="300" y="520" on="1"/>
        <pt x="279" y="564" on="0"/>
        <pt x="268" y="589" on="1"/>
        <pt x="262" y="589" on="1"/>
        <pt x="251" y="564" on="0"/>
        <pt x="230" y="520" on="1"/>
        <pt x="125" y="306" on="1"/>
        <pt x="110" y="302" on="0"/>
        <pt x="64" y="302" on="0"/>
        <pt x="54" y="306" on="1"/>
        <pt x="228" y="648" on="1"/>
        <pt x="247" y="652" on="0"/>
        <pt x="284" y="652" on="0"/>
      </contour>
    </TTGlyph>
    <TTGlyph name="asciitilde" xMin="45" yMin="223" xMax="510" yMax="356">
      <contour>
        <pt x="258" y="336" on="1"/>
        <pt x="334" y="302" on="1"/>
        <pt x="365" y="289" on="0"/>
        <pt x="427" y="289" on="0"/>
        <pt x="455" y="325" on="1"/>
        <pt x="469" y="344" on="1"/>
        <pt x="481" y="343" on="0"/>
        <pt x="506" y="328" on="0"/>
        <pt x="510" y="318" on="1"/>
        <pt x="501" y="301" on="1"/>
        <pt x="460" y="223" on="0"/>
        <pt x="378" y="223" on="1"/>
        <pt x="343" y="223" on="0"/>
        <pt x="296" y="243" on="1"/>
        <pt x="221" y="277" on="1"/>
        <pt x="190" y="290" on="0"/>
        <pt x="128" y="290" on="0"/>
        <pt x="100" y="254" on="1"/>
        <pt x="85" y="235" on="1"/>
        <pt x="73" y="236" on="0"/>
        <pt x="49" y="251" on="0"/>
        <pt x="45" y="262" on="1"/>
        <pt x="54" y="279" on="1"/>
        <pt x="95" y="356" on="0"/>
        <pt x="176" y="356" on="1"/>
        <pt x="215" y="356" on="0"/>
      </contour>
    </TTGlyph>
    <TTGlyph name="asterisk" xMin="49" yMin="358" xMax="443" yMax="737">
      <contour>
        <pt x="50" y="565" on="1"/>
        <pt x="50" y="568" on="0"/>
        <pt x="50" y="582" on="0"/>
        <pt x="62" y="617" on="0"/>
        <pt x="72" y="628" on="1"/>
        <pt x="119" y="614" on="1"/>
        <pt x="147" y="605" on="0"/>
        <pt x="226" y="563" on="1"/>
        <pt x="212" y="628" on="0"/>
        <pt x="212" y="675" on="1"/>
        <pt x="212" y="678" on="0"/>
        <pt x="212" y="681" on="1"/>
        <pt x="213" y="731" on="1"/>
        <pt x="226" y="737" on="0"/>
        <pt x="267" y="737" on="0"/>
        <pt x="280" y="731" on="1"/>
        <pt x="281" y="681" on="1"/>
        <pt x="281" y="678" on="0"/>
        <pt x="281" y="635" on="0"/>
        <pt x="267" y="563" on="1"/>
        <pt x="332" y="602" on="0"/>
        <pt x="375" y="614" on="1"/>
        <pt x="423" y="627" on="1"/>
        <pt x="432" y="618" on="0"/>
        <pt x="444" y="579" on="0"/>
        <pt x="443" y="564" on="1"/>
        <pt x="397" y="548" on="1"/>
        <pt x="365" y="537" on="0"/>
        <pt x="279" y="525" on="1"/>
        <pt x="336" y="474" on="0"/>
        <pt x="361" y="437" on="1"/>
        <pt x="388" y="396" on="1"/>
        <pt x="381" y="384" on="0"/>
        <pt x="349" y="361" on="0"/>
        <pt x="334" y="358" on="1"/>
        <pt x="305" y="397" on="1"/>
        <pt x="282" y="427" on="0"/>
        <pt x="247" y="501" on="1"/>
        <pt x="214" y="427" on="0"/>
        <pt x="189" y="397" on="1"/>
        <pt x="159" y="358" on="1"/>
        <pt x="145" y="361" on="0"/>
        <pt x="112" y="384" on="0"/>
        <pt x="104" y="397" on="1"/>
        <pt x="132" y="437" on="1"/>
        <pt x="156" y="471" on="0"/>
        <pt x="214" y="524" on="1"/>
        <pt x="140" y="532" on="0"/>
        <pt x="97" y="548" on="1"/>
      </contour>
    </TTGlyph>
    <TTGlyph name="at" xMin="58" yMin="-179" xMax="880" yMax="672">
      <contour>
        <pt x="641" y="413" on="1"/>
        <pt x="640" y="153" on="1"/>
        <pt x="640" y="108" on="0"/>
        <pt x="665" y="70" on="0"/>
        <pt x="692" y="70" on="1"/>
        <pt x="741" y="70" on="0"/>
        <pt x="812" y="178" on="0"/>
        <pt x="812" y="289" on="1"/>
        <pt x="812" y="437" on="0"/>
        <pt x="631" y="620" on="0"/>
        <pt x="323" y="620" on="0"/>
        <pt x="127" y="396" on="0"/>
        <pt x="127" y="63" on="0"/>
        <pt x="299" y="-124" on="0"/>
        <pt x="439" y="-124" on="1"/>
        <pt x="561" y="-124" on="0"/>
        <pt x="647" y="-88" on="1"/>
        <pt x="667" y="-104" on="0"/>
        <pt x="667" y="-138" on="1"/>
        <pt x="553" y="-179" on="0"/>
        <pt x="437" y="-179" on="1"/>
        <pt x="269" y="-179" on="0"/>
        <pt x="58" y="38" on="0"/>
        <pt x="58" y="418" on="0"/>
        <pt x="295" y="672" on="0"/>
        <pt x="659" y="672" on="0"/>
        <pt x="880" y="459" on="0"/>
        <pt x="880" y="286" on="1"/>
        <pt x="880" y="162" on="0"/>
        <pt x="766" y="15" on="0"/>
        <pt x="605" y="15" on="0"/>
        <pt x="581" y="81" on="1"/>
        <pt x="519" y="10" on="0"/>
        <pt x="366" y="10" on="0"/>
        <pt x="281" y="126" on="0"/>
        <pt x="281" y="332" on="0"/>
        <pt x="387" y="478" on="0"/>
        <pt x="569" y="478" on="0"/>
      </contour>
      <contour>
        <pt x="450" y="68" on="1"/>
        <pt x="482" y="68" on="0"/>
        <pt x="553" y="116" on="0"/>
        <pt x="573" y="149" on="1"/>
        <pt x="573" y="386" on="1"/>
        <pt x="538" y="425" on="0"/>
        <pt x="419" y="425" on="0"/>
        <pt x="350" y="311" on="0"/>
        <pt x="350" y="156" on="0"/>
        <pt x="400" y="68" on="0"/>
      </contour>
    </TTGlyph>
    <TTGlyph name="atilde" xMin="52" yMin="-12" xMax="445" yMax="674">
      <contour>
        <pt x="445" y="28" on="1"/>
        <pt x="435" y="3" on="0"/>
        <pt x="413" y="-7" on="1"/>
        <pt x="365" y="12" on="0"/>
        <pt x="355" y="65" on="1"/>
        <pt x="278" y="-12" on="0"/>
        <pt x="196" y="-12" on="1"/>
        <pt x="128" y="-12" on="0"/>
        <pt x="52" y="75" on="0"/>
        <pt x="52" y="133" on="1"/>
        <pt x="52" y="213" on="0"/>
        <pt x="152" y="293" on="0"/>
        <pt x="239" y="293" on="1"/>
        <pt x="298" y="293" on="0"/>
        <pt x="352" y="283" on="1"/>
        <pt x="352" y="336" on="1"/>
        <pt x="352" y="441" on="0"/>
        <pt x="259" y="441" on="1"/>
        <pt x="188" y="441" on="0"/>
        <pt x="95" y="399" on="1"/>
        <pt x="85" y="407" on="0"/>
        <pt x="70" y="439" on="0"/>
        <pt x="70" y="453" on="1"/>
        <pt x="175" y="500" on="0"/>
        <pt x="264" y="500" on="1"/>
        <pt x="417" y="500" on="0"/>
        <pt x="417" y="334" on="1"/>
        <pt x="417" y="128" on="1"/>
        <pt x="417" y="55" on="0"/>
      </contour>
      <contour>
        <pt x="122" y="98" on="0"/>
        <pt x="165" y="47" on="0"/>
        <pt x="241" y="47" on="0"/>
        <pt x="321" y="91" on="0"/>
        <pt x="352" y="133" on="1"/>
        <pt x="352" y="232" on="1"/>
        <pt x="296" y="240" on="0"/>
        <pt x="185" y="240" on="0"/>
        <pt x="122" y="186" on="0"/>
      </contour>
      <contour>
        <pt x="259" y="571" on="1"/>
        <pt x="197" y="601" on="1"/>
        <pt x="177" y="610" on="0"/>
        <pt x="141" y="610" on="0"/>
        <pt x="121" y="584" on="1"/>
        <pt x="108" y="568" on="1"/>
        <pt x="80" y="570" on="0"/>
        <pt x="72" y="591" on="1"/>
        <pt x="81" y="611" on="1"/>
        <pt x="94" y="640" on="0"/>
        <pt x="142" y="674" on="0"/>
        <pt x="195" y="674" on="0"/>
        <pt x="223" y="660" on="1"/>
        <pt x="285" y="630" on="1"/>
        <pt x="303" y="621" on="0"/>
        <pt x="340" y="621" on="0"/>
        <pt x="361" y="647" on="1"/>
        <pt x="374" y="663" on="1"/>
        <pt x="399" y="661" on="0"/>
        <pt x="410" y="641" on="1"/>
        <pt x="401" y="621" on="1"/>
        <pt x="372" y="557" on="0"/>
        <pt x="312" y="557" on="1"/>
        <pt x="287" y="557" on="0"/>
      </contour>
    </TTGlyph>
    <TTGlyph name="atilde.smcp" xMin="19" yMin="-6" xMax="504" yMax="726">
      <contour>
        <pt x="381" y="139" on="1"/>
        <pt x="320" y="138" on="1"/>
        <pt x="203" y="138" on="1"/>
        <pt x="135" y="139" on="1"/>
        <pt x="84" y="-1" on="1"/>
        <pt x="70" y="-4" on="0"/>
        <pt x="34" y="-4" on="0"/>
        <pt x="21" y="1" on="1"/>
        <pt x="19" y="4" on="1"/>
        <pt x="221" y="542" on="1"/>
        <pt x="235" y="546" on="0"/>
        <pt x="289" y="546" on="0"/>
        <pt x="301" y="542" on="1"/>
        <pt x="504" y="3" on="1"/>
        <pt x="488" y="-6" on="0"/>
        <pt x="446" y="-6" on="0"/>
        <pt x="429" y="9" on="0"/>
        <pt x="421" y="31" on="1"/>
      </contour>
      <contour>
        <pt x="157" y="197" on="1"/>
        <pt x="212" y="198" on="1"/>
        <pt x="311" y="198" on="1"/>
        <pt x="313" y="198" on="0"/>
        <pt x="353" y="197" on="0"/>
        <pt x="360" y="197" on="1"/>
        <pt x="310" y="333" on="1"/>
        <pt x="281" y="411" on="0"/>
        <pt x="260" y="478" on="1"/>
        <pt x="256" y="478" on="1"/>
        <pt x="237" y="412" on="0"/>
        <pt x="219" y="365" on="1"/>
      </contour>
      <contour>
        <pt x="279" y="623" on="1"/>
        <pt x="217" y="653" on="1"/>
        <pt x="197" y="662" on="0"/>
        <pt x="161" y="662" on="0"/>
        <pt x="141" y="636" on="1"/>
        <pt x="128" y="620" on="1"/>
        <pt x="100" y="622" on="0"/>
        <pt x="92" y="643" on="1"/>
        <pt x="101" y="663" on="1"/>
        <pt x="114" y="692" on="0"/>
        <pt x="162" y="726" on="0"/>
        <pt x="215" y="726" on="0"/>
        <pt x="243" y="712" on="1"/>
        <pt x="305" y="682" on="1"/>
        <pt x="323" y="673" on="0"/>
        <pt x="360" y="673" on="0"/>
        <pt x="381" y="699" on="1"/>
        <pt x="394" y="715" on="1"/>
        <pt x="419" y="713" on="0"/>
        <pt x="430" y="693" on="1"/>
        <pt x="421" y="673" on="1"/>
        <pt x="392" y="609" on="0"/>
        <pt x="332" y="609" on="1"/>
        <pt x="307" y="609" on="0"/>
      </contour>
    </TTGlyph>
    <TTGlyph name="b" xMin="90" yMin="-7" xMax="470" yMax="735">
      <contour>
        <pt x="382" y="498" on="0"/>
        <pt x="470" y="363" on="0"/>
        <pt x="470" y="123" on="0"/>
        <pt x="348" y="-7" on="0"/>
        <pt x="178" y="-7" on="0"/>
        <pt x="90" y="25" on="1"/>
        <pt x="90" y="729" on="1"/>
        <pt x="96" y="735" on="1"/>
        <pt x="121" y="735" on="1"/>
        <pt x="143" y="735" on="0"/>
        <pt x="157" y="713" on="0"/>
        <pt x="157" y="688" on="1"/>
        <pt x="157" y="434" on="1"/>
        <pt x="221" y="498" on="0"/>
      </contour>
      <contour>
        <pt x="402" y="345" on="0"/>
        <pt x="339" y="438" on="0"/>
        <pt x="255" y="438" on="0"/>
        <pt x="182" y="397" on="0"/>
        <pt x="157" y="364" on="1"/>
        <pt x="157" y="65" on="1"/>
        <pt x="204" y="46" on="0"/>
        <pt x="322" y="46" on="0"/>
        <pt x="402" y="151" on="0"/>
      </contour>
    </TTGlyph>
    <TTGlyph name="b.smcp" xMin="92" yMin="-3" xMax="486" yMax="545">
      <contour>
        <pt x="278" y="-3" on="1"/>
        <pt x="97" y="0" on="1"/>
        <pt x="92" y="5" on="1"/>
        <pt x="92" y="537" on="1"/>
        <pt x="97" y="542" on="1"/>
        <pt x="267" y="545" on="1"/>
        <pt x="456" y="545" on="0"/>
        <pt x="456" y="403" on="1"/>
        <pt x="456" y="364" on="0"/>
        <pt x="409" y="303" on="0"/>
        <pt x="369" y="290" on="1"/>
        <pt x="418" y="278" on="0"/>
        <pt x="486" y="202" on="0"/>
        <pt x="486" y="151" on="1"/>
        <pt x="486" y="84" on="0"/>
        <pt x="386" y="-3" on="0"/>
      </contour>
      <contour>
        <pt x="162" y="53" on="1"/>
        <pt x="283" y="54" on="1"/>
        <pt x="357" y="54" on="0"/>
        <pt x="414" y="114" on="0"/>
        <pt x="414" y="194" on="0"/>
        <pt x="348" y="257" on="0"/>
        <pt x="274" y="257" on="1"/>
        <pt x="162" y="257" on="1"/>
      </contour>
      <contour>
        <pt x="162" y="489" on="1"/>
        <pt x="162" y="316" on="1"/>
        <pt x="266" y="316" on="1"/>
        <pt x="385" y="316" on="0"/>
        <pt x="385" y="488" on="0"/>
        <pt x="268" y="488" on="1"/>
        <pt x="194" y="488" on="0"/>
      </contour>
    </TTGlyph>
    <TTGlyph name="backslash" xMin="14" yMin="-105" xMax="392" yMax="757">
      <contour>
        <pt x="331" y="-105" on="1"/>
        <pt x="14" y="734" on="1"/>
        <pt x="44" y="757" on="0"/>
        <pt x="75" y="757" on="1"/>
        <pt x="392" y="-82" on="1"/>
        <pt x="364" y="-103" on="0"/>
      </contour>
    </TTGlyph>
    <TTGlyph name="bar" xMin="90" yMin="-143" xMax="155" yMax="778">
      <contour>
        <pt x="90" y="-140" on="1"/>
        <pt x="90" y="775" on="1"/>
        <pt x="104" y="778" on="0"/>
        <pt x="140" y="778" on="0"/>
        <pt x="155" y="775" on="1"/>
        <pt x="155" y="-140" on="1"/>
        <pt x="140" y="-143" on="0"/>
        <pt x="104" y="-143" on="0"/>
      </contour>
    </TTGlyph>
    <TTGlyph name="braceleft" xMin="37" yMin="-161" xMax="305" yMax="808">
      <contour>
        <pt x="41" y="348" on="1"/>
        <pt x="76" y="363" on="0"/>
        <pt x="121" y="425" on="0"/>
        <pt x="121" y="471" on="1"/>
        <pt x="121" y="647" on="1"/>
        <pt x="121" y="712" on="0"/>
        <pt x="192" y="791" on="0"/>
        <pt x="250" y="801" on="1"/>
        <pt x="291" y="808" on="1"/>
        <pt x="305" y="793" on="0"/>
        <pt x="305" y="764" on="0"/>
        <pt x="303" y="756" on="1"/>
        <pt x="260" y="743" on="1"/>
        <pt x="191" y="722" on="0"/>
        <pt x="191" y="646" on="1"/>
        <pt x="191" y="473" on="1"/>
        <pt x="191" y="427" on="0"/>
        <pt x="148" y="346" on="0"/>
        <pt x="112" y="328" on="1"/>
        <pt x="112" y="320" on="1"/>
        <pt x="148" y="302" on="0"/>
        <pt x="191" y="221" on="0"/>
        <pt x="191" y="175" on="1"/>
        <pt x="191" y="1" on="1"/>
        <pt x="191" y="-74" on="0"/>
        <pt x="260" y="-97" on="1"/>
        <pt x="303" y="-109" on="1"/>
        <pt x="305" y="-117" on="0"/>
        <pt x="305" y="-146" on="0"/>
        <pt x="291" y="-161" on="1"/>
        <pt x="250" y="-154" on="1"/>
        <pt x="192" y="-144" on="0"/>
        <pt x="121" y="-65" on="0"/>
        <pt x="121" y="0" on="1"/>
        <pt x="121" y="177" on="1"/>
        <pt x="121" y="222" on="0"/>
        <pt x="76" y="286" on="0"/>
        <pt x="41" y="300" on="1"/>
        <pt x="37" y="308" on="0"/>
        <pt x="37" y="340" on="0"/>
      </contour>
    </TTGlyph>
    <TTGlyph name="braceright" xMin="7" yMin="-161" xMax="275" yMax="808">
      <contour>
        <pt x="271" y="348" on="1"/>
        <pt x="275" y="340" on="0"/>
        <pt x="275" y="308" on="0"/>
        <pt x="271" y="300" on="1"/>
        <pt x="236" y="286" on="0"/>
        <pt x="191" y="222" on="0"/>
        <pt x="191" y="177" on="1"/>
        <pt x="191" y="0" on="1"/>
        <pt x="191" y="-65" on="0"/>
        <pt x="120" y="-144" on="0"/>
        <pt x="61" y="-154" on="1"/>
        <pt x="21" y="-161" on="1"/>
        <pt x="7" y="-146" on="0"/>
        <pt x="7" y="-117" on="0"/>
        <pt x="9" y="-109" on="1"/>
        <pt x="52" y="-97" on="1"/>
        <pt x="120" y="-75" on="0"/>
        <pt x="120" y="1" on="1"/>
        <pt x="120" y="175" on="1"/>
        <pt x="120" y="221" on="0"/>
        <pt x="164" y="302" on="0"/>
        <pt x="200" y="320" on="1"/>
        <pt x="200" y="328" on="1"/>
        <pt x="164" y="346" on="0"/>
        <pt x="120" y="427" on="0"/>
        <pt x="120" y="473" on="1"/>
        <pt x="120" y="646" on="1"/>
        <pt x="120" y="722" on="0"/>
        <pt x="52" y="743" on="1"/>
        <pt x="9" y="756" on="1"/>
        <pt x="7" y="764" on="0"/>
        <pt x="7" y="793" on="0"/>
        <pt x="21" y="808" on="1"/>
        <pt x="61" y="801" on="1"/>
        <pt x="120" y="791" on="0"/>
        <pt x="191" y="712" on="0"/>
        <pt x="191" y="647" on="1"/>
        <pt x="191" y="471" on="1"/>
        <pt x="191" y="425" on="0"/>
        <pt x="236" y="363" on="0"/>
      </contour>
    </TTGlyph>
    <TTGlyph name="bracketleft" xMin="100" yMin="-140" xMax="280" yMax="807">
      <contour>
        <pt x="278" y="-133" on="1"/>
        <pt x="106" y="-140" on="1"/>
        <pt x="100" y="-134" on="1"/>
        <pt x="100" y="801" on="1"/>
        <pt x="106" y="807" on="1"/>
        <pt x="278" y="800" on="1"/>
        <pt x="280" y="792" on="0"/>
        <pt x="280" y="763" on="0"/>
        <pt x="274" y="747" on="1"/>
        <pt x="171" y="744" on="1"/>
        <pt x="171" y="-77" on="1"/>
        <pt x="274" y="-79" on="1"/>
        <pt x="280" y="-97" on="0"/>
        <pt x="280" y="-125" on="0"/>
      </contour>
    </TTGlyph>
    <TTGlyph name="bracketright" xMin="30" yMin="-140" xMax="210" yMax="807">
      <contour>
        <pt x="204" y="-140" on="1"/>
        <pt x="32" y="-133" on="1"/>
        <pt x="30" y="-125" on="0"/>
        <pt x="30" y="-97" on="0"/>
        <pt x="36" y="-79" on="1"/>
        <pt x="139" y="-77" on="1"/>
        <pt x="139" y="744" on="1"/>
        <pt x="36" y="747" on="1"/>
        <pt x="30" y="763" on="0"/>
        <pt x="30" y="792" on="0"/>
        <pt x="32" y="800" on="1"/>
        <pt x="204" y="807" on="1"/>
        <pt x="210" y="801" on="1"/>
        <pt x="210" y="-134" on="1"/>
      </contour>
    </TTGlyph>
    <TTGlyph name="brokenbar" xMin="87" yMin="-143" xMax="152" yMax="778">
      <contour>
        <pt x="87" y="-140" on="1"/>
        <pt x="87" y="247" on="1"/>
        <pt x="101" y="250" on="0"/>
        <pt x="137" y="250" on="0"/>
        <pt x="152" y="247" on="1"/>
        <pt x="152" y="-140" on="1"/>
        <pt x="137" y="-143" on="0"/>
        <pt x="100" y="-143" on="0"/>
      </contour>
      <contour>
        <pt x="87" y="388" on="1"/>
        <pt x="87" y="775" on="1"/>
        <pt x="101" y="778" on="0"/>
        <pt x="137" y="778" on="0"/>
        <pt x="152" y="775" on="1"/>
        <pt x="152" y="388" on="1"/>
        <pt x="137" y="385" on="0"/>
        <pt x="100" y="385" on="0"/>
      </contour>
    </TTGlyph>
    <TTGlyph name="bullet" xMin="120" yMin="177" xMax="316" yMax="367">
      <contour>
        <pt x="134" y="195" on="1"/>
        <pt x="120" y="221" on="0"/>
        <pt x="120" y="326" on="0"/>
        <pt x="134" y="349" on="1"/>
        <pt x="164" y="367" on="0"/>
        <pt x="219" y="367" on="1"/>
        <pt x="239" y="367" on="0"/>
        <pt x="293" y="356" on="0"/>
        <pt x="303" y="349" on="1"/>
        <pt x="316" y="328" on="0"/>
        <pt x="316" y="219" on="0"/>
        <pt x="303" y="195" on="1"/>
        <pt x="294" y="188" on="0"/>
        <pt x="240" y="177" on="0"/>
        <pt x="219" y="177" on="1"/>
        <pt x="164" y="177" on="0"/>
      </contour>
    </TTGlyph>
    <TTGlyph name="c" xMin="53" yMin="-12" xMax="425" yMax="502">
      <contour>
        <pt x="359" y="320" on="1"/>
        <pt x="359" y="326" on="0"/>
        <pt x="359" y="356" on="0"/>
        <pt x="344" y="405" on="0"/>
        <pt x="292" y="447" on="0"/>
        <pt x="251" y="447" on="1"/>
        <pt x="194" y="447" on="0"/>
        <pt x="125" y="339" on="0"/>
        <pt x="125" y="146" on="0"/>
        <pt x="193" y="48" on="0"/>
        <pt x="311" y="48" on="0"/>
        <pt x="385" y="104" on="1"/>
        <pt x="413" y="86" on="0"/>
        <pt x="419" y="60" on="1"/>
        <pt x="342" y="-12" on="0"/>
        <pt x="148" y="-12" on="0"/>
        <pt x="53" y="136" on="0"/>
        <pt x="53" y="368" on="0"/>
        <pt x="169" y="502" on="0"/>
        <pt x="253" y="502" on="1"/>
        <pt x="298" y="502" on="0"/>
        <pt x="369" y="472" on="0"/>
        <pt x="388" y="450" on="1"/>
        <pt x="425" y="404" on="0"/>
        <pt x="425" y="317" on="0"/>
        <pt x="388" y="317" on="1"/>
        <pt x="376" y="317" on="0"/>
      </contour>
    </TTGlyph>
    <TTGlyph name="c.smcp" xMin="46" yMin="-12" xMax="490" yMax="554">
      <contour>
        <pt x="423" y="352" on="1"/>
        <pt x="422" y="412" on="0"/>
        <pt x="357" y="496" on="0"/>
        <pt x="204" y="496" on="0"/>
        <pt x="120" y="381" on="0"/>
        <pt x="120" y="166" on="0"/>
        <pt x="207" y="49" on="0"/>
        <pt x="362" y="49" on="0"/>
        <pt x="447" y="113" on="1"/>
        <pt x="477" y="93" on="0"/>
        <pt x="484" y="67" on="1"/>
        <pt x="400" y="-12" on="0"/>
        <pt x="273" y="-12" on="1"/>
        <pt x="195" y="-12" on="0"/>
        <pt x="142" y="30" on="1"/>
        <pt x="46" y="105" on="0"/>
        <pt x="46" y="270" on="1"/>
        <pt x="46" y="411" on="0"/>
        <pt x="181" y="554" on="0"/>
        <pt x="383" y="554" on="0"/>
        <pt x="490" y="452" on="0"/>
        <pt x="490" y="389" on="1"/>
        <pt x="490" y="347" on="0"/>
        <pt x="453" y="347" on="1"/>
        <pt x="441" y="347" on="0"/>
      </contour>
    </TTGlyph>
    <TTGlyph name="cacute" xMin="53" yMin="-12" xMax="425" yMax="718">
      <contour>
        <pt x="359" y="320" on="1"/>
        <pt x="359" y="326" on="0"/>
        <pt x="359" y="356" on="0"/>
        <pt x="344" y="405" on="0"/>
        <pt x="292" y="447" on="0"/>
        <pt x="251" y="447" on="1"/>
        <pt x="194" y="447" on="0"/>
        <pt x="125" y="339" on="0"/>
        <pt x="125" y="146" on="0"/>
        <pt x="193" y="48" on="0"/>
        <pt x="311" y="48" on="0"/>
        <pt x="385" y="104" on="1"/>
        <pt x="413" y="86" on="0"/>
        <pt x="419" y="60" on="1"/>
        <pt x="342" y="-12" on="0"/>
        <pt x="148" y="-12" on="0"/>
        <pt x="53" y="136" on="0"/>
        <pt x="53" y="368" on="0"/>
        <pt x="169" y="502" on="0"/>
        <pt x="253" y="502" on="1"/>
        <pt x="298" y="502" on="0"/>
        <pt x="369" y="472" on="0"/>
        <pt x="388" y="450" on="1"/>
        <pt x="425" y="404" on="0"/>
        <pt x="425" y="317" on="0"/>
        <pt x="388" y="317" on="1"/>
        <pt x="376" y="317" on="0"/>
      </contour>
      <contour>
        <pt x="189" y="565" on="1"/>
        <pt x="324" y="718" on="1"/>
        <pt x="343" y="712" on="0"/>
        <pt x="375" y="682" on="0"/>
        <pt x="383" y="665" on="1"/>
        <pt x="221" y="536" on="1"/>
        <pt x="198" y="542" on="0"/>
      </contour>
    </TTGlyph>
    <TTGlyph name="cacute.smcp" xMin="46" yMin="-12" xMax="490" yMax="770">
      <contour>
        <pt x="423" y="352" on="1"/>
        <pt x="422" y="412" on="0"/>
        <pt x="357" y="496" on="0"/>
        <pt x="204" y="496" on="0"/>
        <pt x="120" y="381" on="0"/>
        <pt x="120" y="166" on="0"/>
        <pt x="207" y="49" on="0"/>
        <pt x="362" y="49" on="0"/>
        <pt x="447" y="113" on="1"/>
        <pt x="477" y="93" on="0"/>
        <pt x="484" y="67" on="1"/>
        <pt x="400" y="-12" on="0"/>
        <pt x="273" y="-12" on="1"/>
        <pt x="195" y="-12" on="0"/>
        <pt x="142" y="30" on="1"/>
        <pt x="46" y="105" on="0"/>
        <pt x="46" y="270" on="1"/>
        <pt x="46" y="411" on="0"/>
        <pt x="181" y="554" on="0"/>
        <pt x="383" y="554" on="0"/>
        <pt x="490" y="452" on="0"/>
        <pt x="490" y="389" on="1"/>
        <pt x="490" y="347" on="0"/>
        <pt x="453" y="347" on="1"/>
        <pt x="441" y="347" on="0"/>
      </contour>
      <contour>
        <pt x="222" y="617" on="1"/>
        <pt x="357" y="770" on="1"/>
        <pt x="376" y="764" on="0"/>
        <pt x="408" y="734" on="0"/>
        <pt x="416" y="717" on="1"/>
        <pt x="254" y="588" on="1"/>
        <pt x="231" y="594" on="0"/>
      </contour>
    </TTGlyph>
    <TTGlyph name="caron" xMin="69" yMin="546" xMax="337" yMax="715">
      <contour>
        <pt x="106" y="710" on="1"/>
        <pt x="201" y="616" on="1"/>
        <pt x="303" y="715" on="1"/>
        <pt x="324" y="707" on="0"/>
        <pt x="337" y="683" on="1"/>
        <pt x="230" y="551" on="1"/>
        <pt x="218" y="547" on="0"/>
        <pt x="187" y="547" on="0"/>
        <pt x="170" y="550" on="1"/>
        <pt x="69" y="677" on="1"/>
        <pt x="80" y="703" on="0"/>
      </contour>
    </TTGlyph>
    <TTGlyph name="caron.alt" xMin="207" yMin="559" xMax="293" yMax="768">
      <contour>
        <pt x="207" y="566" on="1"/>
        <pt x="220" y="766" on="1"/>
        <pt x="232" y="768" on="0"/>
        <pt x="273" y="768" on="0"/>
        <pt x="293" y="756" on="1"/>
        <pt x="251" y="563" on="1"/>
        <pt x="241" y="559" on="0"/>
        <pt x="219" y="559" on="0"/>
      </contour>
    </TTGlyph>
    <TTGlyph name="caron.cap" xMin="56" yMin="736" xMax="343" yMax="879">
      <contour>
        <pt x="90" y="874" on="1"/>
        <pt x="199" y="799" on="1"/>
        <pt x="311" y="879" on="1"/>
        <pt x="336" y="870" on="0"/>
        <pt x="343" y="846" on="1"/>
        <pt x="233" y="739" on="1"/>
        <pt x="213" y="736" on="0"/>
        <pt x="180" y="736" on="0"/>
        <pt x="167" y="739" on="1"/>
        <pt x="56" y="842" on="1"/>
        <pt x="65" y="866" on="0"/>
      </contour>
    </TTGlyph>
    <TTGlyph name="ccaron" xMin="53" yMin="-12" xMax="425" yMax="715">
      <contour>
        <pt x="359" y="320" on="1"/>
        <pt x="359" y="326" on="0"/>
        <pt x="359" y="356" on="0"/>
        <pt x="344" y="405" on="0"/>
        <pt x="292" y="447" on="0"/>
        <pt x="251" y="447" on="1"/>
        <pt x="194" y="447" on="0"/>
        <pt x="125" y="339" on="0"/>
        <pt x="125" y="146" on="0"/>
        <pt x="193" y="48" on="0"/>
        <pt x="311" y="48" on="0"/>
        <pt x="385" y="104" on="1"/>
        <pt x="413" y="86" on="0"/>
        <pt x="419" y="60" on="1"/>
        <pt x="342" y="-12" on="0"/>
        <pt x="148" y="-12" on="0"/>
        <pt x="53" y="136" on="0"/>
        <pt x="53" y="368" on="0"/>
        <pt x="169" y="502" on="0"/>
        <pt x="253" y="502" on="1"/>
        <pt x="298" y="502" on="0"/>
        <pt x="369" y="472" on="0"/>
        <pt x="388" y="450" on="1"/>
        <pt x="425" y="404" on="0"/>
        <pt x="425" y="317" on="0"/>
        <pt x="388" y="317" on="1"/>
        <pt x="376" y="317" on="0"/>
      </contour>
      <contour>
        <pt x="158" y="710" on="1"/>
        <pt x="253" y="616" on="1"/>
        <pt x="355" y="715" on="1"/>
        <pt x="376" y="707" on="0"/>
        <pt x="389" y="683" on="1"/>
        <pt x="282" y="551" on="1"/>
        <pt x="270" y="547" on="0"/>
        <pt x="239" y="547" on="0"/>
        <pt x="222" y="550" on="1"/>
        <pt x="121" y="677" on="1"/>
        <pt x="132" y="703" on="0"/>
      </contour>
    </TTGlyph>
    <TTGlyph name="ccaron.smcp" xMin="46" yMin="-12" xMax="490" yMax="767">
      <contour>
        <pt x="423" y="352" on="1"/>
        <pt x="422" y="412" on="0"/>
        <pt x="357" y="496" on="0"/>
        <pt x="204" y="496" on="0"/>
        <pt x="120" y="381" on="0"/>
        <pt x="120" y="166" on="0"/>
        <pt x="207" y="49" on="0"/>
        <pt x="362" y="49" on="0"/>
        <pt x="447" y="113" on="1"/>
        <pt x="477" y="93" on="0"/>
        <pt x="484" y="67" on="1"/>
        <pt x="400" y="-12" on="0"/>
        <pt x="273" y="-12" on="1"/>
        <pt x="195" y="-12" on="0"/>
        <pt x="142" y="30" on="1"/>
        <pt x="46" y="105" on="0"/>
        <pt x="46" y="270" on="1"/>
        <pt x="46" y="411" on="0"/>
        <pt x="181" y="554" on="0"/>
        <pt x="383" y="554" on="0"/>
        <pt x="490" y="452" on="0"/>
        <pt x="490" y="389" on="1"/>
        <pt x="490" y="347" on="0"/>
        <pt x="453" y="347" on="1"/>
        <pt x="441" y="347" on="0"/>
      </contour>
      <contour>
        <pt x="191" y="762" on="1"/>
        <pt x="286" y="668" on="1"/>
        <pt x="388" y="767" on="1"/>
        <pt x="409" y="759" on="0"/>
        <pt x="422" y="735" on="1"/>
        <pt x="315" y="603" on="1"/>
        <pt x="303" y="599" on="0"/>
        <pt x="272" y="599" on="0"/>
        <pt x="255" y="602" on="1"/>
        <pt x="154" y="729" on="1"/>
        <pt x="165" y="755" on="0"/>
      </contour>
    </TTGlyph>
    <TTGlyph name="ccedilla" xMin="53" yMin="-218" xMax="425" yMax="502">
      <contour>
        <pt x="200" y="-72" on="1"/>
        <pt x="209" y="-40" on="0"/>
        <pt x="221" y="-10" on="1"/>
        <pt x="163" y="-3" on="0"/>
        <pt x="124" y="36" on="1"/>
        <pt x="53" y="106" on="0"/>
        <pt x="53" y="368" on="0"/>
        <pt x="169" y="502" on="0"/>
        <pt x="253" y="502" on="1"/>
        <pt x="298" y="502" on="0"/>
        <pt x="369" y="472" on="0"/>
        <pt x="388" y="450" on="1"/>
        <pt x="425" y="404" on="0"/>
        <pt x="425" y="317" on="0"/>
        <pt x="388" y="317" on="1"/>
        <pt x="376" y="317" on="0"/>
        <pt x="359" y="320" on="1"/>
        <pt x="359" y="326" on="0"/>
        <pt x="359" y="356" on="0"/>
        <pt x="344" y="405" on="0"/>
        <pt x="292" y="447" on="0"/>
        <pt x="251" y="447" on="1"/>
        <pt x="194" y="447" on="0"/>
        <pt x="125" y="339" on="0"/>
        <pt x="125" y="146" on="0"/>
        <pt x="193" y="48" on="0"/>
        <pt x="311" y="48" on="0"/>
        <pt x="385" y="104" on="1"/>
        <pt x="413" y="86" on="0"/>
        <pt x="419" y="60" on="1"/>
        <pt x="354" y="0" on="0"/>
        <pt x="276" y="-10" on="1"/>
        <pt x="268" y="-23" on="0"/>
        <pt x="263" y="-40" on="1"/>
        <pt x="301" y="-43" on="0"/>
        <pt x="351" y="-89" on="0"/>
        <pt x="351" y="-166" on="0"/>
        <pt x="289" y="-218" on="0"/>
        <pt x="198" y="-218" on="0"/>
        <pt x="169" y="-200" on="1"/>
        <pt x="170" y="-179" on="0"/>
        <pt x="187" y="-157" on="1"/>
        <pt x="210" y="-171" on="0"/>
        <pt x="264" y="-171" on="0"/>
        <pt x="289" y="-145" on="0"/>
        <pt x="289" y="-107" on="0"/>
        <pt x="264" y="-82" on="0"/>
        <pt x="227" y="-82" on="0"/>
        <pt x="215" y="-87" on="1"/>
        <pt x="203" y="-82" on="0"/>
      </contour>
    </TTGlyph>
    <TTGlyph name="ccedilla.smcp" xMin="46" yMin="-218" xMax="490" yMax="554">
      <contour>
        <pt x="232" y="-72" on="1"/>
        <pt x="242" y="-35" on="0"/>
        <pt x="253" y="-11" on="1"/>
        <pt x="148" y="-3" on="0"/>
        <pt x="46" y="156" on="0"/>
        <pt x="46" y="270" on="1"/>
        <pt x="46" y="411" on="0"/>
        <pt x="181" y="554" on="0"/>
        <pt x="383" y="554" on="0"/>
        <pt x="490" y="452" on="0"/>
        <pt x="490" y="389" on="1"/>
        <pt x="490" y="347" on="0"/>
        <pt x="453" y="347" on="1"/>
        <pt x="441" y="347" on="0"/>
        <pt x="423" y="352" on="1"/>
        <pt x="422" y="412" on="0"/>
        <pt x="357" y="496" on="0"/>
        <pt x="204" y="496" on="0"/>
        <pt x="120" y="381" on="0"/>
        <pt x="120" y="166" on="0"/>
        <pt x="207" y="49" on="0"/>
        <pt x="362" y="49" on="0"/>
        <pt x="447" y="113" on="1"/>
        <pt x="477" y="93" on="0"/>
        <pt x="484" y="67" on="1"/>
        <pt x="413" y="2" on="0"/>
        <pt x="308" y="-10" on="1"/>
        <pt x="301" y="-23" on="0"/>
        <pt x="295" y="-40" on="1"/>
        <pt x="333" y="-43" on="0"/>
        <pt x="382" y="-89" on="0"/>
        <pt x="382" y="-167" on="0"/>
        <pt x="321" y="-218" on="0"/>
        <pt x="230" y="-218" on="0"/>
        <pt x="201" y="-200" on="1"/>
        <pt x="202" y="-179" on="0"/>
        <pt x="219" y="-157" on="1"/>
        <pt x="242" y="-171" on="0"/>
        <pt x="296" y="-171" on="0"/>
        <pt x="321" y="-145" on="0"/>
        <pt x="321" y="-107" on="0"/>
        <pt x="296" y="-82" on="0"/>
        <pt x="259" y="-82" on="0"/>
        <pt x="247" y="-87" on="1"/>
        <pt x="235" y="-82" on="0"/>
      </contour>
    </TTGlyph>
    <TTGlyph name="cedilla" xMin="121" yMin="-218" xMax="303" yMax="0">
      <contour>
        <pt x="152" y="-72" on="1"/>
        <pt x="163" y="-32" on="0"/>
        <pt x="178" y="0" on="1"/>
        <pt x="233" y="0" on="1"/>
        <pt x="219" y="-28" on="0"/>
        <pt x="215" y="-40" on="1"/>
        <pt x="253" y="-43" on="0"/>
        <pt x="303" y="-89" on="0"/>
        <pt x="303" y="-166" on="0"/>
        <pt x="241" y="-218" on="0"/>
        <pt x="150" y="-218" on="0"/>
        <pt x="121" y="-200" on="1"/>
        <pt x="122" y="-179" on="0"/>
        <pt x="139" y="-157" on="1"/>
        <pt x="162" y="-171" on="0"/>
        <pt x="216" y="-171" on="0"/>
        <pt x="242" y="-145" on="0"/>
        <pt x="242" y="-107" on="0"/>
        <pt x="216" y="-82" on="0"/>
        <pt x="179" y="-82" on="0"/>
        <pt x="167" y="-87" on="1"/>
        <pt x="155" y="-82" on="0"/>
      </contour>
    </TTGlyph>
    <TTGlyph name="cent" xMin="53" yMin="-32" xMax="425" yMax="683">
      <contour>
        <pt x="219" y="-30" on="1"/>
        <pt x="219" y="70" on="1"/>
        <pt x="135" y="81" on="0"/>
        <pt x="53" y="226" on="0"/>
        <pt x="53" y="437" on="0"/>
        <pt x="149" y="569" on="0"/>
        <pt x="222" y="581" on="1"/>
        <pt x="222" y="680" on="1"/>
        <pt x="231" y="683" on="0"/>
        <pt x="273" y="683" on="0"/>
        <pt x="285" y="680" on="1"/>
        <pt x="285" y="582" on="1"/>
        <pt x="354" y="573" on="0"/>
        <pt x="425" y="485" on="0"/>
        <pt x="425" y="399" on="0"/>
        <pt x="389" y="399" on="1"/>
        <pt x="376" y="399" on="0"/>
        <pt x="359" y="402" on="1"/>
        <pt x="360" y="409" on="0"/>
        <pt x="360" y="415" on="1"/>
        <pt x="360" y="457" on="0"/>
        <pt x="311" y="528" on="0"/>
        <pt x="194" y="528" on="0"/>
        <pt x="127" y="422" on="0"/>
        <pt x="127" y="227" on="0"/>
        <pt x="194" y="129" on="0"/>
        <pt x="321" y="129" on="0"/>
        <pt x="383" y="187" on="1"/>
        <pt x="410" y="176" on="0"/>
        <pt x="421" y="147" on="1"/>
        <pt x="367" y="83" on="0"/>
        <pt x="282" y="71" on="1"/>
        <pt x="282" y="-30" on="1"/>
        <pt x="266" y="-32" on="0"/>
        <pt x="231" y="-32" on="0"/>
      </contour>
    </TTGlyph>
    <TTGlyph name="cent.smcp" xMin="48" yMin="-31" xMax="380" yMax="575">
      <contour>
        <pt x="193" y="-28" on="1"/>
        <pt x="193" y="52" on="1"/>
        <pt x="119" y="63" on="0"/>
        <pt x="48" y="188" on="0"/>
        <pt x="48" y="366" on="0"/>
        <pt x="132" y="479" on="0"/>
        <pt x="196" y="491" on="1"/>
        <pt x="196" y="572" on="1"/>
        <pt x="206" y="575" on="0"/>
        <pt x="244" y="575" on="0"/>
        <pt x="256" y="572" on="1"/>
        <pt x="256" y="492" on="1"/>
        <pt x="317" y="484" on="0"/>
        <pt x="380" y="415" on="0"/>
        <pt x="380" y="335" on="0"/>
        <pt x="343" y="335" on="1"/>
        <pt x="333" y="335" on="0"/>
        <pt x="315" y="339" on="1"/>
        <pt x="315" y="344" on="0"/>
        <pt x="315" y="349" on="1"/>
        <pt x="315" y="383" on="0"/>
        <pt x="275" y="440" on="0"/>
        <pt x="177" y="440" on="0"/>
        <pt x="120" y="350" on="0"/>
        <pt x="120" y="192" on="0"/>
        <pt x="178" y="108" on="0"/>
        <pt x="285" y="108" on="0"/>
        <pt x="341" y="151" on="1"/>
        <pt x="366" y="140" on="0"/>
        <pt x="377" y="112" on="1"/>
        <pt x="326" y="61" on="0"/>
        <pt x="254" y="52" on="1"/>
        <pt x="254" y="-28" on="1"/>
        <pt x="242" y="-31" on="0"/>
        <pt x="204" y="-31" on="0"/>
      </contour>
    </TTGlyph>
    <TTGlyph name="circumflex" xMin="63" yMin="538" xMax="332" yMax="707">
      <contour>
        <pt x="294" y="543" on="1"/>
        <pt x="199" y="637" on="1"/>
        <pt x="97" y="538" on="1"/>
        <pt x="75" y="548" on="0"/>
        <pt x="63" y="570" on="1"/>
        <pt x="170" y="702" on="1"/>
        <pt x="182" y="706" on="0"/>
        <pt x="213" y="706" on="0"/>
        <pt x="230" y="703" on="1"/>
        <pt x="332" y="576" on="1"/>
        <pt x="319" y="550" on="0"/>
      </contour>
    </TTGlyph>
    <TTGlyph name="circumflex.cap" xMin="55" yMin="733" xMax="342" yMax="876">
      <contour>
        <pt x="308" y="738" on="1"/>
        <pt x="199" y="813" on="1"/>
        <pt x="87" y="733" on="1"/>
        <pt x="62" y="742" on="0"/>
        <pt x="55" y="767" on="1"/>
        <pt x="166" y="873" on="1"/>
        <pt x="182" y="876" on="0"/>
        <pt x="215" y="876" on="0"/>
        <pt x="232" y="873" on="1"/>
        <pt x="342" y="771" on="1"/>
        <pt x="335" y="746" on="0"/>
      </contour>
    </TTGlyph>
    <TTGlyph name="colon" xMin="68" yMin="-7" xMax="183" yMax="441">
      <contour>
        <pt x="76" y="3" on="1"/>
        <pt x="68" y="16" on="0"/>
        <pt x="68" y="77" on="0"/>
        <pt x="76" y="88" on="1"/>
        <pt x="94" y="98" on="0"/>
        <pt x="159" y="98" on="0"/>
        <pt x="175" y="88" on="1"/>
        <pt x="183" y="77" on="0"/>
        <pt x="183" y="16" on="0"/>
        <pt x="175" y="3" on="1"/>
        <pt x="161" y="-7" on="0"/>
        <pt x="94" y="-7" on="0"/>
      </contour>
      <contour>
        <pt x="76" y="346" on="1"/>
        <pt x="68" y="359" on="0"/>
        <pt x="68" y="420" on="0"/>
        <pt x="76" y="431" on="1"/>
        <pt x="94" y="441" on="0"/>
        <pt x="159" y="441" on="0"/>
        <pt x="175" y="431" on="1"/>
        <pt x="183" y="420" on="0"/>
        <pt x="183" y="359" on="0"/>
        <pt x="175" y="346" on="1"/>
        <pt x="161" y="336" on="0"/>
        <pt x="94" y="336" on="0"/>
      </contour>
    </TTGlyph>
    <TTGlyph name="comma" xMin="41" yMin="-148" xMax="188" yMax="98">
      <contour>
        <pt x="178" y="88" on="1"/>
        <pt x="188" y="70" on="0"/>
        <pt x="188" y="-29" on="0"/>
        <pt x="123" y="-126" on="0"/>
        <pt x="61" y="-148" on="1"/>
        <pt x="52" y="-144" on="0"/>
        <pt x="40" y="-121" on="0"/>
        <pt x="41" y="-110" on="1"/>
        <pt x="76" y="-93" on="0"/>
        <pt x="117" y="-40" on="0"/>
        <pt x="117" y="-9" on="1"/>
        <pt x="90" y="-4" on="0"/>
        <pt x="79" y="4" on="1"/>
        <pt x="71" y="18" on="0"/>
        <pt x="71" y="77" on="0"/>
        <pt x="79" y="88" on="1"/>
        <pt x="99" y="98" on="0"/>
        <pt x="165" y="98" on="0"/>
      </contour>
    </TTGlyph>
    <TTGlyph name="commaaccent" xMin="122" yMin="-244" xMax="250" yMax="-53">
      <contour>
        <pt x="243" y="-58" on="1"/>
        <pt x="250" y="-79" on="0"/>
        <pt x="250" y="-103" on="1"/>
        <pt x="250" y="-147" on="0"/>
        <pt x="194" y="-221" on="0"/>
        <pt x="146" y="-244" on="1"/>
        <pt x="128" y="-238" on="0"/>
        <pt x="122" y="-213" on="1"/>
        <pt x="177" y="-174" on="0"/>
        <pt x="177" y="-120" on="1"/>
        <pt x="177" y="-94" on="0"/>
        <pt x="164" y="-68" on="1"/>
        <pt x="187" y="-53" on="0"/>
        <pt x="227" y="-53" on="0"/>
      </contour>
    </TTGlyph>
    <TTGlyph name="commaaccent.cap" xMin="122" yMin="-244" xMax="250" yMax="-53">
      <contour>
        <pt x="243" y="-58" on="1"/>
        <pt x="250" y="-79" on="0"/>
        <pt x="250" y="-103" on="1"/>
        <pt x="250" y="-147" on="0"/>
        <pt x="194" y="-221" on="0"/>
        <pt x="146" y="-244" on="1"/>
        <pt x="128" y="-238" on="0"/>
        <pt x="122" y="-213" on="1"/>
        <pt x="177" y="-174" on="0"/>
        <pt x="177" y="-120" on="1"/>
        <pt x="177" y="-94" on="0"/>
        <pt x="164" y="-68" on="1"/>
        <pt x="187" y="-53" on="0"/>
        <pt x="227" y="-53" on="0"/>
      </contour>
    </TTGlyph>
</ttFont>
